<?xml version="1.0" standalone="no"?>
<!DOCTYPE svg PUBLIC "-//W3C//DTD SVG 1.1//EN" "http://www.w3.org/Graphics/SVG/1.1/DTD/svg11.dtd" >
<svg>
<metadata>
Created by FontForge 20120731 at Wed Jan 20 10:59:45 2016
 By www-data
Typeface (c) Danh Hong. 2008. All Rights Reserved
</metadata>
<defs>
<font id="Kh-Metal-Chrieng" horiz-adv-x="0" >
  <font-face 
    font-family="Kh Metal Chrieng"
    font-weight="400"
    font-stretch="normal"
    units-per-em="2048"
    panose-1="2 0 0 0 0 0 0 0 0 0"
    ascent="1638"
    descent="-410"
    x-height="1140"
    cap-height="1500"
    bbox="-3603 -1607 5035 3166"
    underline-thickness="150"
    underline-position="-142"
    unicode-range="U+0020-25CC"
  />
<missing-glyph horiz-adv-x="1536" 
d="M256 0v1280h1024v-1280h-1024zM288 32h960v1216h-960v-1216z" />
    <glyph glyph-name="uni17D21780" unicode="&#x17d2;&#x1780;" 
d="M-460 -212q66 -68 66 -178q0 -47 -13 -103l-49 -237q-15 -70 -91 -70q-77 0 -56 91l52 247q20 93 -35 146q-71 66 -264 66q-138 0 -210 -48q-58 -39 -73 -111l-68 -321q-16 -70 -93 -70q-60 0 -60 60q0 16 4 36l71 329q27 128 122 197q109 78 307 78q284 0 390 -112z" />
    <glyph glyph-name="uni17D21781" unicode="&#x17d2;&#x1781;" 
d="M-428 -183q58 -48 58 -125q0 -24 -6 -52q-18 -102 -379 -177l-360 -75q14 -38 216 -38q139 0 406 123q89 40 77 -29q-13 -69 -161 -156q-148 -88 -322 -88q-292 0 -350 135q-13 32 -13 58q0 31 18 55q34 46 132 69l291 53q292 53 298 93q7 40 -27 57q-61 30 -249 30
q-191 0 -266 -29q-43 -16 -50 -42q-5 -28 27 -28q33 0 23 -35q-9 -35 -61 -50q-53 -15 -102 24q-37 29 -37 80q0 16 3 34q19 82 101 129q117 67 362 67q272 0 371 -83z" />
    <glyph glyph-name="uni17D21782" unicode="&#x17d2;&#x1782;" 
d="M-1200 -728l-1 -2q-16 -70 -93 -70q-60 0 -60 60q0 16 4 36l71 329q27 128 122 197q109 78 307 78q284 0 390 -112q66 -68 66 -178q0 -47 -13 -103l-49 -237q-15 -70 -91 -70q-77 0 -56 91l52 247q20 93 -35 146q-71 66 -264 66q-138 0 -210 -48q-58 -39 -73 -111
l-30 -145q113 104 170 104q97 0 159 -54t12 -111q-51 -57 -95 -21t-76 36q-47 0 -146 -79z" />
    <glyph glyph-name="uni17D21783" unicode="&#x17d2;&#x1783;" horiz-adv-x="756" 
d="M-238 -769q-96 32 -144 95q-61 -63 -152 -95q-90 -31 -160 -31q-190 0 -295 94t-66 281l11 70q-107 45 -107 126q0 14 3 28q21 101 124 101t135 -56t5 -183l-23 -111q-20 -100 48 -150t165 -50q83 0 164 51q80 52 108 155l70 347q72 -108 153 -154q80 -46 185 -6
q-86 -107 -192 -111q-56 -5 -57 -30l-7 -52q-20 -100 48 -150t165 -50q79 0 161 56q82 57 106 169l288 1358q14 65 -48 133q-63 67 -197 75q147 86 236 186t131 173q72 -108 144 -158q71 -50 142 -42l-50 -34q-51 -35 -126 -38q-75 -4 -128 58l-91 -98q85 -58 118 -130
t15 -158l-287 -1350q-37 -175 -155 -262q-119 -88 -259 -88q-85 0 -181 31z" />
    <glyph glyph-name="uni17D21784" unicode="&#x17d2;&#x1784;" 
d="M-1041 -418q9 47 -17 47q-27 0 -49 -41q-23 -41 -23 -108q0 -68 60 -99q59 -31 170 -31q138 0 225 101q86 101 123 178q36 77 59 188q19 83 94 83q61 0 61 -66q0 -19 -6 -45q-26 -121 -79 -237q-54 -117 -166 -234q-112 -118 -311 -118q-140 0 -260 65t-120 215
q0 110 67 205q66 94 161 94q190 0 167 -152q-15 -92 -90 -92t-66 47z" />
    <glyph glyph-name="uni17D21785" unicode="&#x17d2;&#x1785;" 
d="M-990 -182q0 82 79 82q71 0 71 -82q0 -97 -44 -179q-44 -83 -102 -133t-164 -106q0 -50 167 -50q200 0 305 129q-98 37 -90 122t50 132t125 47q73 0 109 -47t36 -123q0 -19 -18 -49q133 -15 133 -89q0 -4 -1 -9q-8 -82 -53.5 -87.5t-41 34t-107.5 53.5q-15 -19 -32 -39.5
t-36 -42.5q-78 -90 -173 -135q-94 -46 -206 -46q-167 0 -240.5 50t-73.5 150q0 103 67 123q66 21 115 58q50 38 88 108q37 69 37 129zM-559 -390q6 13 6 23q0 24 -40 24q-56 0 -56 -47q0 -30 62 -41q20 24 28 41z" />
    <glyph glyph-name="uni17D21786" unicode="&#x17d2;&#x1786;" 
d="M-558 -408q-7 33 -29 62q-45 61 -103 61q-84 0 -98 -52q-18 -91 95 -91q76 0 135 20zM-404 -484q-2 -12 -5 -25q-37 -161 -139 -226t-298 -65q-135 0 -218 75q-84 75 -132 75q-64 0 -75 -52q-22 -98 -75 -98q-82 0 -82 68q0 14 3 31l60 285q23 111 -15 142.5t-38 93.5
t89 79q23 4 42 4q57 0 86 -36q39 -49 18 -149l-46 -220q16 2 33 2q83 0 171 -75q87 -75 179 -75q151 0 209 37q26 17 45 44q-47 -9 -101 -9q-142 0 -207 82q-65 81 -47 168t83 140q64 53 174 53q149 0 232 -104q28 -35 43 -76q65 52 99 29q21 -14 21 -38q0 -23 -20 -56
q-38 -61 -89 -104z" />
    <glyph glyph-name="uni17D21787" unicode="&#x17d2;&#x1787;" 
d="M-500 -432q-29 4 -62 5q-75 4 -114 41q-42 42 -40 126q3 80 45 120q43 40 126 40q106 0 167 -93q43 -64 43 -152q30 -18 59 -45q56 -50 56 -91q0 -24 -19 -45q-51 -58 -108 17q-7 10 -15 18q-19 -52 -51 -101q-55 -85 -149 -161q-59 -47 -123 -47q-63 0 -162 207
q-177 -207 -250 -207q-72 0 -119 77q-41 69 -68 133q-23 56 -35 109q-10 49 -10 95q0 38 7 74q21 95 73 154q52 58 109 58q100 0 100 -100t-100 -100q-12 0 -22 2q-9 -21 -14 -43q-10 -50 3 -111q9 -39 27 -84q23 -55 60 -119q232 240 267 240t160 -235q76 67 120 136
q25 41 39 82zM-555 -294q19 -9 62 -12q-3 9 -7 16q-20 40 -45 40t-24 -28q1 -10 14 -16z" />
    <glyph glyph-name="uni17D21788" unicode="&#x17d2;&#x1788;" horiz-adv-x="756" 
d="M-1126 -282q-46 -38 -64 -118l-21 -100q151 0 151 -100q0 -200 -249 -200q-99 0 -99 76q0 15 4 33l69 326q28 135 109 201q78 64 206 64q171 0 240 -84q71 -87 33 -266q-20 -100 28 -150t95 -50q83 0 134 52q50 51 78 154l70 347q72 -108 153 -154q80 -46 185 -6
q-86 -107 -192 -111q-56 -5 -57 -30l-7 -52q-20 -100 48 -150t165 -50q69 0 151 56q82 57 106 169l288 1358q14 65 -48 133q-63 67 -197 75q147 86 236 186t131 173q72 -108 144 -158q71 -50 142 -42l-50 -34q-51 -35 -126 -38q-75 -4 -128 58l-91 -98q85 -58 118 -130
t15 -158l-287 -1350q-37 -175 -155 -262q-119 -88 -249 -88q-85 0 -181 31q-96 32 -144 95q-61 -63 -116 -94q-56 -32 -136 -32q-100 0 -205 94t-66 281q15 92 -20 135q-32 40 -105 40q-64 0 -106 -32z" />
    <glyph glyph-name="uni17D21789" unicode="&#x17d2;&#x1789;" 
d="M-1510 -265q0 35 20 56q19 20 55 16t86 -48q353 -309 679 -309q147 0 231 82q84 81 96 138q11 57 4 68.5t-31 11.5q0 -50 -75 -50t-75 70q0 130 150 130q105 0 152 -71q31 -46 31 -112q0 -37 -10 -80q-26 -121 -149 -229q-124 -108 -324 -108q-381 0 -783 350
q-57 50 -57 85z" />
    <glyph glyph-name="uni17D2178A" unicode="&#x17d2;&#x178a;" 
d="M-1159 -560l-24 -105q91 21 98 70q7 48 -74 35zM-1279 -375q27 128 122 197q109 78 307 78q284 0 390 -112q66 -68 66 -178q0 -47 -13 -103l-49 -237q-15 -70 -91 -70q-77 0 -56 91l52 247q20 93 -35 146q-71 66 -264 66q-138 0 -210 -48q-58 -39 -73 -111l-5 -28
q119 6 158 -40q38 -47 22 -140q-16 -94 -127 -138q-111 -45 -197 -45q-61 0 -61 90q0 36 10 87z" />
    <glyph glyph-name="uni17D2178B" unicode="&#x17d2;&#x178b;" 
d="M-1198 -317q102 67 298 67h394v2q-25 6 -33 27q-9 22 -1 58t36 49q16 8 38 8q18 0 39 -5q49 -10 66 -52q9 -21 9 -51q0 -28 -8 -64l-85 -398q-15 -74 -95 -74q-75 0 -121 43l-142 134l-25 -29q-120 -148 -242 -148q-128 0 -187 57q-51 49 -51 138q0 41 10 89
q21 96 100 149zM-1146 -568q19 -32 76 -32q102 0 167 76l106 111l213 -196l46 209h-362q-139 0 -202 -36q-41 -24 -50 -64q-9 -43 6 -68z" />
    <glyph glyph-name="uni17D2178C" unicode="&#x17d2;&#x178c;" 
d="M-574.5 -359.5q-3.5 20.5 -26.5 61.5q-47 61 -77 61q-31 0 -206 -154q-113 154 -154 154q-44 -4 -86 -41q-44 -38 -12 -82t21.5 -78.5t-67.5 -35t-102 97.5q-11 25 -11 50q0 75 99 151q95 75 158 75q96 0 179 -117q114 117 189 117q74 0 158 -103q92 -127 92 -201
q0 -10 -2 -20q-21 -57 -269 -123l-316 -83q-54 -16 -39 -62q6 -25 50 -13l312 103q76 20 122 -3q46 -24 11 -111l-36 -88q-31 -75 -77 -75q-11 0 -23 4q-61 21 -26 113l13 39l-259 -91q-178 -52 -223 90q-55 163 135 214l143 40l167 45q166 45 162.5 65.5z" />
    <glyph glyph-name="uni17D2178D" unicode="&#x17d2;&#x178d;" horiz-adv-x="757" 
d="M-1222 -597l-16 -68q80 21 83 51t-67 17zM499 933q14 65 -48 133q-63 67 -197 75q147 86 236 186t131 173q72 -108 144 -158q71 -50 142 -42l-50 -34q-51 -35 -126 -38q-75 -4 -128 58l-91 -98q85 -58 118 -130t15 -158l-340 -1600q-21 -100 -97 -100q-77 0 -150 63
l-171 157l-250 -157q-100 -63 -176 -63q-77 0 -56 100l42 197q18 91 -30 186q-49 66 -80 66q-32 0 -215 -190q-118 190 -161 190q-46 -4 -90 -44q-45 -41 -68 -133l-5 -47q119 7 152 -40q34 -46 22 -121t-117 -119q-106 -45 -192 -45q-61 0 -61 90q0 36 10 87l50 249
q25 101 134 191q99 82 165 82q100 0 147 -83l40 -67q119 150 197 150t166 -112q83 -112 96 -168q2 -9 2 -25q0 -36 -12 -105l-15 -81l320 197l264 -238z" />
    <glyph glyph-name="uni17D2178E" unicode="&#x17d2;&#x178e;" 
d="M-2639 -560l-24 -105q91 21 98 70q7 48 -74 35zM-1327 -599l48 224q27 128 122 197q109 78 307 78q284 0 390 -112q66 -68 66 -178q0 -47 -13 -103l-49 -237q-15 -70 -91 -70q-77 0 -56 91l52 247q20 93 -35 146q-71 66 -264 66q-138 0 -210 -48q-58 -39 -73 -111
l-53 -256q-30 -135 -113 -135q-43 0 -108 66l-195 197l-277 -197q-93 -66 -129 -66q-96 0 -75 91l52 247q20 93 -35 146q-71 66 -264 66q-138 0 -210 -48q-58 -39 -73 -111l-5 -28q119 6 158 -40q38 -47 22 -140q-16 -94 -127 -138q-111 -45 -197 -45q-61 0 -61 90
q0 36 10 87l54 248q27 128 122 197q109 78 307 78q284 0 390 -112q66 -68 66 -178q0 -47 -13 -103l-15 -72l315 227z" />
    <glyph glyph-name="uni17D2178F" unicode="&#x17d2;&#x178f;" 
d="M-1159 -560l-24 -105q91 21 98 70q7 48 -74 35zM-1279 -375q27 128 122 197q109 78 307 78q284 0 390 -112q66 -68 66 -178q0 -47 -13 -103l-49 -237q-15 -70 -91 -70q-77 0 -56 91l52 247q20 93 -35 146q-71 66 -264 66q-138 0 -210 -48q-58 -39 -73 -111l-5 -28
q119 6 158 -40q38 -47 22 -140q-16 -94 -127 -138q-111 -45 -197 -45q-61 0 -61 90q0 36 10 87z" />
    <glyph glyph-name="uni17D21790" unicode="&#x17d2;&#x1790;" 
d="M-861.5 -364.5q95.5 -41.5 50.5 -202.5q-41 -133 -209 -133q-269 0 -269 224q0 48 12 106q56 270 477 270q394 0 467 -301q8 -31 8 -55q0 -62 -48 -78q-66 -21 -92 75q-59 209 -335 209q-300 0 -331 -150q-32 -150 111 -150q54 0 67 30q29 67 -55 94q51 103 146.5 61.5z
" />
    <glyph glyph-name="uni17D21791" unicode="&#x17d2;&#x1791;" 
d="M-688 -188q19 88 96 88q76 0 53 -110q-46 -212 -442 -359q-14 -81 81 -81q157 0 361 244q68 81 100 75q48 -10 48 -75q0 -21 -6 -49l-50 -248q-23 -97 -101 -97t-56 100l21 104q-173 -204 -317 -204q-97 0 -182 87q-68 70 -68 144q0 18 3 35q18 71 69 84q357 102 390 262
z" />
    <glyph glyph-name="uni17D21792" unicode="&#x17d2;&#x1792;" 
d="M-1173 -557q-2 -93 173 -93q152 0 113 170q-156 -66 -286 -77zM-615.5 -345.5q-88.5 -64.5 -179.5 -88.5l173 -75q54 -19 77 62l23 81q37 136 21 211q131 -49 131 -124q0 -53 -18 -125l-27 -99q-28 -104 -111 -136q-89 -39 -147 -2l-85 54q-9 -113 -67 -163t-175 -50
q-184 0 -253.5 68.5t-69.5 171.5v13q5 81 65 107q169 28 332.5 85t227 114t-1.5 92q3 49 64 49q60 0 87 -28q46 -36 34 -94.5t-100.5 -123z" />
    <glyph glyph-name="uni17D21793" unicode="&#x17d2;&#x1793;" 
d="M-1334 -639q-66 61 -66 169t67 189t217 81h419q23 100 99 100t54 -100h344q100 0 100 -75t-100 -75h-374l-32 -150q50 0 85 -36t35 -119t-46 -114q-47 -31 -109 -31t-100 30t-53 107q-202 -37 -306 -37q-168 0 -234 61zM-1220 -519q29 -31 120 -31q34 0 340 35l31 165
h-387q-75 0 -104 -31q-30 -31 -30 -69q0 -39 30 -69z" />
    <glyph glyph-name="uni17D21794" unicode="&#x17d2;&#x1794;" horiz-adv-x="757" 
d="M-496 -239q21 100 77 129q55 28 130 -23q74 -52 49 -108q-25 -57 -72.5 -70.5t-71.5 -123.5l-34 -157l320 197l264 -238l333 1566q14 65 -48 133q-63 67 -197 75q147 86 236 186t131 173q72 -108 144 -158q71 -50 142 -42l-50 -34q-51 -35 -126 -38q-75 -4 -128 58
l-91 -98q85 -58 118 -130t15 -158l-340 -1600q-21 -100 -97 -100q-77 0 -150 63l-171 157l-250 -157q-100 -63 -176 -63q-60 0 -60 62q0 17 4 38z" />
    <glyph glyph-name="uni17D21795" unicode="&#x17d2;&#x1795;" 
d="M-449 -700q-21 -100 -97 -100q-77 0 -150 63l-171 137l-250 -137q-100 -63 -176 -63q-60 0 -60 62q0 17 4 38l62 282q23 111 -15 157.5t-18 103.5t89 57t108 -42t18 -142l-67 -308l320 177l264 -218l50 233q14 71 -40 108q-55 37 -30 115q25 77 125 77q62 0 104 -38
q29 -25 29 -76q0 -25 -7 -56z" />
    <glyph glyph-name="uni17D21796" unicode="&#x17d2;&#x1796;" 
d="M-1345 -374q25 101 134 191q99 82 165 82q100 0 147 -83l40 -67q119 150 197 150t166 -112q83 -112 96 -168q2 -9 2 -25q0 -76 -50 -294q-22 -100 -92 -100t-120 35t-35 80t63 58t72 124q18 91 -30 186q-49 66 -80 66q-32 0 -215 -190q-118 190 -161 190q-46 -4 -90 -44
q-45 -41 -68 -133l-5 -47q119 7 152 -40q34 -46 22 -121t-117 -119q-106 -45 -192 -45q-61 0 -61 90q0 36 10 87zM-1229 -597l-16 -68q80 21 83 51t-67 17z" />
    <glyph glyph-name="uni17D21797" unicode="&#x17d2;&#x1797;" 
d="M-1288 -417l9 42q27 128 122 197q109 78 307 78q284 0 390 -112q66 -68 66 -178q0 -47 -13 -103l-49 -237q-15 -70 -91 -70q-77 0 -56 91l52 247q20 93 -35 146q-71 66 -264 66q-138 0 -210 -48q-58 -39 -73 -111l-68 -321q-16 -70 -99 -70q-71 0 -120 90q-50 90 -50 167
q0 42 18 93q17 50 164 33z" />
    <glyph glyph-name="uni17D21798" unicode="&#x17d2;&#x1798;" 
d="M-308 -460q-13 10 -42 10h-50l-6 -27q-9 -37 1 -55q9 -18 35 -18q62 0 71 52q5 26 -9 38zM-536 -638q-47 63 -17 188q-74 0 -278.5 -20t-368.5 -20q-168 0 -234 61t-66 120t65 59t105 -45q39 -45 130 -45q164 0 377 20t305 20l6 26l22 119q13 55 89 55t57 -100l-22 -100
h16q122 0 176 -55q42 -43 42 -120q0 -23 -4 -50q-25 -175 -234 -175q-120 0 -166 62z" />
    <glyph glyph-name="uni17D21799" unicode="&#x17d2;&#x1799;" horiz-adv-x="757" 
d="M499 933q14 65 -48 133q-63 67 -197 75q147 86 236 186t131 173q72 -108 144 -158q71 -50 142 -42l-50 -34q-51 -35 -126 -38q-75 -4 -128 58l-91 -98q85 -58 118 -130t15 -158l-287 -1350q-37 -175 -172 -262q-136 -88 -320 -88q-216 0 -327 100q-56 50 -75 119
q-9 35 -9 74t9 82l11 51l29 135q21 100 77 129q55 28 130 -23q74 -52 49 -108q-25 -57 -72.5 -70.5t-71.5 -123.5l-4 -15q-20 -96 38 -148q59 -52 216 -52q139 0 230 59t113 162z" />
    <glyph glyph-name="uni17D2179A" unicode="&#x17d2;&#x179a;" horiz-adv-x="750" 
d="M1302 -559q140 94 248 285q46 93 100 93q56 0 56 -50q0 -51 -32 -114q-119 -233 -294 -347q-165 -108 -410 -108q-434 0 -598 249q-86 156 -86 366q0 133 35 288l178 830q14 65 -48 133q-63 67 -197 75q147 86 236 186t131 173q72 -108 144 -158q71 -50 142 -42l-50 -34
q-51 -35 -126 -38q-75 -4 -128 58l-91 -98q85 -58 118 -130t15 -158l-177 -831q-67 -308 35 -516q128 -203 467 -203q196 0 332 91z" />
    <glyph glyph-name="uni17D2179B" unicode="&#x17d2;&#x179b;" 
d="M-762 -577q89 0 6 -111q-82 -112 -244 -112q-300 0 -300 241q0 230 335 253q88 9 198 -46q116 3 202.5 69.5t86.5 146.5q0 86 73 86q72 0 72 -86q0 -120 -103 -211q-103 -90 -200 -130q-97 -39 -178 -3t-151 27q-185 -11 -185 -106q0 -91 150 -91q93 0 238 73z" />
    <glyph glyph-name="uni17D2179C" unicode="&#x17d2;&#x179c;" 
d="M-381 -137q0 -63 -69 -198q-243 -465 -450 -465q-168 0 -250 134q-34 67 -34 129q0 29 8 57q23 87 147 126q193 67 380 184l94 58q58 36 103 36q28 0 50 -14q21 -13 21 -47zM-560 -277q-219 -138 -431 -200q-81 -21 -42 -97t133 -76q107 0 340 373z" />
    <glyph glyph-name="uni17D2179F" unicode="&#x17d2;&#x179f;" horiz-adv-x="757" 
d="M454 1l-96 -451q-37 -175 -172 -262q-136 -88 -320 -88q-216 0 -327 100q-56 50 -75 119q-9 35 -9 74t9 82l14 70q9 50 -27 80q-37 30 -37 92t89 79q88 16 127 -32q40 -49 18 -149l-36 -165q-20 -96 38 -148q59 -52 216 -52q139 0 230 59t113 162l93 436q-76 11 -116 39
q-66 45 -66 99q0 94 143 114q-19 -55 8 -82q16 -16 62 -22l166 778q14 65 -48 133q-63 67 -197 75q147 86 236 186t131 173q72 -108 144 -158q71 -50 142 -42l-50 -34q-51 -35 -126 -38q-75 -4 -128 58l-91 -98q85 -58 118 -130t15 -158l-159 -746q55 8 93 28q61 31 84 107
q0 -122 -41 -194q-46 -84 -168 -94z" />
    <glyph glyph-name="uni17D217A0" unicode="&#x17d2;&#x17a0;" 
d="M-1291 -98q73 0 52 -87l-60 -264q-25 -109 23.5 -164t139.5 -55q85 0 139 49.5t77 148.5l26 114q31 131 119 194.5t215 63.5q97 0 151.5 -32.5t96.5 -82t59 -135.5q7 -33 7 -70q0 -58 -16 -127l-37 -167q-21 -88 -88 -88q-66 0 -114 31t-33 70q14 40 60 51
q45 12 67.5 111t12.5 154q-8 56 -43.5 105t-122.5 49q-83 0 -130 -38.5t-62 -107.5l-29 -117q-35 -154 -128.5 -231t-226.5 -77q-143 0 -244 97q-72 70 -72 180q0 45 11 96l58 247q19 82 92 82z" />
    <glyph glyph-name="uni17D217A2" unicode="&#x17d2;&#x17a2;" 
d="M-1098 -528l-36 -166q-23 -106 -81 -106t-114 62q-45 50 -45 101q0 11 2 23q13 62 110 41l42 196l-88 70q103 71 189 215q91 -140 217 -141q-98 -107 -232 -26l-31 -35q103 -61 90 -125v-1h536l9 43l-87 70q102 71 188 215q52 -114 158 -141q-78 -90 -173 -26l-30 -35
q102 -61 89 -125l-59 -275q-23 -106 -80 -106q-58 0 -103 40.5t-36.5 103t91.5 83.5l10 45h-536z" />
    <glyph glyph-name="uni17B717CD" unicode="&#x17b7;&#x17cd;" 
d="M-83 1730q10 -20 10 -35q0 -1 -1 -3q-3 -42 -77 -42q-12 0 -27 1l-598 53q-91 8 -138 46q-47 39 -47 114q0 13 1 26q9 104 82 158q65 48 180 48q27 0 57 -3q99 -8 216 -78q25 -14 49 -30q33 139 222 154q59 7 123 -20q88 53 122 104q30 47 30 90q0 80 68 80q69 0 69 -80
q0 -91 -56 -167q-58 -81 -145 -130q-57 -44 -110.5 -23.5t-100.5 13.5q-91 -9 -91 -84q0 -26 13 -42q9 -7 18 -15q20 -10 51 -10q101 0 119 22.5t77 22.5t5 -89q-38 -62 -121 -81zM-335 1779q-16 17 -27 39q-177 116 -292 126q-83 7 -122 -18q-32 -19 -35 -49q-3 -34 10 -46
q11 -12 35 -14z" />
    <glyph glyph-name=".notdef" horiz-adv-x="1536" 
d="M256 0v1280h1024v-1280h-1024zM288 32h960v1216h-960v-1216z" />
    <glyph glyph-name=".null" 
 />
    <glyph glyph-name="nonmarkingreturn" horiz-adv-x="569" 
 />
    <glyph glyph-name="space" unicode=" " horiz-adv-x="569" 
 />
    <glyph glyph-name="space" unicode="&#xa0;" horiz-adv-x="569" 
 />
    <glyph glyph-name="exclam" unicode="!" horiz-adv-x="872" 
d="M612 1493v-692l-40 -457h-70l-40 457v692h150zM622 213v-213h-172v213h172z" />
    <glyph glyph-name="quotedbl" unicode="&#x22;" horiz-adv-x="727" 
d="M106 1452h190v-227l-55 -275h-80l-55 275v227zM434 1452h190v-227l-55 -275h-80l-55 275v227z" />
    <glyph glyph-name="numbersign" unicode="#" horiz-adv-x="1138" 
d="M993 1427l-74 -401h190v-139h-217l-63 -357h215v-139h-240l-80 -431h-155l77 431h-253l-80 -431h-156l78 431h-207v139h233l64 357h-221v139h248l73 401h156l-74 -401h256l72 401h158zM737 887h-254l-66 -357h256z" />
    <glyph glyph-name="dollar" unicode="$" horiz-adv-x="1138" 
d="M501 1577h121v-111q258 -18 354 -209q39 -77 43 -174v-20h-161q-2 158 -119 227q-41 23 -90 31q-13 2 -27 2v-510q205 -63 268 -98q174 -99 174 -316q0 -213 -139 -338q-22 -20 -49 -36q-100 -59 -254 -72v-211h-121v211q-315 21 -403 260q-33 94 -27 213h162
q14 -152 43 -201q4 -6 8 -14q72 -98 217 -117v557q-190 58 -258 107q-145 104 -145 299q0 299 286 385q54 16 117 24v111zM501 829v492q-196 -27 -231 -182q-6 -29 -6 -62q0 -184 237 -248zM622 633v-539q125 15 188 76q86 82 86 205q0 125 -96 186q-59 37 -178 72z" />
    <glyph glyph-name="percent" unicode="%" horiz-adv-x="1820" 
d="M407 1403q172 0 277 -135l37 -58q36 -75 36 -161q0 -162 -129 -267q-96 -80 -219 -80q-166 0 -272 129q-78 99 -78 222q0 166 129 272q96 78 219 78zM407 1260q-110 0 -172 -95l-24 -47q-11 -33 -11 -65q0 -109 92 -172q54 -35 117 -35q111 0 172 92q35 51 35 113
q0 116 -98 178q-49 31 -111 31zM1247 1452h135l-809 -1492h-135zM1409 659q174 0 278 -135q72 -94 72 -217q0 -162 -129 -266q-96 -79 -219 -79q-166 0 -273 128q-78 98 -78 221q0 166 132 271q96 77 217 77zM1409 516q-111 0 -172 -92q-35 -51 -35 -113q0 -112 96 -174
q51 -33 113 -33q110 0 172 93q35 51 35 110q0 117 -99 178l-47 21q-31 10 -63 10z" />
    <glyph glyph-name="ampersand" unicode="&#x26;" horiz-adv-x="1366" 
d="M1009 684h164q0 -192 -119 -375l250 -309h-223l-127 160q-100 -99 -158 -133q-115 -74 -270 -74q-238 0 -352 168q-68 100 -68 239q0 166 106 275q74 74 226 162q-144 180 -162 278q-4 27 -4 55q0 158 133 254q94 68 217 68q184 0 279 -135l30 -57q19 -43 23 -93
q2 -18 2 -37q0 -141 -113 -241q-59 -53 -170 -115l273 -334q65 115 63 244zM583 883q166 104 197 180q14 31 14 72q0 106 -92 153q-39 21 -86 21q-123 0 -164 -103q-12 -32 -12 -73q0 -68 51 -140zM856 281l-328 409q-193 -123 -234 -225q-16 -41 -16 -90q0 -133 111 -211
q71 -51 157 -51q138 0 277 133q16 16 33 35z" />
    <glyph glyph-name="quotesingle" unicode="'" horiz-adv-x="391" 
d="M98 1452h193v-227l-56 -275h-82l-55 275v227z" />
    <glyph glyph-name="parenleft" unicode="(" horiz-adv-x="1146" 
d="M584 1493h112q-253 -410 -278 -879q-2 -43 -2 -84q0 -477 250 -912q14 -27 30 -52h-112q-232 303 -307 696q-27 139 -27 268q0 367 190 734q64 125 144 229z" />
    <glyph glyph-name="parenright" unicode=")" horiz-adv-x="1146" 
d="M563 -434h-113q254 410 279 878q2 43 2 84q0 478 -250 914q-15 26 -31 51h113q231 -303 307 -696q26 -140 26 -269q0 -366 -190 -732q-63 -125 -143 -230z" />
    <glyph glyph-name="asterisk" unicode="*" horiz-adv-x="1321" 
d="M696 1493h129l-10 -229l217 77l39 -120l-222 -62l144 -182l-105 -74l-127 191l-129 -191l-102 74l141 182l-221 62l39 120l217 -77z" />
    <glyph glyph-name="plus" unicode="+" horiz-adv-x="1196" 
d="M1093 547v-144h-424v-423h-143v423h-424v144h424v424h143v-424h424z" />
    <glyph glyph-name="comma" unicode="," horiz-adv-x="569" 
d="M178 213h215v-245q0 -269 -215 -269v78q88 4 109 68q14 39 14 119v36h-123v213z" />
    <glyph glyph-name="hyphen" unicode="-" horiz-adv-x="681" 
d="M581 639v-147h-487v147h487z" />
    <glyph glyph-name="hyphen" unicode="&#xad;" horiz-adv-x="681" 
d="M581 639v-147h-487v147h487z" />
    <glyph glyph-name="period" unicode="." horiz-adv-x="569" 
d="M391 213v-213h-213v213h213z" />
    <glyph glyph-name="slash" unicode="/" horiz-adv-x="569" 
d="M469 1493h113l-485 -1533h-113z" />
    <glyph glyph-name="zero" unicode="0" horiz-adv-x="1166" 
d="M583 1500q495 0 495 -750t-495 -750t-495 750t495 750zM583 1350q-345 0 -345 -600t345 -600t345 600t-345 600z" />
    <glyph glyph-name="one" unicode="1" horiz-adv-x="952" 
d="M431 1172h-205v95q212 0 242 233h113v-1350h205v-150h-560v150h205v1022z" />
    <glyph glyph-name="two" unicode="2" horiz-adv-x="1129" 
d="M889 1053q0 297 -315 297t-315 -297h-150q0 447 465 447t465 -447q0 -312 -382 -476l-191 -83q-207 -85 -207 -344h780v-150h-930v150q0 358 307 489l191 82q282 122 282 332z" />
    <glyph glyph-name="three" unicode="3" horiz-adv-x="1143" 
d="M562 861q285 0 285 245q0 244 -285 244t-285 -244h-150q0 394 435 394t435 -392q0 -220 -136 -317q166 -103 166 -360q0 -431 -465 -431t-465 433h150q0 -283 315 -283t315 283q0 282 -315 282h-78v146h78z" />
    <glyph glyph-name="four" unicode="4" horiz-adv-x="1091" 
d="M698 1231l-477 -712h477v712zM698 1500h150v-981h192v-150h-192v-369h-150v369h-658v150z" />
    <glyph glyph-name="five" unicode="5" horiz-adv-x="1146" 
d="M1039 500q0 -500 -437 -500q-428 0 -478 397h150q50 -247 328 -247q287 0 287 350t-277 350q-202 0 -288 -128h-145l70 778h720v-178h-585l-37 -373q107 51 265 51q427 0 427 -500z" />
    <glyph glyph-name="six" unicode="6" horiz-adv-x="1082" 
d="M243 573q43 -423 307 -423q315 0 315 325t-315 325q-263 0 -307 -227zM550 0q-465 0 -465 750t515 750q415 0 415 -352h-150q0 202 -265 202q-328 0 -361 -486q113 86 311 86q465 0 465 -475t-465 -475z" />
    <glyph glyph-name="seven" unicode="7" horiz-adv-x="1103" 
d="M1029 1350l-533 -1350h-161l534 1350h-770v150h930v-150z" />
    <glyph glyph-name="eight" unicode="8" horiz-adv-x="1078" 
d="M539 1350q-285 0 -285 -250t285 -250t285 250t-285 250zM539 700q-315 0 -315 -275t315 -275t315 275t-315 275zM237 780q-133 98 -133 320q0 400 435 400t435 -400q0 -222 -133 -320q163 -103 163 -355q0 -425 -465 -425t-465 425q0 252 163 355z" />
    <glyph glyph-name="nine" unicode="9" horiz-adv-x="1082" 
d="M839 927q-43 423 -307 423q-315 0 -315 -325t315 -325q263 0 307 227zM532 1500q465 0 465 -750t-515 -750q-415 0 -415 352h150q0 -202 265 -202q328 0 361 486q-113 -86 -311 -86q-465 0 -465 475t465 475z" />
    <glyph glyph-name="colon" unicode=":" horiz-adv-x="569" 
d="M438 213v-213h-213v213h213zM438 1073v-213h-213v213h213z" />
    <glyph glyph-name="semicolon" unicode=";" horiz-adv-x="569" 
d="M440 1073v-213h-213v213h213zM225 213h215v-245q0 -269 -215 -269v78q88 4 109 68q14 39 14 119v36h-123v213z" />
    <glyph glyph-name="semicolon" unicode="&#x37e;" horiz-adv-x="569" 
d="M440 1073v-213h-213v213h213zM225 213h215v-245q0 -269 -215 -269v78q88 4 109 68q14 39 14 119v36h-123v213z" />
    <glyph glyph-name="less" unicode="&#x3c;" horiz-adv-x="1196" 
d="M92 406v141l1001 424v-162l-806 -330l806 -336v-161z" />
    <glyph glyph-name="equal" unicode="=" horiz-adv-x="1196" 
d="M1093 723v-143h-991v143h991zM1093 371v-144h-991v144h991z" />
    <glyph glyph-name="greater" unicode="&#x3e;" horiz-adv-x="1196" 
d="M1103 547v-141l-1001 -424v161l807 330l-807 336v162z" />
    <glyph glyph-name="question" unicode="?" horiz-adv-x="1585" 
d="M968 408h-184v112q0 103 57 178q35 45 107 113q14 12 49 43q151 135 153 270q0 144 -125 205l-63 21q-35 8 -74 8q-168 0 -229 -119q-35 -70 -35 -201h-174q0 216 92 335q93 119 277 140q39 5 80 5q258 0 372 -170l33 -62q31 -74 31 -162q0 -143 -105 -264
q-39 -47 -100 -102q-129 -119 -150 -174q-12 -31 -12 -80v-96zM968 213v-213h-184v213h184z" />
    <glyph glyph-name="at" unicode="@" horiz-adv-x="2078" 
d="M1361 1026h170l-184 -573q-25 -72 -25 -103q0 -55 60 -82q20 -8 43 -8q131 0 239 148q105 145 105 323q0 246 -199 428q-203 189 -491 201h-31q-301 0 -533 -209l-69 -70q-203 -231 -203 -522q0 -289 215 -487q221 -205 553 -205q162 0 395 66l58 -137q-230 -86 -463 -86
q-369 0 -637 219q-250 204 -289 505q-6 47 -6 94q0 316 195 582q57 80 129 143q221 201 530 252q76 13 152 13q340 0 591 -207q238 -193 275 -469q6 -43 6 -86q0 -248 -176 -457q-156 -182 -381 -182q-197 0 -225 157q-135 -147 -291 -147q-168 0 -264 141q-70 101 -70 234
q0 223 162 395q158 170 364 172q172 0 250 -178zM1054 938q-135 0 -237 -145q-93 -129 -93 -293q0 -138 97 -207q49 -35 106 -35q119 0 209 133q68 98 100 271q9 45 11 79q6 111 -84 168q-50 29 -109 29z" />
    <glyph glyph-name="A" unicode="A" horiz-adv-x="1222" 
d="M847 597l-236 685l-236 -685h472zM694 1500l518 -1500h-159l-154 447h-576l-154 -447h-159l518 1500h166z" />
    <glyph glyph-name="B" unicode="B" horiz-adv-x="1257" 
d="M311 710v-560h400q170 0 255 70t85 210t-85 210t-255 70h-400zM661 860q170 0 255 61q85 62 85 184q0 123 -85 184t-255 61h-350v-490h350zM161 1500h500q245 0 368 -99q122 -98 122 -296q0 -104 -34 -181t-103 -127q94 -50 140 -142q47 -92 47 -225q0 -215 -122 -322
q-123 -108 -368 -108h-550v1500z" />
    <glyph glyph-name="C" unicode="C" horiz-adv-x="1253" 
d="M676 0q-300 0 -450 188q-150 187 -150 562t150 563q150 187 450 187q188 0 317 -73q129 -74 199 -221l-129 -82q-53 121 -150 181q-96 60 -237 60q-225 0 -337 -154q-113 -153 -113 -461q0 -307 113 -461q112 -154 337 -154q148 0 247 67q100 66 150 199l136 -68
q-66 -166 -200 -250q-133 -83 -333 -83z" />
    <glyph glyph-name="D" unicode="D" horiz-adv-x="1325" 
d="M661 1350h-350v-1200h300q245 0 368 150q122 150 122 450t-110 450t-330 150zM1251 750q0 -375 -160 -562q-160 -188 -480 -188h-450v1500h500q295 0 443 -187q147 -188 147 -563z" />
    <glyph glyph-name="E" unicode="E" horiz-adv-x="1278" 
d="M311 723v-573h890v-150h-1040v1500h1020v-150h-870v-477h840v-150h-840z" />
    <glyph glyph-name="F" unicode="F" horiz-adv-x="1216" 
d="M311 873h759v-150h-759v-723h-150v1500h1019v-150h-869v-477z" />
    <glyph glyph-name="G" unicode="G" horiz-adv-x="1308" 
d="M1050 425v183h-376v150h526v-758h-150v134q-143 -134 -389 -134q-292 0 -439 188q-146 187 -146 562t146 563q147 187 439 187q364 0 501 -290l-140 -67q-106 207 -361 207q-217 0 -326 -150t-109 -450t109 -450t326 -150q294 0 389 275z" />
    <glyph glyph-name="H" unicode="H" horiz-adv-x="1378" 
d="M311 693v-693h-150v1500h150v-657h756v657h150v-1500h-150v693h-756z" />
    <glyph glyph-name="I" unicode="I" horiz-adv-x="656" 
d="M253 1350h-150v150h450v-150h-150v-1200h150v-150h-450v150h150v1200z" />
    <glyph glyph-name="J" unicode="J" horiz-adv-x="941" 
d="M570 1350h-155v150h450v-150h-145v-950q0 -400 -331 -400q-332 0 -332 380h150q0 -230 182 -230q181 0 181 250v950z" />
    <glyph glyph-name="K" unicode="K" horiz-adv-x="1231" 
d="M1036 0l-538 805l-187 -179v-626h-150v1500h150v-667l693 667h217l-613 -589l608 -911h-180z" />
    <glyph glyph-name="L" unicode="L" horiz-adv-x="1030" 
d="M311 150h709v-150h-859v1500h150v-1350z" />
    <glyph glyph-name="M" unicode="M" horiz-adv-x="1616" 
d="M808 225l-435 1275h-212v-1500h150v1218l416 -1218h162l416 1218v-1218h150v1500h-212z" />
    <glyph glyph-name="N" unicode="N" horiz-adv-x="1393" 
d="M311 1267v-1267h-150v1500h188l733 -1265v1265h150v-1500h-187z" />
    <glyph glyph-name="O" unicode="O" horiz-adv-x="1322" 
d="M661 1500q293 0 439 -187q146 -188 146 -563t-146 -562q-146 -188 -439 -188q-292 0 -439 188q-146 187 -146 562t146 563q147 187 439 187zM661 1350q-217 0 -326 -150t-109 -450t109 -450t326 -150q218 0 326 150q109 150 109 450t-109 450q-108 150 -326 150z" />
    <glyph glyph-name="P" unicode="P" horiz-adv-x="1239" 
d="M1191 1090q0 -205 -124 -307q-123 -103 -371 -103h-385v-680h-150v1500h535q248 0 371 -102q124 -103 124 -308zM311 830h385q173 0 259 65t86 195t-86 195t-259 65h-385v-520z" />
    <glyph glyph-name="Q" unicode="Q" horiz-adv-x="1334" 
d="M1017 348q79 147 79 402q0 300 -109 450q-108 150 -326 150q-217 0 -326 -150t-109 -450t109 -450t326 -150q160 0 261 81l-248 181l88 122zM1053 136q-143 -136 -392 -136q-292 0 -439 188q-146 187 -146 562t146 563q147 187 439 187q293 0 439 -187q146 -188 146 -563
q0 -313 -102 -495l184 -134l-88 -121z" />
    <glyph glyph-name="R" unicode="R" horiz-adv-x="1252" 
d="M311 830h385q173 0 259 65t86 195t-86 195t-259 65h-385v-520zM1076 0l-328 681q-26 -1 -52 -1h-385v-680h-150v1500h535q248 0 371 -102q124 -103 124 -308q0 -156 -72 -253t-216 -134l339 -703h-166z" />
    <glyph glyph-name="S" unicode="S" horiz-adv-x="1204" 
d="M615 1500q498 0 498 -400h-150q0 250 -348 250t-348 -203q0 -204 243 -255l244 -53q389 -83 389 -440q0 -399 -528 -399t-528 500h150q0 -350 378 -350t378 249q0 250 -273 309l-244 53q-359 73 -359 386q0 353 498 353z" />
    <glyph glyph-name="T" unicode="T" horiz-adv-x="1076" 
d="M464 1350h-454v150h1056v-150h-452v-1350h-150v1350z" />
    <glyph glyph-name="U" unicode="U" horiz-adv-x="1386" 
d="M693 0q-550 0 -550 500v1000h150v-1000q0 -350 400 -350t400 350v1000h150v-1000q0 -500 -550 -500z" />
    <glyph glyph-name="V" unicode="V" horiz-adv-x="1222" 
d="M1053 1500h159l-518 -1500h-166l-518 1500h159l442 -1282z" />
    <glyph glyph-name="W" unicode="W" horiz-adv-x="1999" 
d="M1079 1500l377 -1283l376 1283h157l-441 -1500h-185l-363 1236l-364 -1236h-185l-441 1500h157l377 -1283l376 1283h159z" />
    <glyph glyph-name="X" unicode="X" horiz-adv-x="1258" 
d="M629 619l-428 -619h-183l520 751l-518 749h183l426 -616l426 616h183l-517 -749l519 -751h-183z" />
    <glyph glyph-name="Y" unicode="Y" horiz-adv-x="1212" 
d="M531 631l-521 869h175l421 -703l421 703h175l-521 -869v-622h-150v622z" />
    <glyph glyph-name="Z" unicode="Z" horiz-adv-x="1193" 
d="M930 1350h-854v150h1041v-150l-853 -1200h853v-150h-1041v150z" />
    <glyph glyph-name="bracketleft" unicode="[" horiz-adv-x="665" 
d="M176 1500h381v-150h-231v-1634h231v-150h-381v1934z" />
    <glyph glyph-name="backslash" unicode="\" horiz-adv-x="752" 
d="M215 1500l485 -1533h-163l-485 1533h163z" />
    <glyph glyph-name="bracketright" unicode="]" horiz-adv-x="665" 
d="M339 1350h-231v150h381v-1934h-381v150h231v1634z" />
    <glyph glyph-name="asciicircum" unicode="^" horiz-adv-x="1046" 
d="M446 1500h150l317 -778h-141l-250 614l-248 -614h-141z" />
    <glyph glyph-name="underscore" unicode="_" horiz-adv-x="1197" 
d="M1213 -241v-135h-1229v135h1229z" />
    <glyph glyph-name="grave" unicode="`" horiz-adv-x="681" 
d="M220 1516l223 -304h-123l-275 304h175z" />
    <glyph glyph-name="a" unicode="a" horiz-adv-x="1115" 
d="M819 620q-87 -36 -225 -55q-187 -26 -281 -87t-94 -157q0 -85 55 -128t165 -43q107 0 202 54t178 161v255zM69 850q0 145 113 218q112 72 337 72t338 -77q112 -78 112 -233v-830h-150v186q-83 -93 -178 -139q-95 -47 -202 -47q-185 0 -277 80q-93 81 -93 241
q0 156 125 250q124 95 373 127q252 34 252 92v40q0 80 -75 120t-225 40t-225 -35t-75 -105h-150z" />
    <glyph glyph-name="b" unicode="b" horiz-adv-x="1115" 
d="M296 0h-150v1500h150v-527q96 167 300 167q450 0 450 -570t-450 -570q-204 0 -300 167v-167zM296 570q0 -197 76.5 -308.5t223.5 -111.5q300 0 300 420t-300 420q-147 0 -223.5 -111t-76.5 -309z" />
    <glyph glyph-name="c" unicode="c" horiz-adv-x="1031" 
d="M901 143q-119 -143 -357 -143q-237 0 -356 143q-119 142 -119 427t119 428q119 142 356 142q238 0 357 -142q23 -29 42 -64l-131 -76q-10 17 -20 31q-78 101 -248 101t-247 -101q-78 -101 -78 -319q0 -217 78 -318q77 -102 247 -102t248 102q31 40 49 100l145 -44
q-30 -98 -85 -165z" />
    <glyph glyph-name="d" unicode="d" horiz-adv-x="1115" 
d="M819 167q-96 -167 -300 -167q-450 0 -450 570t450 570q204 0 300 -167v527h150v-1500h-150v167zM519 990q-300 0 -300 -420t300 -420q147 0 223.5 111.5t76.5 308.5q0 198 -76.5 309t-223.5 111z" />
    <glyph glyph-name="e" unicode="e" horiz-adv-x="1083" 
d="M219 545q5 -198 78 -293q77 -102 247 -102t248 102q31 41 50 101h156q-29 -128 -97 -210q-119 -143 -357 -143q-237 0 -356 142.5t-119 427.5t119 427.5t356 142.5q238 0 356.5 -142.5t118.5 -427.5v-25h-800zM861 695q-16 125 -69 194q-78 101 -248 101t-247 -101
q-54 -69 -70 -194h634z" />
    <glyph glyph-name="f" unicode="f" horiz-adv-x="501" 
d="M179 1140v110q0 250 342 250v-135q-192 0 -192 -115v-110h162v-150h-162v-990h-150v990h-140v150h140z" />
    <glyph glyph-name="g" unicode="g" horiz-adv-x="1115" 
d="M519 990q-300 0 -300 -420t300 -420q147 0 223.5 111.5t76.5 308.5q0 198 -76.5 309t-223.5 111zM819 130v37q-96 -167 -300 -167q-450 0 -450 570t450 570q204 0 300 -167v167h150v-1010q0 -490 -430 -490q-370 0 -450 275l125 20q70 -145 325 -145q280 0 280 340z" />
    <glyph glyph-name="h" unicode="h" horiz-adv-x="1184" 
d="M898 0v710q0 280 -260 280q-137 0 -238.5 -121t-101.5 -169v-700h-150v1500h150v-557q156 197 340 197q410 0 410 -430v-710h-150z" />
    <glyph glyph-name="i" unicode="i" horiz-adv-x="424" 
d="M137 1350v150h150v-150h-150zM287 1140v-1140h-150v1140h150z" />
    <glyph glyph-name="j" unicode="j" horiz-adv-x="474" 
d="M187 1350v150h150v-150h-150zM10 -360v150q177 0 177 160v1190h150v-1190q0 -310 -327 -310z" />
    <glyph glyph-name="k" unicode="k" horiz-adv-x="1054" 
d="M296 632l502 508h211l-469 -474l504 -666h-188l-422 558l-138 -140v-418h-150v1500h150v-868z" />
    <glyph glyph-name="l" unicode="l" horiz-adv-x="450" 
d="M300 1500v-1500h-150v1500h150z" />
    <glyph glyph-name="m" unicode="m" horiz-adv-x="1732" 
d="M946 700v-700h-150v710q0 280 -220 280q-137 0 -208.5 -121t-71.5 -169v-700h-150v1140h150v-197q136 197 310 197q247 0 314 -232l26 35q136 197 310 197q340 0 340 -440v-700h-150v710q0 280 -220 280q-137 0 -208.5 -121t-71.5 -169z" />
    <glyph glyph-name="n" unicode="n" horiz-adv-x="1184" 
d="M898 0v710q0 280 -260 280q-137 0 -238.5 -121t-101.5 -169v-700h-150v1140h150v-197q156 197 340 197q410 0 410 -430v-710h-150z" />
    <glyph glyph-name="o" unicode="o" horiz-adv-x="1084" 
d="M867 570q0 218 -77 319q-78 101 -248 101t-247 -101q-78 -101 -78 -319q0 -217 78 -318q77 -102 247 -102t248 102q77 101 77 318zM67 570q0 285 119 428q119 142 356 142q238 0 357 -142q118 -143 118 -428t-118 -427q-119 -143 -357 -143q-237 0 -356 143
q-119 142 -119 427z" />
    <glyph glyph-name="p" unicode="p" horiz-adv-x="1115" 
d="M296 973q96 167 300 167q450 0 450 -570t-450 -570q-204 0 -300 167v-527h-150v1500h150v-167zM596 150q300 0 300 420t-300 420q-147 0 -223.5 -111.5t-76.5 -308.5q0 -198 76.5 -309t223.5 -111z" />
    <glyph glyph-name="q" unicode="q" horiz-adv-x="1115" 
d="M819 1140h150v-1500h-150v527q-96 -167 -300 -167q-450 0 -450 570t450 570q204 0 300 -167v167zM819 570q0 197 -76.5 308.5t-223.5 111.5q-300 0 -300 -420t300 -420q147 0 223.5 111t76.5 309z" />
    <glyph glyph-name="r" unicode="r" horiz-adv-x="676" 
d="M656 990q-147 0 -253.5 -121t-106.5 -169v-700h-150v1140h150v-197q166 197 360 197v-150z" />
    <glyph glyph-name="s" unicode="s" horiz-adv-x="1026" 
d="M77 361h150q0 -211 300 -211t300 200q0 107 -192 157l-160 39q-368 89 -368 304q0 290 420 290t420 -322h-150q0 172 -270 172t-270 -140q0 -107 261 -174l160 -39q299 -72 299 -287q0 -350 -450 -350t-450 361z" />
    <glyph glyph-name="t" unicode="t" horiz-adv-x="566" 
d="M192 990h-161v150h161v360h150v-360h209v-150h-209v-700q0 -140 209 -140v-150q-359 0 -359 290v700z" />
    <glyph glyph-name="u" unicode="u" horiz-adv-x="1184" 
d="M286 1140v-710q0 -280 260 -280q137 0 238.5 121t101.5 169v700h150v-1140h-150v197q-156 -197 -340 -197q-410 0 -410 430v710h150z" />
    <glyph glyph-name="v" unicode="v" horiz-adv-x="929" 
d="M756 1140h157l-368 -1140h-161l-368 1140h157l291 -898z" />
    <glyph glyph-name="w" unicode="w" horiz-adv-x="1448" 
d="M724 844l-220 -844h-191l-297 1140h155l238 -909l237 909h156l238 -909l237 909h155l-297 -1140h-191z" />
    <glyph glyph-name="x" unicode="x" horiz-adv-x="941" 
d="M471 433l-283 -433h-178l372 570l-372 570h178l283 -433l282 433h178l-371 -570l371 -570h-178z" />
    <glyph glyph-name="y" unicode="y" horiz-adv-x="1023" 
d="M492 266l353 874h162l-607 -1500h-162l169 418l-391 1082h159z" />
    <glyph glyph-name="z" unicode="z" horiz-adv-x="1071" 
d="M982 990l-732 -840h762v-150h-953v150l732 840h-702v150h893v-150z" />
    <glyph glyph-name="braceleft" unicode="{" horiz-adv-x="635" 
d="M60 600q111 23 135.5 67.5t24.5 215.5v342q0 209 145 256q37 12 78 12h94v-93q-182 0 -182 -149v-399q0 -271 -145 -322q145 -51 145 -322v-399q0 -149 182 -149v-93h-94q-41 0 -78 12q-145 47 -145 256v342q0 171 -24.5 215.5t-135.5 67.5v140z" />
    <glyph glyph-name="bar" unicode="|" horiz-adv-x="766" 
d="M308 1500h150v-1860h-150v1860z" />
    <glyph glyph-name="braceright" unicode="}" horiz-adv-x="635" 
d="M575 460q-111 -23 -135.5 -67.5t-24.5 -215.5v-342q0 -209 -145 -256q-37 -12 -78 -12h-94v93q182 0 182 149v399q0 271 145 322q-145 51 -145 322v399q0 149 -182 149v93h94q41 0 78 -12q145 -47 145 -256v-342q0 -171 24.5 -215.5t135.5 -67.5v-140z" />
    <glyph glyph-name="asciitilde" unicode="~" horiz-adv-x="1200" 
d="M800 250q-149 0 -224 125l-38 63q-38 62 -138 62q-99 0 -99 -100v-150h-151v151q0 249 247 249h3q149 0 226 -125l37 -62q37 -63 138 -63q99 0 99 100v150h150v-150q0 -249 -250 -250z" />
    <glyph glyph-name="uni1780" unicode="&#x1780;" horiz-adv-x="1600" 
d="M585 802q27 -55 13 -123l-135 -629q-10 -50 -63 -50q-86 0 -86 56q0 9 2 19l133 625q9 43 -15.5 78.5t-93.5 35.5q0 27 36 51q103 68 234 101q131 34 290 34q152 0 260 -32t171 -97q64 -64 82 -161q18 -96 -10 -225l-92 -435q-11 -50 -61 -50q-103 0 -87 75l93 444
q19 88 9 151q-9 64 -48 102q-76 78 -317 78q-179 0 -315 -48zM672 1048q-57 33 -121 55q-65 23 -133 31l-68 9q204 113 291.5 182.5t129.5 122.5q43 52 70 52t108 -91l79 -91l103 91l51 46q50 45 80 45q31 0 58 -49t98 -127q72 -78 127 -124t55 -69t-72 -9q-71 13 -180 86
q-108 73 -142 126l-221 -195l-160 183l-182 -142l61 -58q60 -59 42 -83q-17 -24 -74 9z" />
    <glyph glyph-name="uni1781" unicode="&#x1781;" horiz-adv-x="1540" 
d="M524 262q44 -39 100 -75q55 -37 136 -37q100 0 240 142q199 205 290 328t103 115q12 -9 0 -65t-65 -183q-54 -128 -229 -311q-178 -176 -339 -176q-128 0 -255 84t-148 147q-2 5 -2 13q0 19 8 53q10 49 77 93l645 384q101 59 159 125q58 67 74 142q17 78 2 136t-61 96
q-92 77 -269 77q-130 0 -205 -49t-96 -147q-15 -77 8 -115q23 -39 85 -39q71 0 23 31q-49 31 -16 109q33 77 140 43q106 -35 67 -184q-40 -149 -214 -149q-154 0 -214 83q-60 82 -26 247q34 160 146 240t302 80q115 0 224 -30q110 -31 174 -92t83 -152q8 -39 8 -83
q0 -61 -15 -131q-22 -107 -100 -200q-77 -93 -209 -172z" />
    <glyph glyph-name="uni1782" unicode="&#x1782;" horiz-adv-x="1600" 
d="M672 1048q-57 33 -121 55q-65 23 -133 31l-68 9q204 113 291.5 182.5t129.5 122.5q43 52 70 52t108 -91l79 -91l103 91l51 46q50 45 80 45q31 0 58 -49t98 -127q72 -78 127 -124t55 -69t-72 -9q-71 13 -180 86q-108 73 -142 126l-221 -195l-160 183l-182 -142l61 -58
q60 -59 42 -83q-17 -24 -74 9zM400 0q-86 0 -86 56q0 9 2 19l133 625q32 150 144 225q113 75 307 75q152 0 260 -32t171 -97q64 -64 82 -161q18 -96 -10 -225l-81 -385q-22 -100 -92 -100t-120 35t-35 80t63 58t72 124l46 222q19 88 9 151q-9 64 -48 102q-76 78 -317 78
q-147 0 -217 -46q-69 -47 -85 -125l-76 -353q158 174 278 174q150 0 150 -100t-150 -100q0 50 -27 50t-159 -146l-132 -147q-49 -57 -82 -57z" />
    <glyph glyph-name="uni1783" unicode="&#x1783;" horiz-adv-x="2250" 
d="M569 1266q18 84 -39 84q-87 0 -108 -100q-10 -47 20 -72q31 -25 103 -28zM1306 31q-96 32 -144 95q-61 -63 -152 -95q-90 -31 -210 -31q-250 0 -355 94t-66 281l134 626q-147 10 -206 84q-40 49 -40 127q0 38 10 83q22 103 85 154t168 51q121 0 168 -63t20 -190
l-191 -897q-20 -100 48 -150t225 -50q133 0 214 51q80 52 108 155l123 577q14 65 -48 133q-63 67 -197 75q147 86 236 186t131 173q72 -108 153 -154q80 -46 180 -6q-86 -107 -192 -111q-106 -5 -159 57l-91 -98q85 -58 118 -130t15 -158l-117 -550q-20 -100 48 -150
t225 -50q139 0 221 56q82 57 106 169l118 558q14 65 -48 133q-63 67 -197 75q147 86 236 186t131 173q72 -108 144 -158q71 -50 142 -42l-50 -34q-51 -35 -126 -38q-75 -4 -128 58l-91 -98q85 -58 118 -130t15 -158l-117 -550q-37 -175 -155 -262q-119 -88 -319 -88
q-145 0 -241 31z" />
    <glyph glyph-name="uni1784" unicode="&#x1784;" horiz-adv-x="1600" 
d="M1114 1256q117 13 127 59q14 65 -61 65q-60 0 -73 -40t7 -84zM1073 1102q-34 -2 -73 -2q-233 0 -331 88q-97 88 -60 263q27 126 134 215q107 90 339 137q192 46 270 111t97 154q11 43 34 61q17 12 39 12q11 0 22 -2q37 -7 50 -33q8 -14 8 -34q0 -15 -5 -34
q-29 -134 -135 -227q-106 -92 -345 -150q-185 -36 -264 -98q-79 -61 -97 -143q-17 -80 36 -122q53 -43 175 -47q-17 76 8 156q29 93 205 93q119 0 166 -56t21 -169q-18 -78 -94 -122q109 -58 156 -178q50 -131 25 -250l-133 -625q-21 -100 -97 -100q-77 0 -150 63l-221 187
l-300 -187q-100 -63 -176 -63q-60 0 -60 62q0 17 4 38l138 647q11 53 -39 78t-35 100t115 75q76 0 110 -54q33 -54 -3 -225l-109 -513l370 227l314 -268l124 583q12 60 -19 157t-156 161q-32 16 -58 34z" />
    <glyph glyph-name="uin1785" unicode="&#x1785;" horiz-adv-x="1600" 
d="M672 1048q-57 33 -121 55q-65 23 -133 31l-68 9q204 113 291.5 182.5t129.5 122.5q43 52 70 52t108 -91l79 -91l103 91l51 46q50 45 80 45q31 0 58 -49t98 -127q72 -78 127 -124t55 -69t-72 -9q-71 13 -180 86q-108 73 -142 126l-221 -195l-160 183l-182 -142l61 -58
q60 -59 42 -83q-17 -24 -74 9zM528 350q-20 -96 38 -148q59 -52 266 -52q189 0 280 59t113 162l70 329q-95 50 -95 125t40 125t110 50q82 0 117 -25q35 -26 24 -77l-117 -548q-37 -175 -172 -262q-136 -88 -370 -88q-266 0 -377 100q-56 50 -75 119q-18 69 0 156l73 342
q23 111 -15 142.5t-38 93.5t89 79q89 16 128 -32q39 -49 18 -149z" />
    <glyph glyph-name="uni1786" unicode="&#x1786;" horiz-adv-x="1600" 
d="M672 1048q-57 33 -121 55q-65 23 -133 31l-68 9q204 113 291.5 182.5t129.5 122.5q43 52 70 52t108 -91l79 -91l103 91l51 46q50 45 80 45q31 0 58 -49t98 -127q72 -78 127 -124t55 -69t-72 -9q-71 13 -180 86q-108 73 -142 126l-221 -195l-160 183l-182 -142l61 -58
q60 -59 42 -83q-17 -24 -74 9zM950 483q19 -21 67 -21q75 0 75 -75t-75 -75q-142 0 -196 69q-52 66 -25 196q25 114 96 170q68 53 178 53q189 0 267 -100q88 -113 37 -350q-37 -175 -172 -262q-136 -88 -272 -88q-145 0 -243 75q-99 75 -137 75q-64 0 -75 -52
q-22 -98 -75 -98q-83 0 -83 68q0 14 4 31l132 618q23 111 -15 142.5t-38 93.5t89 79q89 16 128 -32q39 -49 18 -149l-118 -553q16 2 33 2q83 0 214 -112q44 -38 166 -38q91 0 182 59t113 162q33 152 -16 221q-41 58 -139 58q-49 0 -81 -25q-35 -28 -48 -88q-8 -36 9 -54z
" />
    <glyph glyph-name="uni1787" unicode="&#x1787;" horiz-adv-x="1600" 
d="M672 1048q-57 33 -121 55q-65 23 -133 31l-68 9q204 113 291.5 182.5t129.5 122.5q43 52 70 52t108 -91q48 -54 110 -82q63 -27 141 -27q111 0 191 94q80 93 131 280q17 63 40 89q19 21 40 21q7 0 14 -2q31 -9 39 -42q4 -13 4 -30q0 -26 -9 -61q-54 -250 -167 -374
q-112 -125 -283 -125q-112 0 -206 43t-159 117l-175 -146l44 -42q60 -59 42 -83q-17 -24 -74 9zM498 208l370 227l314 -268l140 657q12 60 -5 85t-17 58t50 33t98 -41q47 -41 22 -160l-149 -699q-21 -100 -97 -100q-77 0 -150 63l-221 187l-300 -187q-100 -63 -176 -63
q-60 0 -60 62q0 17 4 38l132 617q23 111 -15 142.5t-38 93.5t89 79q89 16 128 -32q39 -49 18 -149z" />
    <glyph glyph-name="uni1788" unicode="&#x1788;" horiz-adv-x="2998" 
d="M1264 1019q19 88 9 151q-9 64 -48 102q-76 78 -247 78q-117 0 -187 -46q-69 -47 -85 -125l-146 -681q19 2 40 2q54 0 101 -56q46 -57 20 -150q-27 -93 -124 -193q-97 -101 -150 -101t-89 50q-22 31 -22 81q0 31 8 69l213 1000q32 150 144 225q113 75 277 75q82 0 190 -32
t171 -97q64 -64 82 -161q18 -96 -10 -225l-136 -635q-20 -100 48 -150t225 -50q133 0 214 51q80 52 108 155l123 577q14 65 -48 133q-63 67 -197 75q147 86 236 186t131 173q72 -108 153 -154q80 -46 180 -6q-86 -107 -192 -111q-106 -5 -159 57l-91 -98q85 -58 118 -130
t15 -158l-117 -550q-20 -100 48 -150t225 -50q139 0 221 56q82 57 106 169l118 558q14 65 -48 133q-63 67 -197 75q147 86 236 186t131 173q72 -108 144 -158q71 -50 142 -42l-50 -34q-51 -35 -126 -38q-75 -4 -128 58l-91 -98q85 -58 118 -130t15 -158l-117 -550
q-37 -175 -155 -262q-119 -88 -319 -88q-145 0 -241 31q-96 32 -144 95q-61 -63 -152 -95q-90 -31 -210 -31q-250 0 -355 94t-66 281z" />
    <glyph glyph-name="uni1789" unicode="&#x1789;" horiz-adv-x="2550" 
d="M486 150q89 0 167 68q77 67 103 184q15 66 -13 82t-92 16q-91 0 -108 -79zM1613 1050q-3 -74 -23 -160l-168 -790q-22 -100 -92 -100t-120 35t-35 80t63 58t72 124l131 617q30 130 24 217q-5 87 -46 131q-82 88 -113 88q-32 0 -134 -125l-102 -125l-63 125
q-64 125 -91 125t-120 -93q-94 -94 -128 -251l-78 -370q30 14 61 14q104 0 148 -25q132 -77 104 -243q-33 -179 -161 -280q-128 -102 -256 -102q-93 0 -129 50q-22 31 -22 82q0 31 8 68l176 836q43 201 179 333l68 65q68 66 151 66t130 -83l47 -84q71 81 122 127
q50 47 113 47t197 -154q36 -41 57 -93q72 120 164 180t253 60q310 0 410 -140q51 -69 61 -174q3 -26 3 -55q0 -85 -23 -190l-179 -841q-22 -100 -92 -100t-120 35t-35 80t63 58t72 124l144 674q40 190 -23 284q-64 95 -281 95q-150 0 -235 -75q-84 -75 -152 -225zM350 -265
q0 35 20 56q19 20 55 16t86 -48q353 -309 790 -309q436 0 575 82q139 81 151 138q11 57 4 68.5t-31 11.5q0 -50 -75 -50t-75 70q0 130 150 130q105 0 152 -71q47 -72 21 -192q-26 -121 -209 -229q-184 -108 -669 -108q-486 0 -888 350q-57 50 -57 85z" />
    <glyph glyph-name="uni178A" unicode="&#x178a;" horiz-adv-x="1600" 
d="M498 208l370 227l314 -268l140 657q12 60 -5 85t-17 58t50 33t98 -41q47 -41 22 -160l-149 -699q-21 -100 -97 -100q-77 0 -150 63l-221 187l-300 -187q-100 -63 -176 -63q-60 0 -60 62q0 17 4 38l132 617q23 111 -15 142.5t-38 93.5t89 79q89 16 128 -32q39 -49 18 -149
zM1640 1600q-18 -81 -69 -184q-46 -94 -112 -166q-59 -64 -159 -100q-136 -50 -350 -50q-231 0 -333 69q-101 70 -73 208q27 123 182 123q114 0 114 -100t-78 -100q-77 0 -68 50q-11 -50 53 -75t203 -25q180 0 291 40q81 29 125 79q50 56 88 128q41 79 76 180q35 100 82 100
q46 0 46 -48t-18 -129z" />
    <glyph glyph-name="uni178B" unicode="&#x178b;" horiz-adv-x="1600" 
d="M555 1200q-95 50 -95 125t40 125t110 50q72 0 109 -38q38 -37 22 -110l-202 -952q-26 -125 45 -187q71 -63 266 -63q200 0 276 56q77 57 101 169l118 558q14 65 -48 133q-63 67 -197 75q112 58 181 148.5t109 210.5q114 -141 172 -140q58 0 58 160q0 183 -73 307
q-74 123 -40 123q33 0 138 -125t105 -375q0 -100 -54 -159q-54 -60 -129 -63q-115 -4 -168 58l-51 -88q95 -68 128 -140t15 -158l-117 -550q-37 -175 -155 -262q-119 -88 -369 -88t-376 110q-95 82 -95 217q0 46 11 98z" />
    <glyph glyph-name="uni178C" unicode="&#x178c;" horiz-adv-x="1600" 
d="M1428 832q-82 -104 -232 -192l-629 -388l9 -24q25 -78 134 -78q77 0 275 135l260 176q18 89 95 89t42 -164l-105 -492q-20 -94 -97 -94t-52 114l73 339l-121 -84q-240 -169 -370 -169q-108 0 -176 42t-96 126l-21 63q-2 5 -2 13q0 19 8 53q10 49 77 93l636 384
q110 65 170 141q48 60 63 126q10 50 -3 111q-19 89 -87 203q-232 -240 -267 -240t-160 235q-136 -119 -167 -247q-12 -74 8 -113q20 -40 45 -40t40 28q14 28 -60 69q94 90 168 28t16 -168q-58 -107 -164 -107t-167 93q-62 93 -33 236q39 181 217 324q59 47 123 47
q63 0 162 -207q177 207 250 207q72 0 119 -77q79 -129 103 -242q10 -49 10 -94q0 -39 -7 -75q-21 -95 -87 -180z" />
    <glyph glyph-name="uni178D" unicode="&#x178d;" horiz-adv-x="2450" 
d="M486 150q89 0 167 68q77 67 103 184q15 66 -13 82t-92 16q-91 0 -108 -79zM2192 933q14 65 -48 133q-63 67 -197 75q147 86 236 186t131 173q72 -108 144 -158q71 -50 142 -42l-50 -34q-51 -35 -126 -38q-75 -4 -128 58l-91 -98q85 -58 118 -130t15 -158l-171 -800
q-21 -100 -97 -100q-77 0 -150 63l-171 157l-250 -157q-100 -63 -176 -63q-77 0 -56 100l174 814q30 130 24 217q-5 87 -56 153q-52 66 -83 66q-32 0 -226 -179q-127 179 -170 179q-76 -4 -165 -85q-55 -59 -97 -259l-78 -370q30 14 61 14q104 0 148 -25q132 -77 104 -243
q-33 -179 -161 -280q-128 -102 -256 -102q-93 0 -129 50q-22 31 -22 82q0 31 8 68l176 836q51 244 161 346l86 68q68 50 181 50q83 0 130 -83l45 -66q134 149 212 149t169 -112q90 -112 106 -228t-19 -270l-146 -682l320 197l264 -238z" />
    <glyph glyph-name="uni178E" unicode="&#x178e;" horiz-adv-x="3300" 
d="M1364 1019q19 88 9 151q-9 64 -48 102q-76 78 -297 78q-167 0 -237 -46q-69 -47 -85 -125l-146 -681q19 2 40 2q54 0 101 -56q46 -57 20 -150q-27 -93 -124 -193q-97 -101 -150 -101t-89 50q-22 31 -22 81q0 31 8 69l213 1000q32 150 144 225q113 75 327 75
q132 0 240 -32t171 -97q64 -64 82 -161q18 -96 -10 -225l-167 -777l388 227l302 -268l221 1033q32 150 144 225q113 75 357 75q102 0 210 -32t171 -97q64 -64 82 -161q7 -38 7 -80q0 -66 -17 -145l-187 -885q-22 -100 -92 -100t-120 35t-35 80t63 58t72 124l152 722
q19 88 9 151q-9 64 -48 102q-76 78 -267 78q-197 0 -267 -46q-69 -47 -85 -125l-231 -1079q-21 -100 -97 -100q-77 0 -150 63l-209 187l-318 -187q-100 -63 -176 -63q-77 0 -56 100z" />
    <glyph glyph-name="uni178F" unicode="&#x178f;" horiz-adv-x="1600" 
d="M672 1048q-57 33 -121 55q-65 23 -133 31l-68 9q204 113 291.5 182.5t129.5 122.5q43 52 70 52t108 -91l79 -91l103 91l51 46q50 45 80 45q31 0 58 -49t98 -127q72 -78 127 -124t55 -69t-72 -9q-71 13 -180 86q-108 73 -142 126l-221 -195l-160 183l-182 -142l61 -58
q60 -59 42 -83q-17 -24 -74 9zM486 150q89 0 147 68q57 67 72 134q15 66 -13 82t-72 16q-71 0 -88 -79zM449 700q32 150 144 225q113 75 307 75q152 0 260 -32t171 -97q64 -64 82 -161q18 -96 -10 -225l-81 -385q-22 -100 -92 -100t-120 35t-35 80t63 58t72 124l46 222
q19 88 9 151q-9 64 -48 102q-76 78 -317 78q-147 0 -217 -46q-69 -47 -85 -125l-18 -81q19 2 40 2q104 0 163 -38q97 -64 69 -230q-22 -129 -130 -230q-108 -102 -236 -102q-93 0 -129 50q-22 31 -22 82q0 31 8 68z" />
    <glyph glyph-name="uni1790" unicode="&#x1790;" horiz-adv-x="1600" 
d="M528 350q-20 -96 38 -148q59 -52 266 -52q189 0 280 59t113 162l70 329q-95 50 -95 125t40 125t110 50q62 0 104 -38q43 -38 22 -132l-102 -480q-37 -175 -172 -262q-136 -88 -370 -88q-266 0 -377 100q-56 50 -75 119q-18 69 0 156l73 342q23 111 -15 142.5t-38 93.5
t89 79q89 16 128 -32q39 -49 18 -149zM672 1048q-57 33 -121 55q-65 23 -133 31l-68 9q204 113 291.5 182.5t129.5 122.5q43 52 70 52t108 -91q48 -54 110 -82q63 -27 141 -27q111 0 191 94q80 93 131 280q17 63 40 89q19 21 40 21q7 0 14 -2q31 -9 39 -42q4 -13 4 -30
q0 -26 -9 -61q-54 -250 -167 -374q-112 -125 -283 -125q-112 0 -206 43t-159 117l-175 -146l44 -42q60 -59 42 -83q-17 -24 -74 9z" />
    <glyph glyph-name="uni1791" unicode="&#x1791;" horiz-adv-x="1550" 
d="M1166 734q-17 -21 -25 -66l-3 -14q100 10 108 46q10 50 -46 50q-20 0 -34 -16zM1072 853q51 47 128 47q55 0 94 -12q82 -24 101 -99q11 -48 -3 -116q-15 -70 -74 -111q-73 -52 -214 -60l-50 -228q-30 -143 -114 -212q-78 -62 -200 -62q-145 0 -205 65q-61 67 -33 203
l21 93q11 50 -63 50q11 50 50 75t107 25q91 0 55 -178l-18 -87q-12 -53 16 -77q22 -19 70 -19q75 0 119 46q35 37 50 104l43 204q-258 22 -363 168q-112 157 -48 457q38 180 159 273q128 98 350 98q287 0 394 -98q65 -59 65 -152q0 -33 -8 -69q-16 -74 -67 -112
q-53 -39 -144 -39q-140 0 -140 100t122 100q-19 -74 34 -74q38 0 48 59q12 56 -39 89q-71 46 -265 46q-162 0 -253 -71q-83 -64 -108 -185q-47 -217 38 -328q75 -100 257 -114l8 40q24 109 80 161z" />
    <glyph glyph-name="uni1792" unicode="&#x1792;" horiz-adv-x="1600" 
d="M672 1048q-57 33 -121 55q-65 23 -133 31l-68 9q204 113 291.5 182.5t129.5 122.5q43 52 70 52t108 -91l79 -91l103 91l51 46q50 45 80 45q31 0 58 -49t98 -127q72 -78 127 -124t55 -69t-72 -9q-71 13 -180 86q-108 73 -142 126l-221 -195l-160 183l-182 -142l61 -58
q60 -59 42 -83q-17 -24 -74 9zM1321 100q-21 -100 -97 -100q-77 0 -150 63l-221 187l-300 -187q-100 -63 -176 -63q-60 0 -60 62q0 17 4 38l132 617q23 111 -15 142.5t-38 93.5t89 79q89 16 128 -32q39 -49 18 -149l-137 -643l370 227l314 -268l113 533q-95 50 -95 125
t40 125t110 50q62 0 104 -38q43 -38 22 -132z" />
    <glyph glyph-name="uni1793" unicode="&#x1793;" horiz-adv-x="1600" 
d="M403 479q11 55 -21 72q-32 16 -32 61t54 66q53 20 122 0q68 -21 47 -121l-56 -259q16 2 33 2q83 0 171 -75q8 -7 16 -13q83 -62 193 -62q91 0 182 59t113 162q35 166 -22 248q-57 81 -203 81q-280 0 -390 131q-106 126 -53 376q28 134 133 206q126 87 360 87
q283 0 389 -107q45 -44 58 -108q6 -28 6 -59q0 -40 -10 -86q-37 -170 -203 -170q-150 0 -150 89t94 111q14 -50 56 -50q44 0 55 48q17 82 -41 127q-71 55 -254 55q-187 0 -274 -64q-57 -42 -72 -111q-33 -155 33 -236q72 -89 263 -89q240 0 334 -125q93 -125 40 -375
q-37 -175 -172 -262q-136 -88 -272 -88q-135 0 -233 75q-12 8 -22 16q-82 59 -125 59q-64 0 -75 -52q-22 -98 -75 -98q-83 0 -83 68q0 14 4 31z" />
    <glyph glyph-name="uni1794" unicode="&#x1794;" horiz-adv-x="1600" 
d="M499 933q14 65 -48 133q-63 67 -197 75q147 86 236 186t131 173q72 -108 153 -154q80 -46 180 -6q-86 -107 -192 -111q-106 -5 -159 57l-91 -98q85 -58 118 -130t15 -158l-106 -500q-26 -125 45 -187q71 -63 266 -63q200 0 276 56q77 57 101 169l118 558q14 65 -48 133
q-63 67 -197 75q147 86 236 186t131 173q72 -108 144 -158q71 -50 139 -42l-47 -34q-51 -35 -126 -38q-75 -4 -128 58l-91 -98q85 -58 118 -130t15 -158l-117 -550q-37 -175 -155 -262q-119 -88 -369 -88t-376 110q-127 110 -84 315z" />
    <glyph glyph-name="uni1795" unicode="&#x1795;" horiz-adv-x="1600" 
d="M673 1048q-57 33 -121 55q-65 23 -133 31l-68 9q204 113 291.5 182.5t129.5 122.5q43 52 70 52t108 -91q48 -54 110 -82q63 -27 141 -27q111 0 191 94q80 93 131 280q17 63 40 89q19 21 40 21q7 0 14 -2q31 -9 39 -42q4 -13 4 -30q0 -26 -9 -61q-54 -250 -167 -374
q-112 -125 -283 -125q-112 0 -206 43t-159 117l-175 -146l44 -42q60 -59 42 -83q-17 -24 -74 9zM1310 766q18 84 -9 84q-87 0 -117 -73q-31 -74 -1 -99q31 -25 103 -28zM1322 100q-21 -100 -97 -100q-77 0 -150 63l-221 187l-300 -187q-100 -63 -176 -63q-60 0 -60 62
q0 17 4 38l132 617q23 111 -15 142.5t-38 93.5t89 79q89 16 128 -32q39 -49 18 -149l-137 -643l370 227l314 -268l71 334q-147 10 -206 84q-59 73 -13 193q45 120 118 171t148 51q91 0 138 -63t20 -190z" />
    <glyph glyph-name="uni1796" unicode="&#x1796;" horiz-adv-x="1700" 
d="M486 150q59 0 167 93q77 67 103 159q15 66 -13 82t-92 16q-91 0 -108 -79zM519 1036q51 244 134 314l101 82q80 68 146 68q100 0 147 -83l50 -77q159 160 237 160t176 -110q97 -118 113 -234q2 -14 2 -31q0 -79 -35 -235l-168 -790q-22 -100 -92 -100t-120 35t-35 80
t63 58t72 124l131 617q37 165 38 213q-5 87 -63 159q-59 64 -90 64q-32 0 -255 -200q-128 200 -171 200q-46 -4 -82 -35l-72 -62q-36 -31 -78 -247l-78 -370q30 14 61 14q104 0 148 -25q132 -77 104 -243q-33 -154 -161 -255q-158 -127 -256 -127q-93 0 -129 50
q-22 31 -22 82q0 31 8 68z" />
    <glyph glyph-name="uni1797" unicode="&#x1797;" horiz-adv-x="1600" 
d="M622 1048q-57 33 -121 55q-65 23 -133 31l-68 9q204 113 291.5 182.5t129.5 122.5q43 52 70 52t108 -91l79 -91l103 91l51 46q50 45 80 45q31 0 58 -49t98 -127q72 -78 127 -124t55 -69t-72 -9q-71 13 -180 86q-108 73 -142 126l-221 -195l-160 183l-182 -142l61 -58
q60 -59 42 -83q-17 -24 -74 9zM449 700q32 150 144 225q113 75 307 75q152 0 260 -32t171 -97q64 -64 82 -161q18 -96 -10 -225l-81 -385q-22 -100 -92 -100t-120 35t-35 80t63 58t72 124l46 222q19 88 9 151q-9 64 -48 102q-76 78 -317 78q-147 0 -217 -46
q-69 -47 -85 -125l-113 -529q-21 -101 -53 -125q-32 -25 -66 -25q-74 0 -120 119q-46 118 -46 223q0 104 62 151t147 17z" />
    <glyph glyph-name="uni1798" unicode="&#x1798;" horiz-adv-x="1600" 
d="M592 650l-53 -250q-26 -125 45 -187q71 -63 266 -63q200 0 276 56q77 57 101 169l58 275h-693zM624 800h693l28 133q14 65 -48 133q-63 67 -197 75q147 86 236 186t131 173q72 -108 144 -158q71 -50 139 -42l-47 -34q-51 -35 -126 -38q-75 -4 -128 58l-91 -98
q85 -58 118 -130t15 -158l-117 -550q-37 -175 -155 -262q-119 -88 -369 -88t-376 110q-127 110 -84 315l109 508q14 65 -48 133q-63 67 -197 75q147 86 236 186t131 173q72 -108 153 -154q80 -46 180 -6q-86 -107 -192 -111q-106 -5 -159 57l-91 -98q85 -58 118 -130
t15 -158z" />
    <glyph glyph-name="uni1799" unicode="&#x1799;" horiz-adv-x="2400" 
d="M579 1316q39 184 181 184q93 0 132 -75q38 -75 15 -155q-23 -81 -89 -111q-66 -31 -120 -4l-138 -660q-35 -160 34 -252q69 -93 256 -93q183 0 264 51q80 52 108 155l123 577q14 65 -48 133q-63 67 -197 75q147 86 236 186t131 173q72 -108 153 -154q80 -46 180 -6
q-86 -107 -192 -111q-106 -5 -159 57l-91 -98q85 -58 118 -130t15 -158l-117 -550q-20 -100 48 -150t245 -50q169 0 251 56q82 57 106 169l118 558q14 65 -48 133q-63 67 -197 75q147 86 236 186t131 173q72 -108 144 -158q71 -50 142 -42l-50 -34q-51 -35 -126 -38
q-75 -4 -128 58l-91 -98q85 -58 118 -130t15 -158l-117 -550q-37 -175 -155 -262q-119 -88 -349 -88q-165 0 -261 31q-96 32 -144 95q-61 -63 -152 -95q-90 -31 -260 -31q-250 0 -338 85t-112 192q-10 44 -10 93q0 70 21 150z" />
    <glyph glyph-name="uni179A" unicode="&#x179a;" horiz-adv-x="849" 
d="M577 150q-21 -101 -53 -125q-32 -25 -66 -25q-74 0 -137 147q-52 121 -52 208q0 18 2 34q14 95 79 129q66 32 115 10q19 -9 36 -18l90 423q14 65 -48 133q-63 67 -197 75q147 86 236 186t131 173q72 -108 144 -158q71 -50 142 -42l-50 -34q-51 -35 -126 -38
q-75 -4 -128 58l-91 -98q85 -58 118 -130t15 -158z" />
    <glyph glyph-name="uni179B" unicode="&#x179b;" horiz-adv-x="2351" 
d="M1628 0q-280 0 -385 94t-66 281l137 644q19 88 9 151q-9 64 -48 102q-76 78 -247 78q-167 0 -237 -46q-69 -47 -85 -125l-146 -681q19 2 40 2q54 0 101 -56q46 -57 20 -150q-27 -93 -124 -193q-97 -101 -150 -101t-89 50q-22 31 -22 81q0 31 8 69l213 1000
q32 150 144 225q113 75 327 75q82 0 190 -32t171 -97q64 -64 82 -161q18 -96 -10 -225l-136 -635q-20 -100 48 -150t255 -50q159 0 241 56q82 57 106 169l118 558q14 65 -48 133q-63 67 -197 75q147 86 236 186t131 173q72 -108 144 -158q71 -50 142 -42l-50 -34
q-51 -35 -126 -38q-75 -4 -128 58l-91 -98q85 -58 118 -130t15 -158l-117 -550q-37 -175 -155 -262q-119 -88 -339 -88z" />
    <glyph glyph-name="uni179C" unicode="&#x179c;" horiz-adv-x="849" 
d="M577 150q-21 -101 -53 -125q-32 -25 -66 -25q-74 0 -137 147q-52 121 -52 208q0 18 2 34q14 95 79 129q66 32 115 10q19 -9 36 -18l90 423q14 65 -48 133q-63 67 -197 75q112 58 181 148.5t109 210.5q114 -141 172 -140q58 0 58 160q0 183 -73 307q-74 123 -40 123
q33 0 138 -125t105 -375q0 -100 -54 -159q-54 -60 -129 -63q-115 -4 -168 58l-51 -88q95 -68 128 -140t15 -158z" />
    <glyph glyph-name="uni179D" unicode="&#x179d;" horiz-adv-x="1600" 
d="M672 1048q-57 33 -121 55q-65 23 -133 31l-68 9q204 113 291.5 182.5t129.5 122.5q43 52 70 52t108 -91l79 -91l103 91l51 46q50 45 80 45q31 0 58 -49t98 -127q72 -78 127 -124t55 -69t-72 -9q-71 13 -180 86q-108 73 -142 126l-221 -195l-160 183l-182 -142l61 -58
q60 -59 42 -83q-17 -24 -74 9zM1093 365q-43 40 -43 103q0 82 150 102q-10 -39 3 -65q11 -25 42 -38l11 52q19 88 9 151q-9 64 -48 102q-76 78 -317 78q-147 0 -217 -46q-69 -47 -85 -125l-76 -353q158 174 278 174q150 0 150 -100t-150 -100q0 50 -27 50t-159 -146
l-132 -147q-49 -57 -82 -57q-86 0 -86 56q0 9 2 19l133 625q32 150 144 225q113 75 307 75q152 0 260 -32t171 -97q64 -64 82 -161q18 -96 -10 -225l-7 -33q61 6 105 28q74 37 99 120q0 -137 -52 -211q-59 -84 -184 -89l-42 -200q-22 -100 -92 -100t-120 35t-35 80t63 58
t72 124l3 15q-52 10 -88 31q-18 10 -32 22z" />
    <glyph glyph-name="uni179E" unicode="&#x179e;" horiz-adv-x="1600" 
d="M1093 797q0 82 150 102q-9 -35 1 -60q14 -38 70 -52l31 146q14 65 -48 133q-63 67 -197 75q147 86 236 186t131 173q72 -108 144 -158q71 -50 139 -42l-47 -34q-51 -35 -126 -38q-75 -4 -128 58l-91 -98q85 -58 118 -130t15 -158l-25 -115q52 9 90 31q64 37 87 113
q0 -122 -41 -194q-52 -91 -168 -104l-60 -281q-37 -175 -155 -262q-119 -88 -369 -88t-376 110q-127 110 -84 315l109 508q14 65 -48 133q-63 67 -197 75q147 86 236 186t131 173q72 -108 153 -154q80 -46 180 -6q-86 -107 -192 -111q-106 -5 -159 57l-91 -98
q85 -58 118 -130t15 -158l-106 -500q-26 -125 45 -187q71 -63 266 -63q200 0 276 56q77 57 101 169l55 261q-70 10 -114 36q-70 39 -75 125z" />
    <glyph glyph-name="uni179F" unicode="&#x179f;" horiz-adv-x="2251" 
d="M1204 955q21 -16 39 -34q64 -64 82 -161q18 -96 -10 -225l-40 -185q-20 -100 48 -150t225 -50q139 0 221 56q82 57 106 169l118 558q14 65 -48 133q-63 67 -197 75q147 86 236 186t131 173q72 -108 144 -158q71 -50 142 -42l-50 -34q-51 -35 -126 -38q-75 -4 -128 58
l-91 -98q85 -58 118 -130t15 -158l-117 -550q-37 -175 -155 -262q-119 -88 -319 -88q-250 0 -355 94t-66 281l41 194q19 88 9 151q-9 64 -48 102q-76 78 -247 78q-117 0 -187 -46q-69 -47 -85 -125l-50 -231q19 2 40 2q54 0 101 -56q46 -57 20 -150q-27 -93 -124 -193
q-97 -101 -150 -101t-89 50q-22 31 -22 81q0 31 8 69l117 550q32 150 144 225q113 75 277 75q80 0 185 -30q-13 24 -38 46q-82 71 -319 75q161 86 253 167t154 192q72 -108 157 -149q84 -41 226 -11q-86 -107 -217 -111q-131 -5 -184 57l-73 -71q132 -56 167 -149
q17 -49 11 -111z" />
    <glyph glyph-name="uni17A0" unicode="&#x17a0;" horiz-adv-x="2348" 
d="M1324 350q-37 -175 -155 -262q-119 -88 -339 -88q-230 0 -356 110q-127 110 -84 315l109 508q14 65 -48 133q-63 67 -197 75q147 86 236 186t131 173q72 -108 153 -154q80 -46 180 -6q-86 -107 -192 -111q-106 -5 -159 57l-91 -98q85 -58 118 -130t15 -158l-106 -500
q-26 -125 45 -187q71 -63 246 -63q170 0 246 56q77 57 101 169l176 825q32 150 144 225q113 75 307 75q102 0 210 -32t171 -97q64 -64 82 -161q7 -38 7 -80q0 -66 -17 -145l-187 -885q-22 -100 -92 -100t-120 35t-35 80t63 58t72 124l152 722q19 88 9 151q-9 64 -48 102
q-76 78 -267 78q-147 0 -217 -46q-69 -47 -85 -125z" />
    <glyph glyph-name="uni17A1" unicode="&#x17a1;" horiz-adv-x="2250" 
d="M1166 734q-17 -21 -25 -66l-3 -14q100 10 108 46q10 50 -46 50q-20 0 -34 -16zM1072 853q51 47 128 47q55 0 94 -12q82 -24 101 -99q11 -48 -3 -116q-15 -70 -74 -111q-73 -52 -214 -60l-50 -228q-30 -143 -114 -212q-78 -62 -200 -62q-145 0 -205 65q-61 67 -33 203
l21 93q11 50 -63 50q11 50 50 75t107 25q91 0 55 -178l-18 -87q-12 -53 16 -77q22 -19 70 -19q75 0 119 46q35 37 50 104l43 204q-258 22 -363 168q-112 157 -48 457q38 180 159 273q128 98 350 98q287 0 394 -98q87 -79 57 -221q-16 -74 -67 -112q-53 -39 -144 -39
q-140 0 -140 100t122 100q-19 -74 34 -74q38 0 48 59q12 56 -39 89q-71 46 -265 46q-162 0 -253 -71q-83 -64 -108 -185q-47 -217 38 -328q75 -100 257 -114l8 40q24 109 80 161zM1798 -700q-21 -100 -97 -100q-77 0 -150 63l-171 157l-250 -157q-100 -63 -176 -63
q-77 0 -56 100l65 297q23 111 -15 142.5t-38 93.5t89 79q89 16 128 -32q39 -49 18 -149l-70 -323l320 197l264 -238l333 1566q14 65 -48 133q-63 67 -197 75q147 86 236 186t131 173q72 -108 144 -158q71 -50 142 -42l-50 -34q-51 -35 -126 -38q-75 -4 -128 58l-91 -98
q85 -58 118 -130t15 -158z" />
    <glyph glyph-name="uni17A2" unicode="&#x17a2;" horiz-adv-x="1607" 
d="M1321 800l28 133q14 65 -48 133q-63 67 -197 75q147 86 236 186t131 173q72 -108 144 -158q71 -50 142 -42l-50 -34q-51 -35 -126 -38q-75 -4 -128 58l-91 -98q85 -58 118 -130t15 -158l-160 -750q-21 -101 -53 -125q-32 -25 -66 -25q-74 0 -137 147q-63 146 -50 242
q14 95 79 114q64 19 151 7l30 140h-695l-107 -500q-21 -101 -53 -125q-32 -25 -66 -25q-74 0 -137 147q-52 121 -52 208q0 18 2 34q14 95 79 129q66 32 115 10q19 -9 36 -18l91 423q14 65 -48 133q-63 67 -197 75q147 86 236 186t131 173q72 -108 153 -154q80 -46 180 -6
q-86 -107 -192 -111q-106 -5 -159 57l-91 -98q85 -58 118 -130t15 -158l-21 -100h694z" />
    <glyph glyph-name="uni17A3" unicode="&#x17a3;" horiz-adv-x="1607" 
d="M1321 800l28 133q14 65 -48 133q-63 67 -197 75q147 86 236 186t131 173q72 -108 144 -158q71 -50 142 -42l-50 -34q-51 -35 -126 -38q-75 -4 -128 58l-91 -98q85 -58 118 -130t15 -158l-160 -750q-21 -101 -53 -125q-32 -25 -66 -25q-74 0 -137 147q-63 146 -50 242
q14 95 79 114q64 19 151 7l30 140h-695l-107 -500q-21 -101 -53 -125q-32 -25 -66 -25q-74 0 -137 147q-52 121 -52 208q0 18 2 34q14 95 79 129q66 32 115 10q19 -9 36 -18l91 423q14 65 -48 133q-63 67 -197 75q147 86 236 186t131 173q72 -108 153 -154q80 -46 180 -6
q-86 -107 -192 -111q-106 -5 -159 57l-91 -98q85 -58 118 -130t15 -158l-21 -100h694z" />
    <glyph glyph-name="uni17A4" unicode="&#x17a4;" horiz-adv-x="2400" 
d="M1409 1136q39 -16 72 -83t15 -153l-160 -750q-21 -101 -53 -125q-32 -25 -66 -25q-74 0 -137 147q-63 146 -50 242q14 95 79 114q64 19 151 7l30 140h-695l-107 -500q-21 -101 -53 -125q-32 -25 -66 -25q-74 0 -137 147q-52 121 -52 208q0 18 2 34q14 95 79 129
q66 32 115 10q19 -9 36 -18l91 423q14 65 -48 133q-63 67 -197 75q147 86 236 186t131 173q72 -108 153 -154q80 -46 180 -6q-86 -107 -192 -111q-106 -5 -159 57l-91 -98q85 -58 118 -130t15 -158l-21 -100h694l28 133q14 65 -48 128q-63 62 -202 39l678 400l427 -292
q65 -44 84 -92t21 -82v-16q0 -27 -5 -56l-183 -862q-22 -100 -93 -100q-70 0 -120 35t-35 80t63 58q49 13 73 124l144 679q16 75 -30 106l-371 253z" />
    <glyph glyph-name="uni17A5" unicode="&#x17a5;" horiz-adv-x="1600" 
d="M486 150q89 0 147 68q57 67 72 134q15 66 -13 82t-72 16q-71 0 -88 -79zM449 700q32 150 144 225q113 75 307 75q152 0 260 -32t171 -97q64 -64 82 -161q18 -96 -10 -225l-81 -385q-22 -100 -92 -100t-120 35t-35 80t63 58t72 124l46 222q19 88 9 151q-9 64 -48 102
q-76 78 -317 78q-147 0 -217 -46q-69 -47 -85 -125l-18 -81q19 2 40 2q104 0 163 -38q97 -64 69 -230q-22 -129 -130 -230q-108 -102 -236 -102q-93 0 -129 50q-22 31 -22 82q0 31 8 68zM672 1048q-57 33 -121 55q-65 23 -133 31l-68 9q204 113 291.5 182.5t129.5 122.5
q43 52 70 52t108 -91q48 -54 110 -82q63 -27 141 -27q111 0 191 94q80 93 131 280q17 63 40 89q19 21 40 21q7 0 14 -2q31 -9 39 -42q4 -13 4 -30q0 -26 -9 -61q-54 -250 -167 -374q-112 -125 -283 -125q-112 0 -206 43t-159 117l-175 -146l44 -42q60 -59 42 -83
q-17 -24 -74 9z" />
    <glyph glyph-name="uni17A6" unicode="&#x17a6;" horiz-adv-x="2350" 
d="M485 150q89 0 147 68q57 67 72 134q15 66 -13 82t-72 16q-71 0 -88 -79zM339 -668q64 0 98.5 26.5t57 73.5t-3.5 61t-48 14q-66 0 -82 -69zM579 598q19 2 40 2q104 0 163 -38q97 -64 69 -230q-22 -129 -130 -230q-108 -102 -236 -102q-93 0 -129 50q-35 50 -14 150
l213 1000q32 150 144 225q113 75 307 75q152 0 260 -32t171 -97q64 -64 82 -161q18 -96 -10 -225l-188 -885q-22 -100 -92 -100t-120 35t-35 80t63 58t72 124l153 722q19 88 9 151q-9 64 -48 102q-76 78 -317 78q-147 0 -217 -46q-69 -47 -85 -125zM2194 1779
q-96 121 -394 121h-347l-47 -132q-34 -101 -104 -73q-71 28 -35 125l227 641q28 73 76 73q14 0 29 -6q68 -27 37 -113l-129 -365h293q389 0 522 -168q70 -87 70 -219q0 -63 -16 -137l-444 -2094q-22 -105 -134 -163q-135 -69 -398 -69q-188 0 -294 76q-19 -76 -90 -76
t-47 95l52 207q12 54 2 109q-8 56 -44 89q-71 68 -295 68q-136 0 -201 -40q-55 -35 -74 -91q16 1 34 1q78 0 133 -33q90 -56 58 -174t-113.5 -174.5t-181.5 -56.5q-86 0 -120 44q-20 28 -20 73q0 26 7 58l15 63h-1l4 15l35 160h1l6 24q30 131 134 197q104 65 284 65
q142 0 242 -27q100 -28 159 -85q59 -56 76 -141q11 -55 9 -87.5t-14 -85.5q-1 -5 -7 -30q83 -93 251 -93q217 0 312 38q62 26 71 67l447 2101q30 140 -36 223z" />
    <glyph glyph-name="uni17A7" unicode="&#x17a7;" horiz-adv-x="1540" 
d="M474 42q-68 42 -96 126l-21 63q-2 5 -2 13q0 19 8 53q10 49 77 93l645 384q101 59 159 125q58 67 74 142q17 78 2 136t-61 96q-92 77 -269 77q-130 0 -205 -49t-96 -147q-15 -77 8 -115q23 -39 85 -39q71 0 23 31q-49 31 -16 109q33 77 140 43q106 -35 67 -184
q-40 -149 -214 -149q-154 0 -214 83q-60 82 -26 247q34 160 146 240t302 80q115 0 224 -30q110 -31 174 -92t83 -152q8 -39 8 -83q0 -61 -15 -131q-22 -107 -100 -200q-77 -93 -209 -172l-648 -388l9 -24q17 -53 73 -70q31 -8 71 -8q77 0 275 135l260 176q18 89 95 89
t42 -164l-105 -492q-20 -94 -97 -94t-52 114l73 339l-121 -84q-240 -169 -370 -169q-40 0 -89 7q-49 6 -97 35z" />
    <glyph glyph-name="uni17A8" unicode="&#x17a8;" horiz-adv-x="1540" 
d="M476 42q-68 42 -96 126l-21 63q-5 16 6 66q10 49 77 93l645 384q101 59 159 125q58 67 74 142q17 78 2 136t-61 96q-92 77 -269 77q-130 0 -205 -49t-96 -147q-15 -77 8 -115q23 -39 85 -39q71 0 23 31q-49 31 -16 109q33 77 140 43q106 -35 67 -184q-40 -149 -214 -149
q-154 0 -214 83q-60 82 -26 247q34 160 146 240t302 80q115 0 224 -30q110 -31 174 -92t83 -152q19 -92 -7 -214q-22 -107 -100 -200q-77 -93 -209 -172l-648 -388l9 -24q17 -53 73 -70q31 -8 71 -8q77 0 275 135l260 176q18 89 95 89t42 -164l-105 -492q-20 -94 -97 -94
t-52 114l73 339l-121 -84q-240 -169 -370 -169q-40 0 -89 7q-49 6 -97 35zM674 1488q-57 33 -121 55q-65 23 -133 31l-68 9q204 113 291.5 182.5t129.5 122.5q43 52 70 52t108 -91l79 -91l103 91l51 46q50 45 80 45q31 0 58 -49t98 -127q72 -78 127 -124t55 -69t-72 -9
q-71 13 -180 86q-108 73 -142 126l-221 -195l-160 183l-182 -142l61 -58q60 -59 42 -83q-17 -24 -74 9z" />
    <glyph glyph-name="uni17A9" unicode="&#x17a9;" horiz-adv-x="1612" 
d="M474 42q-68 42 -96 126l-21 63q-2 5 -2 13q0 19 8 53q10 49 77 93l645 384q101 59 159 125q58 67 74 142q17 78 2 136t-61 96q-92 77 -269 77q-130 0 -205 -49t-96 -147q-15 -77 8 -115q23 -39 85 -39q71 0 23 31q-49 31 -16 109q33 77 140 43q106 -35 67 -184
q-40 -149 -214 -149q-154 0 -214 83q-60 82 -26 247q34 160 146 240t302 80q115 0 224 -30q110 -31 174 -92t83 -152q19 -92 -7 -214q-22 -107 -100 -200q-77 -93 -209 -172l-648 -388l9 -24q17 -53 73 -70q31 -8 71 -8q77 0 275 135l260 176q18 89 95 89t42 -164l-105 -492
q-20 -94 -97 -94t-52 114l73 339l-121 -84q-240 -169 -370 -169q-40 0 -89 7q-49 6 -97 35zM1341 -85l104 489q21 98 94 82q57 -12 57 -73q0 -18 -5 -40l-103 -489q-18 -84 -75 -84q-10 0 -20 2q-73 15 -52 113z" />
    <glyph glyph-name="uni17AA" unicode="&#x17aa;" horiz-adv-x="1540" 
d="M476 42q-68 42 -96 126l-21 63q-2 5 -2 13q0 19 8 53q10 49 77 93l645 384q101 59 159 125q58 67 74 142q17 78 2 136t-61 96q-92 77 -269 77q-130 0 -205 -49t-96 -147q-15 -77 8 -115q23 -39 85 -39q71 0 23 31q-49 31 -16 109q33 77 140 43q106 -35 67 -184
q-40 -149 -214 -149q-154 0 -214 83q-60 82 -26 247q34 160 146 240t302 80q115 0 224 -30q110 -31 174 -92t83 -152q19 -92 -7 -214q-22 -107 -100 -200q-77 -93 -209 -172l-648 -388l9 -24q17 -53 73 -70q31 -8 71 -8q77 0 275 135l260 176q18 89 95 89t42 -164l-105 -492
q-20 -94 -97 -94t-52 114l73 339l-121 -84q-240 -169 -370 -169q-40 0 -89 7q-49 6 -97 35zM724 1498q-57 33 -121 55q-65 23 -133 31l-68 9q204 113 291.5 182.5t129.5 122.5q43 52 70 52t108 -91q48 -54 110 -82q63 -27 141 -27q111 0 191 94q80 93 131 280q17 63 40 89
q19 21 40 21q7 0 14 -2q31 -9 39 -42q4 -13 4 -30q0 -26 -9 -61q-54 -250 -167 -374q-112 -125 -283 -125q-112 0 -206 43t-159 117l-175 -146l44 -42q60 -59 42 -83q-17 -24 -74 9z" />
    <glyph glyph-name="uni17AB" unicode="&#x17ab;" horiz-adv-x="1600" 
d="M499 933q14 65 -48 133q-63 67 -197 75q147 86 236 186t131 173q72 -108 153 -154q80 -46 180 -6q-86 -107 -192 -111q-106 -5 -159 57l-91 -98q85 -58 118 -130t15 -158l-106 -500q-26 -125 45 -187q71 -63 266 -63q200 0 276 56q77 57 101 169l118 558q14 65 -48 133
q-63 67 -197 75q147 86 236 186t131 173q72 -108 144 -158q71 -50 139 -42l-47 -34q-51 -35 -126 -38q-75 -4 -128 58l-91 -98q85 -58 118 -130t15 -158l-117 -550q-37 -175 -155 -262q-119 -88 -369 -88t-376 110q-127 110 -84 315zM950 -175q0 75 90 75q110 0 161 -64
q50 -65 24 -190q-35 -163 -246 -279q-211 -117 -579 -117q-200 0 -200 50t263 75q262 25 427 114q164 89 186 178q17 83 -36 83q-90 0 -90 75z" />
    <glyph glyph-name="uni17AC" unicode="&#x17ac;" horiz-adv-x="1600" 
d="M499 933q14 65 -48 133q-63 67 -197 75q147 86 236 186t131 173q72 -108 153 -154q80 -46 180 -6q-86 -107 -192 -111q-106 -5 -159 57l-91 -98q85 -58 118 -130t15 -158l-106 -500q-26 -125 45 -187q71 -63 266 -63q200 0 276 56q77 57 101 169l118 558q14 65 -48 133
q-63 67 -197 75q147 86 236 186t131 173q72 -108 144 -158q71 -50 139 -42l-47 -34q-51 -35 -126 -38q-75 -4 -128 58l-91 -98q85 -58 118 -130t15 -158l-117 -550q-37 -175 -155 -262q-119 -88 -369 -88t-376 110q-127 110 -84 315zM1065 -578q-38 -28 -86 -55
q-211 -117 -579 -117q-200 0 -200 50t263 75q262 25 427 114q164 89 186 178q17 83 -36 83q-90 0 -90 75t90 75q110 0 161 -64q39 -50 32 -136q50 25 116 42q-93 -76 -134 -131q-12 -35 -33 -68q-12 -52 9 -101q26 -60 91 -72q89 -9 79 -81q-10 -61 -87 -61
q-127 12 -183 117q-20 38 -26 77z" />
    <glyph glyph-name="uni17AD" unicode="&#x17ad;" horiz-adv-x="1700" 
d="M1050 -175q0 75 90 75q110 0 161 -64q50 -65 24 -190q-35 -163 -246 -279q-211 -117 -579 -117q-200 0 -200 50t263 75q262 25 427 114q164 89 186 178q17 83 -36 83q-90 0 -90 75zM486 150q59 0 167 93q77 67 103 159q15 66 -13 82t-92 16q-91 0 -108 -79zM519 1036
q51 244 150 327l66 55q99 82 165 82q100 0 147 -83l50 -77q159 160 237 160t169 -112q90 -112 106 -228q5 -36 5 -76q0 -88 -24 -194l-168 -790q-22 -100 -92 -100t-120 35t-35 80t63 58t72 124l131 617q30 130 24 217q-5 87 -56 153q-52 66 -83 66q-32 0 -255 -200
q-128 200 -171 200q-46 -4 -90 -44l-45 -41q-55 -59 -97 -259l-78 -370q30 14 61 14q104 0 148 -25q132 -77 104 -243q-33 -154 -161 -255q-158 -127 -256 -127q-93 0 -129 50q-35 50 -14 150z" />
    <glyph glyph-name="uni17AE" unicode="&#x17ae;" horiz-adv-x="1700" 
d="M1065 -578q-38 -28 -86 -55q-211 -117 -579 -117q-200 0 -200 50t263 75q262 25 427 114q164 89 186 178q17 83 -36 83q-90 0 -90 75t90 75q110 0 161 -64q39 -50 32 -136q50 25 116 42q-93 -76 -134 -131q-12 -35 -33 -68q-12 -52 9 -101q26 -60 91 -72q89 -9 79 -81
q-10 -61 -87 -61q-127 12 -183 117q-20 38 -26 77zM486 150q59 0 167 93q77 67 103 159q15 66 -13 82t-92 16q-91 0 -108 -79zM519 1036q51 244 150 327l66 55q99 82 165 82q100 0 147 -83l50 -77q159 160 237 160t169 -112q90 -112 106 -228q5 -36 5 -76q0 -88 -24 -194
l-168 -790q-22 -100 -92 -100t-120 35t-35 80t63 58t72 124l131 617q30 130 24 217q-5 87 -56 153q-52 66 -83 66q-32 0 -255 -200q-128 200 -171 200q-46 -4 -90 -44l-45 -41q-55 -59 -97 -259l-78 -370q30 14 61 14q104 0 148 -25q132 -77 104 -243q-33 -154 -161 -255
q-158 -127 -256 -127q-93 0 -129 50q-35 50 -14 150z" />
    <glyph glyph-name="uni17AF" unicode="&#x17af;" horiz-adv-x="1600" 
d="M767 1481q97 19 233 19q344 0 444 -175q63 -111 63 -262q0 -87 -21 -188l-165 -775q-21 -100 -97 -100q-77 0 -150 63l-221 187l-300 -187q-100 -63 -176 -63q-60 0 -60 62q0 17 4 38l138 647q11 53 -39 78t-35 100t115 75q76 0 110 -54q33 -54 -3 -225l-109 -513
l370 227l314 -268l156 733q45 215 -28 333q-73 117 -310 117q-379 0 -478 -112q-33 -38 -49 -38q-17 0 -4 60t123 150q5 4 11 8l19 89q29 137 -69 357q-61 124 0 149q11 4 22 4q49 0 95 -93q137 -250 103 -413z" />
    <glyph glyph-name="uni17B0" unicode="&#x17b0;" horiz-adv-x="1700" 
d="M787 -421q-159 -77 -318 -122q99 -107 163 -107q63 0 120 49q48 42 35 180zM486 150q59 0 167 93q77 67 103 159q15 66 -13 82t-92 16q-91 0 -108 -79zM964 -327q97 -30 143 -10q34 15 83 160q-113 -83 -226 -150zM1218 30q29 22 92 267l131 617q30 130 24 217
q-5 87 -56 153q-52 66 -83 66q-32 0 -255 -200q-128 200 -171 200q-46 -4 -90 -44l-45 -41q-55 -59 -97 -259l-78 -370q30 14 61 14q104 0 148 -25q132 -77 104 -243q-33 -154 -161 -255q-158 -127 -256 -127q-93 0 -129 50q-35 50 -14 150l176 836q51 244 150 327l66 55
q99 82 165 82q100 0 147 -83l50 -77q159 160 237 160t169 -112q90 -112 106 -228q5 -36 5 -76q0 -88 -24 -194l-168 -790q-6 -26 -68.5 -265t-168.5 -296q-115 -62 -257 10q46 -149 -62 -249q-109 -100 -216 -100t-228 81q-122 81 -122 170t134 136q380 131 784 443z" />
    <glyph glyph-name="uni17B1" unicode="&#x17b1;" horiz-adv-x="1540" 
d="M474 42q-68 42 -96 126l-21 63q-2 5 -2 13q0 19 8 53q10 49 77 93l645 384q101 59 159 125q58 67 74 142q17 78 2 136t-61 96q-92 77 -269 77q-130 0 -205 -49t-96 -147q-15 -77 8 -115q23 -39 85 -39q71 0 23 31q-49 31 -16 109q33 77 140 43q106 -35 67 -184
q-40 -149 -214 -149q-154 0 -214 83q-60 82 -26 247q34 160 146 240t302 80q115 0 224 -30q110 -31 174 -92t83 -152q19 -92 -7 -214q-22 -107 -100 -200q-77 -93 -209 -172l-648 -388l9 -24q17 -53 73 -70q31 -8 71 -8q77 0 275 135l260 176q18 89 95 89t42 -164l-105 -492
q-20 -94 -97 -94t-52 114l73 339l-121 -84q-240 -169 -370 -169q-40 0 -89 7q-49 6 -97 35zM1068 1534q-99 102 -307 88.5t-261 -87.5q16 262 160 364q143 101 302 101q158 0 316 -77q157 -78 245 -253q32 -74 32 -182q0 -109 -112 66q-113 175 -233 236q-120 60 -273 60
t-224 -108q271 21 338 -50.5t17 -157.5z" />
    <glyph glyph-name="uni17B2" unicode="&#x17b2;" horiz-adv-x="1600" 
d="M755 1439q117 61 295 61q319 0 424 -99q90 -87 90 -152q0 -10 -2 -20q-17 -73 -93 24t-419 97q-128 0 -212 -42q-118 -60 -148 -202l-138 -647q-27 -133 53 -221t295 -88q121 0 212 59t113 162q18 82 -96 124l-114 42l-84 -36q-83 -35 -113 27q-30 63 63 107l306 137
q133 60 142 96t-37 109q-47 73 -139 73t-117 -35q-26 -35 -2 -87q34 -72 -29 -102q-64 -31 -111 51q-58 144 22 234q79 89 253 89t254 -125q79 -126 58 -225q-22 -100 -243 -189l-69 -32q249 -73 205 -279q-37 -175 -172 -262q-136 -88 -302 -88q-284 0 -411 144
q-95 108 -95 246q0 45 10 94l140 654q44 213 211 301z" />
    <glyph glyph-name="uni17B3" unicode="&#x17b3;" horiz-adv-x="1540" 
d="M474 42q-68 42 -96 126l-21 63q-2 5 -2 13q0 19 8 53q10 49 77 93l645 384q101 59 159 125q58 67 74 142q17 78 2 136t-61 96q-92 77 -269 77q-130 0 -205 -49t-96 -147q-15 -77 8 -115q23 -39 85 -39q71 0 23 31q-49 31 -16 109q33 77 140 43q106 -35 67 -184
q-40 -149 -214 -149q-154 0 -214 83q-60 82 -26 247q34 160 146 240t302 80q115 0 224 -30q110 -31 174 -92t83 -152q19 -92 -7 -214q-22 -107 -100 -200q-77 -93 -209 -172l-648 -388l9 -24q17 -53 73 -70q31 -8 71 -8q77 0 275 135l260 176q18 89 95 89t42 -164l-105 -492
q-20 -94 -97 -94t-52 114l73 339l-121 -84q-240 -169 -370 -169q-40 0 -89 7q-49 6 -97 35zM1009 1719q27 -11 42 -27q67 -72 17 -158q-52 53 -133 75q-75 20 -174 14q-208 -14 -261 -88q16 262 160 364q143 101 302 101q158 0 316 -77q46 -23 86 -54l10 10q69 71 187 116
q35 13 60 13q42 0 58 -36q6 -14 6 -26q0 -42 -64 -74q-92 -41 -140 -97q-7 -7 -12 -15q30 -41 54 -90q32 -74 32 -182q0 -35 -9 -46q-62 -72 -124 -31q-91 71 -123 155q-27 75 -7 161q1 3 1 6q-41 36 -83 57q-120 60 -273 60t-224 -108q209 16 296 -23z" />
    <glyph glyph-name="uni17B4" unicode="&#x17b4;" horiz-adv-x="1536" 
d="M256 0v1280h1024v-1280h-1024zM288 32h960v1216h-960v-1216z" />
    <glyph glyph-name="uni17B5" unicode="&#x17b5;" horiz-adv-x="1536" 
d="M256 0v1280h1024v-1280h-1024zM288 32h960v1216h-960v-1216z" />
    <glyph glyph-name="uni17B6" unicode="&#x17b6;" horiz-adv-x="175" 
d="M-105 1335q-372 -214 -403 -158q1 75 428 323l370 -253q65 -44 84 -92t21 -82v-16q0 -27 -5 -56l-191 -901q-22 -100 -93 -100q-70 0 -120 35t-35 80t63 58q49 13 73 124l152 718q16 75 -30 106z" />
    <glyph glyph-name="uni17B7" unicode="&#x17b7;" 
d="M-705 2276q-32 -19 -35 -49q-3 -34 10 -46q11 -12 35 -14l465 -41q-220 156 -353 168q-83 7 -122 -18zM-843 2100q-47 39 -47 114q0 13 1 26q9 104 82 158q65 48 180 48q27 0 57 -3q99 -8 216 -78q116 -69 236 -171q116 -99 116 -149q0 -1 -1 -3q-3 -42 -77 -42
q-12 0 -27 1l-598 53q-91 8 -138 46z" />
    <glyph glyph-name="uni17B8" unicode="&#x17b8;" 
d="M-706 2276q-31 -19 -34 -49q-3 -34 10 -46q11 -12 35 -14l465 -41q-220 156 -354 168q-82 7 -122 -18zM-123 2199l35 164q10 49 -39 59q18 81 87 81q15 0 32 -4q74 -16 74 -104q0 -28 -8 -63l-61 -286q-6 -30 -37 -39q-23 -7 -49 -7q-9 0 -18 1l-598 52q-92 8 -138 47
q-47 39 -47 114q0 13 1 26q9 104 82 158q80 59 237 45q99 -9 216 -78q114 -67 231 -166z" />
    <glyph glyph-name="uni17B9" unicode="&#x17b9;" 
d="M-705 2276q-32 -19 -35 -49q-3 -34 10 -46q11 -12 35 -14l465 -41q-220 156 -353 168q-83 7 -122 -18zM-93 2384q-17 19 -54 22q-37 4 -57 -13q-21 -17 -24 -55q-3 -37 13 -57q17 -21 55 -24t59 14q19 17 22 54q4 38 -14 59zM-84 2163q85 -79 81 -121q-3 -42 -77 -42
q-12 0 -27 1l-598 53q-91 8 -138 46q-47 39 -47 114q0 13 1 26q9 104 82 158q80 59 237 45q99 -8 216 -78l26 -16q9 86 56 126q39 32 106 32q14 0 28 -1q87 -8 127 -55q34 -39 34 -107q0 -13 -2 -28q-8 -86 -54 -126q-22 -18 -51 -27z" />
    <glyph glyph-name="uni17BA" unicode="&#x17ba;" 
d="M-706 2276q-31 -19 -34 -49q-3 -34 10 -46q11 -12 35 -14l465 -41q-220 156 -354 168q-82 7 -122 -18zM-356 2366l16 65q13 49 -49 59q23 85 96 85q11 0 24 -2q93 -16 54 -163l-31 -115q61 -43 123 -96l35 164q10 49 -39 59q18 81 87 81q15 0 32 -4q74 -16 74 -104
q0 -28 -8 -63l-61 -286q-6 -30 -37 -39q-23 -7 -49 -7q-9 0 -18 1l-598 52q-92 8 -138 47q-47 39 -47 114q0 13 1 26q9 104 82 158q80 59 237 45q98 -9 214 -77z" />
    <glyph glyph-name="uni17BB" unicode="&#x17bb;" 
d="M-442 -797q-57 12 -57 74q0 18 4 39l81 379q7 30 -28 62q-35 33 -19 88t92 55q77 0 106 -38q22 -29 22 -63q0 -12 -3 -25l-104 -489q-18 -84 -74 -84q-9 0 -20 2z" />
    <glyph glyph-name="uni17BC" unicode="&#x17bc;" 
d="M-630 -133q30 -34 30 -114t-100 -186.5t-100 -156.5q0 -60 120 -60q100 0 194 226t140 275t115 49q68 0 68 -30t-43 -51q-44 -21 -145 -320t-329 -299q-270 0 -270 210q0 89 100 176.5t100 113.5q0 33 -30 52q-30 18 -30 54t27 65t75 29q47 0 78 -33z" />
    <glyph glyph-name="uni17BD" unicode="&#x17bd;" 
d="M-680 -133q30 -34 30 -114t-100 -186q-100 -107 -100 -157q0 -60 40 -60q80 0 252 226q-4 -226 78 -226q50 0 99 226t95 275t95 49q28 0 28 -30t-13.5 -51t-66.5 -263q-79 -356 -237 -356q-111 0 -144 159q-116 -159 -186 -159q-190 0 -190 210q0 89 100 177
q100 87 100 113q0 33 -30 52q-30 18 -30 54t27 65t75 29q47 0 78 -33z" />
    <glyph glyph-name="uni17BE" unicode="&#x17be;" 
d="M-706 2276q-31 -19 -34 -49q-3 -34 10 -46q11 -12 35 -14l465 -41q-220 156 -354 168q-82 7 -122 -18zM-123 2199l35 164q10 49 -39 59q18 81 87 81q15 0 32 -4q74 -16 74 -104q0 -28 -8 -63l-61 -286q-6 -30 -37 -39q-23 -7 -49 -7q-9 0 -18 1l-598 52q-92 8 -138 47
q-47 39 -47 114q0 13 1 26q9 104 82 158q80 59 237 45q99 -9 216 -78q114 -67 231 -166z" />
    <glyph glyph-name="uni17BF" unicode="&#x17bf;" horiz-adv-x="753" 
d="M-118 2308q-32 -19 -35 -49q-4 -34 9 -46q11 -12 35 -15l464 -46q-218 158 -351 172q-83 8 -122 -16zM656 2059q96 -74 141 -164q28 -57 28 -124q0 -39 -10 -82l-493 -2326q-39 -182 -154 -272q-114 -91 -302 -91q-283 0 -389 115q-63 69 -63 177q0 46 11 99l59 273
q21 100 77 129q55 28 130 -23q74 -52 49 -108q-25 -57 -73 -70.5t-66 -88.5l-29 -143q-19 -90 34 -142q68 -68 260 -68q126 0 202 60q80 61 105 186l496 2326q24 116 -104 246l-61 59l-103 6l-522 52q-91 9 -138 48q-53 45 -44 141q11 103 84 156q82 58 238 43
q99 -10 215 -81q33 -20 66 -43l38 123q15 48 -33 63q25 76 76 76q13 0 27 -4q71 -23 26 -166l-50 -154q42 -33 84 -69q25 -22 45 -41l75 238q16 47 -32 62q31 96 102 73t25 -166l-85 -271z" />
    <glyph glyph-name="uni17C0" unicode="&#x17c0;" horiz-adv-x="753" 
d="M322 -637q-39 -182 -154 -272q-114 -91 -302 -91q-283 0 -389 115q-63 69 -63 177q0 46 11 99l59 273q21 100 77 129q55 28 130 -23q74 -52 49 -108q-25 -57 -73 -70.5t-66 -88.5l-29 -143q-19 -90 34 -142q68 -68 260 -68q126 0 202 60q80 61 105 186l490 2307
q30 140 -78 319q-88 128 -246 128q-207 0 -310 -97q-100 -115 -160 -78q-61 37 42 165l51 59q144 159 177 416q11 85 86 85t31 -240q-17 -92 -46 -165q38 5 129 5q249 0 374 -175q108 -167 108 -337q0 -57 -12 -115z" />
    <glyph glyph-name="uni17C1" unicode="&#x17c1;" horiz-adv-x="800" 
d="M560 498q19 2 40 2q54 0 101 -56q46 -57 20 -150q-27 -93 -124 -193q-97 -101 -150 -101t-89 50q-22 31 -22 81q0 31 8 69l256 1200q21 100 97 100q75 0 82 -61t59 -141q51 -81 97 -122q45 -41 45 -91q-22 -35 -85 -3q-63 31 -122 84l-59 52z" />
    <glyph glyph-name="uni17C2" unicode="&#x17c2;" horiz-adv-x="800" 
d="M560 498q19 2 40 2q54 0 101 -56q46 -57 20 -150q-27 -93 -124 -193q-97 -101 -150 -101t-89 50q-22 31 -22 81q0 31 8 69l256 1200q21 100 97 100q75 0 82 -61t59 -141q51 -81 97 -122q45 -41 45 -91q-22 -35 -85 -3q-63 31 -122 84l-59 52zM977 2271q-6 86 -45 127
q-118 122 -72 167q10 10 25 10q50 0 147 -122q55 -69 78 -146q16 -56 16 -116q0 -48 -10 -98q-38 -181 -153 -295q-57 -77 -131 -41q-117 46 -173 36q-35 -6 -46 -33q-16 -39 -5 -64q9 -20 39 -29q24 -8 46 -5q37 4 71 37q87 -52 42 -115q-21 -29 -72 -33q-58 -4 -155 25
q-86 25 -115 80q-33 63 6 162q36 91 125 108q93 18 244 -45q96 93 127 225q16 96 11 165z" />
    <glyph glyph-name="uni17C3" unicode="&#x17c3;" horiz-adv-x="800" 
d="M560 498q19 2 40 2q54 0 101 -56q46 -57 20 -150q-27 -93 -124 -193q-97 -101 -150 -101t-89 50q-22 31 -22 81q0 31 8 69l256 1200q21 100 97 100q75 0 82 -61t59 -141q51 -81 97 -122q45 -41 45 -91q-22 -35 -85 -3q-63 31 -122 84l-59 52zM560 2106q31 -132 127 -225
q151 63 244 45q89 -17 125 -108q21 -54 21 -97q0 -36 -15 -65q-29 -55 -115 -80q-97 -29 -155 -25q-51 4 -72 33q-45 63 42 115q34 -33 71 -37q22 -3 46 5q30 9 39 29q11 25 -5 64q-11 27 -46 33q-56 10 -173 -36q-74 -36 -131 41q-115 114 -153 295q-23 114 6 214
q23 77 78 146q97 122 147 122q15 0 25 -10q46 -45 -72 -167q-39 -41 -45 -127q-5 -69 11 -165z" />
    <glyph glyph-name="uni17C4" unicode="&#x17c4;" horiz-adv-x="749" 
d="M172 1335q-372 -214 -403 -158q1 75 428 323l370 -253q65 -44 84 -92t21 -82v-16q0 -27 -5 -56l-191 -901q-22 -100 -93 -100q-70 0 -120 35t-35 80t63 58q49 13 73 124l152 718q16 75 -30 106z" />
    <glyph glyph-name="uni17C5" unicode="&#x17c5;" horiz-adv-x="749" 
d="M-218 1167l-13 19q24 80 427 314l370 -253q65 -44 84 -92q3 -7 5 -14l67 308q32 150 19 260q-10 87 -47 149q-86 140 -56 157q3 2 7 2q36 0 147 -130q50 -59 70 -152q14 -63 14 -142q0 -92 -19 -205l-29 -177q-30 -177 -74 -188q-33 -8 -85 1q-1 -11 -3 -23l-191 -901
q-22 -100 -93 -100q-70 0 -120 35t-35 80t63 58q49 13 73 124l152 718q16 75 -30 106l-314 214q-323 -186 -389 -168z" />
    <glyph glyph-name="uni17C6" unicode="&#x17c6;" 
d="M-550 2275q0 138 69 206q69 69 206 69q138 0 207 -69q68 -68 68 -206q0 -137 -68 -206q-69 -69 -207 -69q-137 0 -206 69t-69 206zM-150 2275q0 63 -31 94t-94 31q-62 0 -93 -31q-32 -31 -32 -94q0 -62 32 -94q31 -31 93 -31q63 0 94 31q31 32 31 94z" />
    <glyph glyph-name="uni17C7" unicode="&#x17c7;" horiz-adv-x="1169" 
d="M368 275q0 138 69 206q69 69 206 69q138 0 207 -69q68 -68 68 -206q0 -137 -68 -206q-69 -69 -207 -69q-137 0 -206 69t-69 206zM768 275q0 63 -31 94t-94 31q-62 0 -93 -31q-32 -31 -32 -94q0 -62 32 -94q31 -31 93 -31q63 0 94 31q31 32 31 94zM570 1225q0 138 69 206
q69 69 206 69q138 0 207 -69q68 -68 68 -206q0 -137 -68 -206q-69 -69 -207 -69q-137 0 -206 69t-69 206zM970 1225q0 63 -31 94t-94 31q-62 0 -93 -31q-32 -31 -32 -94q0 -62 32 -94q31 -31 93 -31q63 0 94 31q31 32 31 94z" />
    <glyph glyph-name="uni17C8" unicode="&#x17c8;" horiz-adv-x="900" 
d="M425 0q-63 0 -94 31t-31 94t31 94t94 31t94 -32q31 -31 31 -94q0 -30 25 -30t75 30q-25 -62 -81 -93q-57 -31 -144 -31zM638 998q-63 0 -94 31t-31 94t31 94t94 31t94 -32q31 -31 31 -94q0 -30 25 -30t75 30q-25 -62 -81 -93q-57 -31 -144 -31z" />
    <glyph glyph-name="uni17C9" unicode="&#x17c9;" 
d="M-746 1699q-29 -49 -66 -49t-45 51v14q0 71 57 356q8 37 -6 47q-14 9 -14 45q0 44 27 65q26 22 79 22t72 -37q18 -38 2 -113q-77 -352 -106 -401zM-346 1699q-29 -49 -66 -49t-45 51q-8 50 57 370q8 37 -6 47q-14 9 -14 45q0 44 27 65q26 22 79 22t72 -37q10 -20 10 -51
q0 -27 -8 -62q-77 -352 -106 -401z" />
    <glyph glyph-name="uni17CA" unicode="&#x17ca;" 
d="M-887 1713q-63 -53 -147 -53q-18 0 -38 2l-108 14q204 113 291.5 182.5t129.5 122.5q43 52 70 52t108 -91l79 -91l103 91l51 46q50 45 80 45q31 0 58 -49t98 -127q72 -78 127 -124t55 -69q0 -14 -28 -14q-16 0 -44 5q-71 13 -180 86q-108 73 -142 126l-221 -195l-160 183
z" />
    <glyph glyph-name="uni17CB" unicode="&#x17cb;" 
d="M-458 1699q-29 -49 -66 -49t-45 51v14q0 71 57 356q8 37 -6 47q-14 9 -14 45q0 44 27 65q26 22 79 22t72 -37q10 -20 10 -51q0 -27 -8 -62q-77 -352 -106 -401z" />
    <glyph glyph-name="uni17CC" unicode="&#x17cc;" 
d="M-486 1739l-76 -52q-54 -37 -92 -37q-32 0 -52 27q-13 19 -13 38q0 41 64 86l94 64q187 129 241 252q54 125 54 168q0 100 75 100q74 0 74 -100q-1 -73 -71 -231q-30 -70 -87 -136q15 -1 31 -3q124 -12 193 -131q20 -35 20 -62q0 -38 -38 -59q-21 -13 -41 -13
q-38 0 -68 50q-44 75 -112 85t-154 -28z" />
    <glyph glyph-name="uni17CD" unicode="&#x17cd;" 
d="M-215 1850q65 0 5 -100t-220 -100q-240 0 -240 225t250 245q64 8 134 -23q189 143 253 249q63 105 63 204q0 100 75 100t75 -100q0 -153 -91 -291q-91 -139 -278 -278q-63 -49 -121.5 -26t-109.5 15q-100 -10 -100 -95q0 -75 90 -75q110 0 130 25t85 25z" />
    <glyph glyph-name="uni17CE" unicode="&#x17ce;" 
d="M-405 1870q-35 -141 -53 -171q-29 -49 -66 -49t-45 51q-5 31 19 169h-69q-109 0 -109 75t109 75h97q5 25 10 51q8 37 -6 47q-14 9 -14 45q0 44 27 65q26 22 79 22t72 -37q18 -38 2 -113q-9 -42 -17 -80h74q108 0 108 -75t-108 -75h-110z" />
    <glyph glyph-name="uni17CF" unicode="&#x17cf;" 
d="M-340 1650q-74 0 -134 88q-59 -88 -111 -88q-179 71 -225 277l12 67q26 74 264 155q237 81 261 189q18 78 76 78q10 0 21 -2q54 -11 54 -69q0 -24 -10 -56q-57 -147 -293 -226t-236 -148q6 -17 12.5 -31.5t16.5 -28t24.5 -27t35.5 -28.5q40 18 110 98q63 -108 122 -108
q47 0 47 31q0 49 -37 81q-37 31 -14 65q22 33 84 33q89 -50 89 -169q-29 -181 -169 -181z" />
    <glyph glyph-name="uni17D0" unicode="&#x17d0;" 
d="M-448.5 2079q-26.5 0 -49 -41t-22.5 -108q0 -68 60 -99q59 -31 170 -31q138 0 229 128t167 354q53 148 53 241t75 93t75 -112t-72 -299q-95 -266 -211 -410q-117 -145 -316 -145q-140 0 -260 65t-120 215q0 110 67 205q66 94 161 94q190 0 167 -152q-15 -92 -90 -92
t-66 47t-17.5 47z" />
    <glyph glyph-name="uni17D1" unicode="&#x17d1;" 
d="M30 1725q0 -75 -100 -75h-700q-100 0 -100 75t100 75h700q100 0 100 -75z" />
    <glyph glyph-name="uni17D2" unicode="&#x17d2;" 
d="M-450 -450h-150v-150h-100v150h-150v100h150v150h100v-150h150v-100z" />
    <glyph glyph-name="uni17D3" unicode="&#x17d3;" 
d="M-750 1900q0 -62 45 -94q45 -31 135 -31t135 31q45 32 45 94q0 63 -45 94t-135 31t-135 -31t-45 -94zM-271 1900q0 -125 -75 -187q-74 -63 -224 -63t-224 63q-76 62 -76 187t76 188q74 62 224 62t224 -62q75 -63 75 -188z" />
    <glyph glyph-name="uni17D4" unicode="&#x17d4;" horiz-adv-x="1339" 
d="M1016 1151q-274 -151 -466 -151q-250 0 -250 250t250 250q100 0 100 -75t-100 -75t-100 -100t100 -100q148 0 396 133l235 126q19 91 95 91q59 0 59 -64q0 -20 -6 -46l-237 -1120q-58 -270 -392 -270q-100 0 -100 75t100 75q213 0 245 151l154 727l41 191z" />
    <glyph glyph-name="uni17D5" unicode="&#x17d5;" horiz-adv-x="1689" 
d="M1016 1151q-274 -151 -466 -151q-250 0 -250 250t250 250q100 0 100 -75t-100 -75t-100 -100t100 -100q148 0 396 133l235 126q19 91 95 91q59 0 59 -64q0 -20 -6 -46l-237 -1120q-58 -270 -392 -270q-100 0 -100 75t100 75q213 0 245 151l195 918zM1531 1409
q19 91 95 91q59 0 59 -64q0 -20 -6 -46l-237 -1120q-58 -270 -342 -270q163 150 195 301z" />
    <glyph glyph-name="uni17D6" unicode="&#x17d6;" horiz-adv-x="1169" 
d="M368 251q0 125 69 187q69 63 206 63q138 0 207 -63q68 -62 68 -187t-68 -188q-69 -63 -207 -63q-137 0 -206 63t-69 188zM768 251q0 57 -31 85t-94 28q-62 0 -93 -28q-32 -28 -32 -85t32 -86q31 -28 93 -28q63 0 94 28q31 29 31 86zM570 1250q0 125 69 187q69 63 206 63
q138 0 207 -63q68 -62 68 -187t-68 -187q-69 -63 -207 -63q-137 0 -206 63q-69 62 -69 187zM970 1250q0 57 -31 85q-31 29 -94 29q-62 0 -93 -29q-32 -28 -32 -85q0 -56 32 -85q31 -29 93 -29q63 0 94 29t31 85zM462 825h564q94 0 94 -75t-94 -75h-564q-94 0 -94 75t94 75z
" />
    <glyph glyph-name="uni17D7" unicode="&#x17d7;" horiz-adv-x="1347" 
d="M1129 270q-58 -270 -392 -270q-100 0 -100 75t100 75q213 0 245 151l158 740q10 50 -3 111q-19 89 -87 203q-232 -240 -267 -240t-160 235q-136 -119 -167 -247q-12 -74 8 -113q20 -40 45 -40t40 28q14 28 -60 69q94 90 168 28t16 -168q-58 -107 -164 -107t-167 93
q-42 63 -42 150q0 40 9 86q39 181 217 324q59 47 123 47q63 0 162 -207q177 207 250 207q72 0 119 -77q79 -129 103 -242q10 -49 10 -94q0 -39 -7 -75z" />
    <glyph glyph-name="uni17D8" unicode="&#x17d8;" horiz-adv-x="5039" 
d="M1016 1151q-274 -151 -466 -151q-250 0 -250 250t250 250q100 0 100 -75t-100 -75t-100 -100t100 -100q148 0 396 133l235 126q19 91 95 91q59 0 59 -64q0 -20 -6 -46l-237 -1120q-58 -270 -392 -270q-100 0 -100 75t100 75q213 0 245 151l154 727l41 191zM2960 0
q-280 0 -385 94t-66 281l137 644q19 88 9 151q-9 64 -48 102q-76 78 -247 78q-167 0 -237 -46q-69 -47 -85 -125l-146 -681q19 2 40 2q54 0 101 -56q46 -57 20 -150q-27 -93 -124 -193q-97 -101 -150 -101t-89 50q-22 31 -22 81q0 31 8 69l213 1000q32 150 144 225
q113 75 327 75q82 0 190 -32t171 -97q64 -64 82 -161q18 -96 -10 -225l-136 -635q-20 -100 48 -150t255 -50q159 0 241 56q82 57 106 169l118 558q14 65 -48 133q-63 67 -197 75q147 86 236 186t131 173q72 -108 144 -158q71 -50 142 -42l-50 -34q-51 -35 -126 -38
q-75 -4 -128 58l-91 -98q85 -58 118 -130t15 -158l-117 -550q-37 -175 -155 -262q-119 -88 -339 -88zM4716 1151q-274 -151 -466 -151q-250 0 -250 250t250 250q100 0 100 -75t-100 -75t-100 -100t100 -100q148 0 396 133l235 126q19 91 95 91q59 0 59 -64q0 -20 -6 -46
l-237 -1120q-58 -270 -392 -270q-100 0 -100 75t100 75q213 0 245 151l154 727l41 191z" />
    <glyph glyph-name="uni17D9" unicode="&#x17d9;" horiz-adv-x="1550" 
d="M692 12q-232 50 -312 246q-42 102 -42 245q0 130 35 293q73 342 225 489q115 109 273 109q54 0 112 -12q232 -49 312 -245q42 -102 42 -245q0 -130 -35 -294q-73 -342 -226 -488q-114 -110 -274 -110q-53 0 -110 12zM959 1267q-175 37 -292 -86q-117 -124 -178 -410
q-61 -285 -4 -447q57 -160 231 -197t291 86q118 124 179 410q60 286 4 447q-57 160 -231 197zM740 240q-116 25 -149 152q-34 126 15 354q48 228 130 330q82 103 198 78q117 -25 150 -152q34 -126 -15 -354q-48 -228 -130 -330t-199 -78zM910 1039q-58 13 -105 -66
q-48 -80 -84 -251t-25 -263t69 -104q57 -13 105 67q47 79 84 250q36 172 25 264q-11 91 -69 103z" />
    <glyph glyph-name="uni17DA" unicode="&#x17da;" horiz-adv-x="3501" 
d="M2856 507q10 -15 25 -2q5 4 -10 33q-21 -22 -15 -31zM1597 1131q-53 53 -101 -11q-24 -32 35 -123q5 -9 12 -18q81 125 54 152zM1781 347q35 -41 78 -7q21 17 -38 99q-56 -72 -40 -92zM2199 1094q-26 35 -63 8q-18 -13 25 -84q49 61 38 76zM2368 437q13 -15 32 -3
q6 4 -12 34q-25 -26 -20 -31zM2756 1011q-12 12 -30 -4q-6 -5 6 -28q28 28 24 32zM2906 738q41 18 87 30q115 32 262 32q95 0 95 -75t-99 -75h-120q-86 0 -152 -33q20 -41 29 -76q26 -101 -40 -151t-124 -42q-59 7 -110 71t-36 128q15 60 89 120q-15 22 -32 46
q-18 22 -33 43q-46 -42 -102 -87q-78 -64 -133 -110q20 -38 32 -71q42 -120 -26 -171t-128 -42q-61 9 -113 76t12 177q17 28 41 59q-36 49 -86 113l-69 86q-49 -56 -112 -119q-75 -72 -129 -128q44 -65 67 -119q56 -132 -23 -192t-150 -54t-134 80t1 204q22 45 58 96
q-43 48 -99 108q-39 41 -73 80q-67 -96 -160 -208q-223 -267 -418 -400q-196 -134 -363 -134q-207 0 -311 187q-104 188 -104 563t119 562q119 188 356 188q238 0 357 -99q118 -99 118 -297q0 -203 -86 -326q-87 -124 -260 -168q-84 -24 -104 48q-20 73 65 96
q117 30 176 116t59 227q0 126 -81 189q-82 64 -244 64t-243 -150q-82 -150 -81 -450q0 -300 66 -450t199 -150q132 0 294 116t355 348q120 144 197 249q-54 77 -80 142q-57 143 17 228t148 86q73 1 147 -83t-1 -259q-23 -53 -59 -114q42 -49 95 -105q47 -50 86 -96
q49 55 111 116q81 76 138 135q-32 59 -54 125q-44 132 33 190t143 50q67 -8 124 -81t-11 -205q-22 -42 -56 -91q35 -46 81 -103q44 -55 79 -105q46 45 105 94q74 60 125 104q-23 45 -34 83q-30 103 37 153q66 50 126 41q60 -8 114 -75q53 -67 -11 -173q-19 -31 -48 -66
q21 -27 47 -60q23 -29 42 -56z" />
    <glyph glyph-name="uni17DB" unicode="&#x17db;" horiz-adv-x="849" 
d="M694 700l-117 -550q-21 -101 -53 -125q-32 -25 -66 -25q-74 0 -137 147q-52 121 -52 208q0 18 2 34q14 95 79 129q66 32 115 10q19 -9 36 -18l40 190h-141q-100 0 -100 75t100 75h173l18 83q14 65 -48 133q-63 67 -197 75q147 86 236 186t131 173q72 -108 144 -158
q71 -50 142 -42l-50 -34q-51 -35 -126 -38q-75 -4 -128 58l-91 -98q85 -58 118 -130t15 -158l-11 -50h74q100 0 100 -75t-100 -75h-106z" />
    <glyph glyph-name="uni17DC" unicode="&#x17dc;" horiz-adv-x="1536" 
d="M256 0v1280h1024v-1280h-1024zM288 32h960v1216h-960v-1216z" />
    <glyph glyph-name="uni17DD" unicode="&#x17dd;" horiz-adv-x="1536" 
d="M256 0v1280h1024v-1280h-1024zM288 32h960v1216h-960v-1216z" />
    <glyph glyph-name="uni17DE" horiz-adv-x="1536" 
d="M256 0v1280h1024v-1280h-1024zM288 32h960v1216h-960v-1216z" />
    <glyph glyph-name="uni17DF" horiz-adv-x="1536" 
d="M256 0v1280h1024v-1280h-1024zM288 32h960v1216h-960v-1216z" />
    <glyph glyph-name="uni17E0" unicode="&#x17e0;" horiz-adv-x="1528" 
d="M715 16q-390 83 -390 473q0 98 25 217q106 499 475 499q65 0 139 -16q390 -83 390 -473q0 -98 -25 -217q-106 -499 -475 -499q-65 0 -139 16zM1182 530q93 440 -249 513q-342 72 -436 -368q-93 -440 249 -513q342 -72 436 368z" />
    <glyph glyph-name="uni17E1" unicode="&#x17e1;" horiz-adv-x="1602" 
d="M728 484q-29 45 -105 60q-97 21 -81.5 94.5t113.5 52.5q147 -30 205 -118q56 -85 28 -224q-35 -156 -123 -218q-84 -60 -218 -34q-110 24 -165 111q-59 90 -59 248q0 120 33 278q50 231 197 348q149 118 347 118q293 0 466 -185q83 -101 83 -254q0 -70 -18 -152
q-54 -242 -202.5 -439t-509.5 -393q-61 -29 -101 -29q-43 0 -60 34q-35 67 84 122q346 192 469 355t170 376q38 171 -46 275q-136 140 -335 140q-137 0 -249 -89q-110 -87 -147 -261v-1q-57 -264 -12 -376q27 -65 87 -79q61 -11 101 21q43 34 61 115q12 64 -13 104z" />
    <glyph glyph-name="uni17E2" unicode="&#x17e2;" horiz-adv-x="1702" 
d="M1576 975q18 -18 18 -49q0 -13 -3 -28l-117 -548q-37 -175 -172 -262q-136 -88 -420 -88q-236 0 -338 86.5t-132 213.5q-14 58 -14 115q0 67 19 132l85 399q98 473 -24 761q-45 107 21 133q14 5 26 5q49 0 82 -79q151 -329 42 -850l-86 -400q-39 -186 63 -310
q59 -56 256 -56q239 0 330 59t113 162l90 419l-250 -152l-215 177l-286 -204l25 101l262 288l228 -187l308 187q63 0 89 -25z" />
    <glyph glyph-name="uni17E3" unicode="&#x17e3;" horiz-adv-x="2249" 
d="M486 150q89 0 147 68q57 67 72 134q15 66 -13 82t-72 16q-71 0 -88 -79zM1201 730q15 81 6 140q-9 64 -48 102q-76 78 -268 78q-97 0 -167 -46q-69 -47 -85 -125l-59 -281q19 2 40 2q104 0 163 -38q97 -64 69 -230q-22 -129 -130 -230q-108 -102 -236 -102q-93 0 -129 50
q-22 31 -22 82q0 31 8 68l147 700q32 150 144 225q113 75 257 75q103 0 211 -32t171 -97q13 -13 24 -28q34 49 84 82q113 75 257 75q103 0 211 -32t171 -97q64 -64 82 -161q7 -38 7 -80q0 -66 -17 -145l-143 -687q-65 -298 -329 -298q-167 0 -220 200q100 -50 220 -50
q130 0 182 192l144 677q18 88 8 151q-9 64 -48 102q-76 78 -268 78q-97 0 -167 -46q-69 -47 -85 -125l-164 -779q-22 -100 -92 -100q-87 0 -55 131z" />
    <glyph glyph-name="uni17E4" unicode="&#x17e4;" horiz-adv-x="1644" 
d="M1529 946q33 -36 33 -95q0 -23 -5 -50q-13 -66 -88 -56q-75 9 -66 57q4 22 -7 34q-13 14 -46 14q-24 0 -43 -15q-29 -24 -48 -81q-12 -37 11 -81q37 -69 161 -154q68 -47 35 -149l-25 -76q-55 -170 -199 -242q-102 -52 -273 -52q-71 0 -153 9q-235 25 -327.5 121.5
t-109.5 226.5q-4 33 -4 65q0 94 36 180l127 388q147 460 56 758q-33 112 36 131q10 3 19 3q54 0 79 -89q116 -342 -47 -849l-128 -388q-59 -181 30 -315q52 -62 248 -83q238 -25 335 24q96 49 129 149l23 72q-147 116 -196 225q-39 84 -19 164q27 110 94 161q60 47 153 47
q128 0 179 -54z" />
    <glyph glyph-name="uni17E5" unicode="&#x17e5;" horiz-adv-x="1644" 
d="M850 1250v10q0 90 -50 90t-50 -50t90 -50h10zM1000 1262q208 33 353 156q197 167 197 382q0 100 75 100t75 -100q0 -286 -245 -493q-202 -170 -487 -200q-51 -120 -183 -231q-175 -147 -232 -320q-59 -181 30 -315q52 -62 248 -83q238 -25 335 24q96 49 129 149l23 72
q-147 116 -196 225q-39 84 -19 164q27 110 94 161q60 47 153 47q128 0 179 -54q33 -36 33 -95q0 -23 -5 -50q-13 -66 -88 -56q-75 9 -66 57q4 22 -7 34q-13 14 -46 14q-24 0 -43 -15q-29 -24 -48 -81q-12 -37 11 -81q37 -69 161 -154q68 -47 35 -149l-25 -76
q-55 -170 -199 -242q-102 -52 -273 -52q-71 0 -153 9q-235 25 -327.5 121.5t-109.5 226.5q-4 33 -4 65q0 94 36 180q70 214 267 381q72 61 114 119q-192 19 -192 198q0 200 200 200q199 0 200 -238z" />
    <glyph glyph-name="uni17E6" unicode="&#x17e6;" horiz-adv-x="1644" 
d="M457 108q-82 74 -82 200q0 47 11 100q52 242 364 242q250 0 250 -250q0 -100 -75 -100t-75 100t-100 100q-191 0 -217 -123q-18 -85 25 -138q71 -89 312 -89q184 0 305 103q139 120 194 377q50 234 -55 338q-84 83 -264 83q-373 0 -412 -181q-17 -81 -92.5 -65t-53.5 93
q13 59 42 107q82 263 65 473q-12 148 -74 270q-55 105 7 131q11 5 23 5q50 0 104 -91q66 -129 84 -282q20 -165 -17 -358q128 47 324 47q257 0 379 -113q109 -101 109 -294q0 -87 -22 -193q-67 -315 -242 -465q-158 -135 -404 -135q-293 0 -413 108z" />
    <glyph glyph-name="uni17E7" unicode="&#x17e7;" horiz-adv-x="2000" 
d="M486 150q59 0 167 93q77 67 103 159q15 66 -13 82t-92 16q-91 0 -108 -79zM1420 0q-171 0 -134 186l155 728q37 165 38 213q-5 87 -63 159q-59 64 -90 64q-32 0 -255 -200q-128 200 -171 200q-46 -4 -82 -35l-72 -62q-36 -31 -78 -247l-78 -370q30 14 61 14
q104 0 148 -25q132 -77 104 -243q-33 -154 -161 -255q-158 -127 -256 -127q-93 0 -129 50q-22 31 -22 82q0 31 8 68l176 836q51 244 134 314l101 82q80 68 146 68q100 0 147 -83l50 -77q159 160 237 160t176 -110q97 -118 113 -234q9 -77 -33 -266l-158 -740q148 0 185 176
l154 725q56 265 -135 654q-64 129 -38 142q2 1 5 1q28 0 111 -119q219 -315 219 -584q0 -67 -13 -130l-156 -712q-64 -303 -344 -303z" />
    <glyph glyph-name="uni17E8" unicode="&#x17e8;" horiz-adv-x="1700" 
d="M1349 696q-9 29 -32 31q-62 5 -47 -68q14 -73 -91 -34q-106 39 -49 151q56 111 179 90q106 -14 153 -91q58 -96 24 -289l-32 -136q-37 -175 -136 -262.5t-203 -87.5q-116 0 -184 75q-24 26 -41 51q-18 -21 -38 -38q-116 -88 -210 -88q-136 0 -189.5 75t-72.5 144
q-9 35 -9 74t9 82l87 413q43 206 176 309q134 103 357 103q257 0 411 -80q94 176 121 306q26 130 -8 261q-35 130 -3 147q3 2 7 2q34 0 108 -123q51 -90 51 -210q0 -30 -3 -62q-16 -160 -172 -394q-89 -93 -161 -53q-131 56 -351 56q-159 0 -255 -71q-97 -73 -130 -220
l-87 -409q-20 -96 8.5 -148t105.5 -52q49 0 120 59q58 59 80 162l24 114q25 116 102 116t50 -125l-27 -126q-20 -96 13.5 -148t110.5 -52q59 0 113.5 59t76.5 162l34 149q25 126 10 176z" />
    <glyph glyph-name="uni17E9" unicode="&#x17e9;" horiz-adv-x="1699" 
d="M536 189q37 -39 114 -39q88 0 114 46q25 45 -38 54q-67 10 -46.5 81t96.5 44q189 -77 116 -226q-74 -149 -242 -149q-151 0 -226 76q-74 75 -74 224q0 199 99 299q100 101 301 101h11q-90 147 -37 290q76 210 276 210q195 0 412 -245q24 258 128 475q99 207 270 376
q44 44 77 44q19 0 35 -15q16 -16 16 -37q0 -32 -40 -75q-143 -150 -226 -337q-88 -199 -110 -439q-10 -110 -95 -143t-150 37q-193 209 -317 209q-96 0 -135 -115q-40 -116 117 -273l39 -46q170 -96 373 -302q55 -47 10.5 -107t-111.5 -4q-331 347 -543 347q-126 0 -189 -64
q-61 -62 -61 -186q0 -73 36 -111z" />
    <glyph glyph-name="uni17EA" horiz-adv-x="1536" 
d="M256 0v1280h1024v-1280h-1024zM288 32h960v1216h-960v-1216z" />
    <glyph glyph-name="uni17EB" horiz-adv-x="1536" 
d="M256 0v1280h1024v-1280h-1024zM288 32h960v1216h-960v-1216z" />
    <glyph glyph-name="uni17EC" horiz-adv-x="1536" 
d="M256 0v1280h1024v-1280h-1024zM288 32h960v1216h-960v-1216z" />
    <glyph glyph-name="uni17ED" horiz-adv-x="1536" 
d="M256 0v1280h1024v-1280h-1024zM288 32h960v1216h-960v-1216z" />
    <glyph glyph-name="uni17EE" horiz-adv-x="1536" 
d="M256 0v1280h1024v-1280h-1024zM288 32h960v1216h-960v-1216z" />
    <glyph glyph-name="uni17EF" horiz-adv-x="1536" 
d="M256 0v1280h1024v-1280h-1024zM288 32h960v1216h-960v-1216z" />
    <glyph glyph-name="uni17F0" unicode="&#x17f0;" horiz-adv-x="1536" 
d="M256 0v1280h1024v-1280h-1024zM288 32h960v1216h-960v-1216z" />
    <glyph glyph-name="uni17F1" unicode="&#x17f1;" horiz-adv-x="1536" 
d="M256 0v1280h1024v-1280h-1024zM288 32h960v1216h-960v-1216z" />
    <glyph glyph-name="uni17F2" unicode="&#x17f2;" horiz-adv-x="1536" 
d="M256 0v1280h1024v-1280h-1024zM288 32h960v1216h-960v-1216z" />
    <glyph glyph-name="uni17F3" unicode="&#x17f3;" horiz-adv-x="1536" 
d="M256 0v1280h1024v-1280h-1024zM288 32h960v1216h-960v-1216z" />
    <glyph glyph-name="uni17F4" unicode="&#x17f4;" horiz-adv-x="1536" 
d="M256 0v1280h1024v-1280h-1024zM288 32h960v1216h-960v-1216z" />
    <glyph glyph-name="uni17F5" unicode="&#x17f5;" horiz-adv-x="1536" 
d="M256 0v1280h1024v-1280h-1024zM288 32h960v1216h-960v-1216z" />
    <glyph glyph-name="uni17F6" unicode="&#x17f6;" horiz-adv-x="1536" 
d="M256 0v1280h1024v-1280h-1024zM288 32h960v1216h-960v-1216z" />
    <glyph glyph-name="uni17F7" unicode="&#x17f7;" horiz-adv-x="1536" 
d="M256 0v1280h1024v-1280h-1024zM288 32h960v1216h-960v-1216z" />
    <glyph glyph-name="uni17F8" unicode="&#x17f8;" horiz-adv-x="1536" 
d="M256 0v1280h1024v-1280h-1024zM288 32h960v1216h-960v-1216z" />
    <glyph glyph-name="uni17F9" unicode="&#x17f9;" horiz-adv-x="1536" 
d="M256 0v1280h1024v-1280h-1024zM288 32h960v1216h-960v-1216z" />
    <glyph glyph-name="uni17FA" horiz-adv-x="1536" 
d="M256 0v1280h1024v-1280h-1024zM288 32h960v1216h-960v-1216z" />
    <glyph glyph-name="uni17FB" horiz-adv-x="1536" 
d="M256 0v1280h1024v-1280h-1024zM288 32h960v1216h-960v-1216z" />
    <glyph glyph-name="uni17FC" horiz-adv-x="1536" 
d="M256 0v1280h1024v-1280h-1024zM288 32h960v1216h-960v-1216z" />
    <glyph glyph-name="uni17FD" horiz-adv-x="1536" 
d="M256 0v1280h1024v-1280h-1024zM288 32h960v1216h-960v-1216z" />
    <glyph glyph-name="uni17FE" horiz-adv-x="1536" 
d="M256 0v1280h1024v-1280h-1024zM288 32h960v1216h-960v-1216z" />
    <glyph glyph-name="uni17FF" horiz-adv-x="1536" 
d="M256 0v1280h1024v-1280h-1024zM288 32h960v1216h-960v-1216z" />
    <glyph glyph-name="uni17D21789.alt" 
d="M-2102 -616v6q-2 18 12 29q16 13 51 13q35 -1 87 -27q309 -174 743 -158q282 12 386 43.5t104 54.5q2 21 -6 28t-31 5q6 -30 -65 -34q-71 -3 -80 41q-6 80 127 86q99 4 154 -38q53 -43 44 -103q-6 -63 -149 -113t-471 -63q-39 -1 -78 -1q-433 0 -764 181q-59 28 -64 50z
M-1947 -376l-10 -47q75 14 76 35t-66 12zM-2084 -288v4q21 67 114 127q89 57 152 57q96 0 147 -58l42 -46q104 104 179 104q74 0 166 -78q11 -9 19 -16q23 23 53 40q99 54 327 54q234 0 343 -77q67 -48 75 -126q2 -16 1 -35l2 -1l-5 -28l-2 -8l-5 -33h-1l-7 -40
q-14 -69 -81 -69t-118 24q-50 25 -39 56t57 40q39 8 56 69q-1 48 -47 78q-72 47 -219 47q-170 0 -235 -34q-54 -27 -63 -78l-2 -15h-1v-6l6 -3l-11 -55q0 -6 -1 -14h-1q-4 -19 -8 -40q-15 -69 -82 -69q-66 0 -117 24q-50 25 -39 56t56 40q31 6 48 44l1 14q-7 44 -42 88
q-52 47 -82 47q-31 0 -192 -133q-127 133 -168 133q-43 -3 -83 -31q-27 -20 -43 -56q112 4 147 -28t29 -84q-7 -52 -104 -83q-98 -31 -180 -31q-58 0 -65 62v16q0 20 3 45l14 78l5 26q0 1 1 2z" />
    <glyph glyph-name="uni17BB.sec" 
d="M-701 -1547q-57 12 -57 74q0 18 4 39l81 379q7 30 -28 62q-35 33 -19 88t92 55q77 0 106 -38q22 -29 22 -63q0 -12 -3 -25l-104 -489q-18 -84 -74 -84q-9 0 -20 2z" />
    <glyph glyph-name="uni17BC.sec" 
d="M-867 -883q30 -34 30 -114t-100 -186.5t-100 -156.5q0 -60 120 -60q100 0 194 226t140 275t115 49q68 0 68 -30t-43 -51q-44 -21 -145 -320t-329 -299q-270 0 -270 210q0 89 100 176.5t100 113.5q0 33 -30 52q-30 18 -30 54t27 65t75 29q47 0 78 -33z" />
    <glyph glyph-name="uni17BD.sec" 
d="M-917 -883q30 -34 30 -114t-100 -186q-100 -107 -100 -157q0 -60 40 -60q80 0 252 226q-4 -226 78 -226q50 0 99 226t95 275t95 49q28 0 28 -30t-13.5 -51t-66.5 -263q-79 -356 -237 -356q-111 0 -144 159q-116 -159 -186 -159q-190 0 -190 210q0 89 100 177
q100 87 100 113q0 33 -30 52q-30 18 -30 54t27 65t75 29q47 0 78 -33z" />
    <glyph glyph-name="uni17B7.sec" 
d="M-705 2476q-32 -19 -35 -49q-3 -34 10 -46q11 -12 35 -14l465 -41q-220 156 -353 168q-83 7 -122 -18zM-843 2300q-47 39 -47 114q0 13 1 26q9 104 82 158q65 48 180 48q27 0 57 -3q99 -8 216 -78q116 -69 236 -171q116 -99 116 -149q0 -1 -1 -3q-3 -42 -77 -42
q-12 0 -27 1l-598 53q-91 8 -138 46z" />
    <glyph glyph-name="uni17B8.sec" 
d="M-706 2476q-31 -19 -34 -49q-3 -34 10 -46q11 -12 35 -14l465 -41q-220 156 -354 168q-82 7 -122 -18zM-123 2399l35 164q10 49 -39 59q18 81 87 81q15 0 32 -4q74 -16 74 -104q0 -28 -8 -63l-61 -286q-6 -30 -37 -39q-23 -7 -49 -7q-9 0 -18 1l-598 52q-92 8 -138 47
q-47 39 -47 114q0 13 1 26q9 104 82 158q80 59 237 45q99 -9 216 -78q114 -67 231 -166z" />
    <glyph glyph-name="uni17B9.sec" 
d="M-705 2476q-32 -19 -35 -49q-3 -34 10 -46q11 -12 35 -14l465 -41q-220 156 -353 168q-83 7 -122 -18zM-93 2584q-17 19 -54 22q-37 4 -57 -13q-21 -17 -24 -55q-3 -37 13 -57q17 -21 55 -24t59 14q19 17 22 54q4 38 -14 59zM-84 2363q85 -79 81 -121q-3 -42 -77 -42
q-12 0 -27 1l-598 53q-91 8 -138 46q-47 39 -47 114q0 13 1 26q9 104 82 158q80 59 237 45q99 -8 216 -78l26 -16q9 86 56 126q39 32 106 32q14 0 28 -1q87 -8 127 -55q34 -39 34 -107q0 -13 -2 -28q-8 -86 -54 -126q-22 -18 -51 -27z" />
    <glyph glyph-name="uni17BA.sec" 
d="M-706 2476q-31 -19 -34 -49q-3 -34 10 -46q11 -12 35 -14l465 -41q-220 156 -354 168q-82 7 -122 -18zM-356 2566l16 65q13 49 -49 59q23 85 96 85q11 0 24 -2q93 -16 54 -163l-31 -115q61 -43 123 -96l35 164q10 49 -39 59q18 81 87 81q15 0 32 -4q74 -16 74 -104
q0 -28 -8 -63l-61 -286q-6 -30 -37 -39q-23 -7 -49 -7q-9 0 -18 1l-598 52q-92 8 -138 47q-47 39 -47 114q0 13 1 26q9 104 82 158q80 59 237 45q98 -9 214 -77z" />
    <glyph glyph-name="uni17C6.sec" 
d="M-660 2515q0 138 69 206q69 69 206 69q138 0 207 -69q68 -68 68 -206q0 -137 -68 -206q-69 -69 -207 -69q-137 0 -206 69t-69 206zM-260 2515q0 63 -31 94t-94 31q-62 0 -93 -31q-32 -31 -32 -94q0 -62 32 -94q31 -31 93 -31q63 0 94 31q31 32 31 94z" />
    <glyph glyph-name="uni17CE.sec" 
d="M-218 2420q-35 -141 -53 -171q-29 -49 -66 -49t-45 51q-5 31 19 169h-69q-109 0 -109 75t109 75h97q5 25 10 51q8 37 -6 47q-14 9 -14 45q0 44 27 65q26 22 79 22t72 -37q18 -38 2 -113q-9 -42 -17 -80h74q108 0 108 -75t-108 -75h-110z" />
    <glyph glyph-name="uni17D0.sec" 
d="M-448.5 2629q-26.5 0 -49 -41t-22.5 -108q0 -68 60 -99q59 -31 170 -31q138 0 229 128t167 354q53 148 53 241t75 93t75 -112t-72 -299q-95 -266 -211 -410q-117 -145 -316 -145q-140 0 -260 65t-120 215q0 110 67 205q66 94 161 94q190 0 167 -152q-15 -92 -90 -92
t-66 47t-17.5 47z" />
    <glyph glyph-name="uni1789.alt" horiz-adv-x="2550" 
d="M486 150q89 0 167 68q77 67 103 184q15 66 -13 82t-92 16q-91 0 -108 -79zM1613 1050q-3 -74 -23 -160l-168 -790q-22 -100 -92 -100t-120 35t-35 80t63 58t72 124l131 617q30 130 24 217q-5 87 -46 131q-82 88 -113 88q-32 0 -134 -125l-102 -125l-63 125
q-64 125 -91 125t-120 -93q-94 -94 -128 -251l-78 -370q30 14 61 14q104 0 148 -25q132 -77 104 -243q-33 -179 -161 -280q-128 -102 -256 -102q-93 0 -129 50q-22 31 -22 82q0 31 8 68l176 836q43 201 179 333l68 65q68 66 151 66t130 -83l47 -84q71 81 122 127
q50 47 113 47t197 -154q36 -41 57 -93q72 120 164 180t253 60q310 0 410 -140q51 -69 61 -174q3 -26 3 -55q0 -85 -23 -190l-179 -841q-22 -100 -92 -100t-120 35t-35 80t63 58t72 124l144 674q40 190 -23 284q-64 95 -281 95q-150 0 -235 -75q-84 -75 -152 -225z" />
    <glyph glyph-name="uni17D2178E.na" 
d="M-1939 -560l-24 -105q91 21 98 70q7 48 -74 35zM-2059 -375q27 128 122 197q109 78 307 78q284 0 390 -112q66 -68 66 -178q0 -47 -13 -103l-49 -237q-15 -70 -91 -70q-77 0 -56 91l52 247q20 93 -35 146q-71 66 -264 66q-138 0 -210 -48q-58 -39 -73 -111l-5 -28
q119 6 158 -40q38 -47 22 -140q-16 -94 -127 -138q-111 -45 -197 -45q-61 0 -61 90q0 36 10 87z" />
    <glyph glyph-name="uni17BB.sec.na" 
d="M-1401 -1547q-57 12 -57 74q0 18 4 39l81 379q7 30 -28 62q-35 33 -19 88t92 55q77 0 106 -38q22 -29 22 -63q0 -12 -3 -25l-104 -489q-18 -84 -74 -84q-9 0 -20 2z" />
    <glyph glyph-name="uni17BC.sec.na" 
d="M-1567 -883q30 -34 30 -114t-100 -186.5t-100 -156.5q0 -60 120 -60q100 0 194 226t140 275t115 49q68 0 68 -30t-43 -51q-44 -21 -145 -320t-329 -299q-270 0 -270 210q0 89 100 176.5t100 113.5q0 33 -30 52q-30 18 -30 54t27 65t75 29q47 0 78 -33z" />
    <glyph glyph-name="uni17BD.sec.na" 
d="M-1617 -883q30 -34 30 -114t-100 -186q-100 -107 -100 -157q0 -60 40 -60q80 0 252 226q-4 -226 78 -226q50 0 99 226t95 275t95 49q28 0 28 -30t-13.5 -51t-66.5 -263q-79 -356 -237 -356q-111 0 -144 159q-116 -159 -186 -159q-190 0 -190 210q0 89 100 177
q100 87 100 113q0 33 -30 52q-30 18 -30 54t27 65t75 29q47 0 78 -33z" />
    <glyph glyph-name="uni17BF.long" horiz-adv-x="753" 
d="M-118 2308q-32 -19 -35 -49q-4 -34 9 -46q11 -12 35 -15l464 -46q-218 158 -351 172q-83 8 -122 -16zM656 2059q96 -74 141 -164q28 -57 28 -124q0 -39 -10 -82l-621 -2926q-39 -182 -154 -272q-114 -91 -302 -91q-283 0 -389 115q-63 69 -63 177q0 46 11 99l32 141
q21 100 77 129q55 28 130 -23q74 -52 49 -108q-25 -57 -73 -70.5t-56 -47.5l-12 -52q-19 -90 34 -142q68 -68 260 -68q126 0 202 60q80 61 105 186l624 2926q24 116 -104 246l-61 59l-103 6l-522 52q-91 9 -138 48q-53 45 -44 141q11 103 84 156q82 58 238 43
q99 -10 215 -81q33 -20 66 -43l38 123q15 48 -33 63q25 76 76 76q13 0 27 -4q71 -23 26 -166l-50 -154q42 -33 84 -69q25 -22 45 -41l75 238q16 47 -32 62q31 96 102 73t25 -166l-85 -271z" />
    <glyph glyph-name="uni17C0.long" horiz-adv-x="753" 
d="M195 -1237q-39 -182 -154 -272q-114 -91 -302 -91q-283 0 -389 115q-63 69 -63 177q0 46 11 99l30 141q21 100 77 129q55 28 130 -23q74 -52 49 -108q-25 -57 -73 -70.5t-56 -47.5l-10 -52q-19 -90 34 -142q68 -68 260 -68q126 0 202 60q80 61 105 186l617 2907
q30 140 -78 319q-88 128 -246 128q-207 0 -310 -97q-100 -115 -160 -78q-61 37 42 165l51 59q144 159 177 416q11 85 86 85t31 -240q-17 -92 -46 -165q38 5 129 5q249 0 374 -175q108 -167 108 -337q0 -57 -12 -115z" />
    <glyph glyph-name="uni17D21783.long" horiz-adv-x="756" 
d="M-230 -1607q140 0 259 88q118 87 155 262l460 2157q18 86 -15 158t-118 130l91 98q53 -62 128 -58q75 3 126 38l50 34q-71 -8 -142 42q-72 50 -144 158q-42 -73 -131 -173t-236 -186q134 -8 197 -75q62 -68 48 -133l-461 -2165q-24 -112 -106 -169q-82 -56 -161 -56
q-97 0 -165 50t-48 150l7 52q1 25 57 30q106 4 192 111q-105 -40 -185 6q-81 46 -153 154l-70 -347q-28 -103 -108 -155q-81 -51 -164 -51q-97 0 -165 50t-48 150l23 111q27 127 -5 183t-135 56t-124 -101q-3 -14 -3 -28q0 -81 107 -126l-11 -70q-39 -187 66 -281t295 -94
q70 0 160 31q91 32 152 95q48 -63 144 -95q96 -31 181 -31z" />
    <glyph glyph-name="uni17D21788.long" horiz-adv-x="756" 
d="M-1189 -1044q73 0 105 -40q35 -43 20 -135q-39 -187 66 -281t205 -94q80 0 136 32q55 31 116 94q48 -63 144 -95q96 -31 181 -31q130 0 249 88q118 87 155 262l456 2144q18 86 -15 158t-118 130l91 98q53 -62 128 -58q75 3 126 38l50 34q-71 -8 -142 42q-72 50 -144 158
q-42 -73 -131 -173t-236 -186q134 -8 197 -75q62 -68 48 -133l-457 -2152q-24 -112 -106 -169q-82 -56 -151 -56q-97 0 -165 50t-48 150l7 52q1 25 57 30q106 4 192 111q-105 -40 -185 6q-81 46 -153 154l-70 -347q-28 -103 -78 -154q-51 -52 -134 -52q-47 0 -95 50t-28 150
q38 179 -33 266q-69 84 -240 84q-128 0 -206 -64q-81 -66 -109 -201l-69 -326q-4 -18 -4 -33q0 -76 99 -76q249 0 249 200q0 100 -151 100l21 100q18 80 64 118q42 32 106 32z" />
    <glyph glyph-name="uni17D2178D.long" horiz-adv-x="757" 
d="M-1391 -1395l-16 -68q80 21 83 51t-67 17zM499 933q14 65 -48 133q-63 67 -197 75q147 86 236 186t131 173q72 -108 144 -158q71 -50 142 -42l-50 -34q-51 -35 -126 -38q-75 -4 -128 58l-91 -98q85 -58 118 -130t15 -158l-509 -2398q-21 -100 -97 -100q-77 0 -150 63
l-171 157l-250 -157q-100 -63 -176 -63q-77 0 -56 100l42 197q18 91 -30 186q-49 66 -80 66q-32 0 -215 -190q-118 190 -161 190q-46 -4 -90 -44q-45 -41 -68 -133l-5 -47q119 7 152 -40q34 -46 22 -121t-117 -119q-106 -45 -192 -45q-61 0 -61 90q0 36 10 87l50 249
q25 101 134 191q99 82 165 82q100 0 147 -83l40 -67q119 150 197 150t166 -112q83 -112 96 -168q2 -9 2 -25q0 -36 -12 -105l-15 -81l320 197l264 -238z" />
    <glyph glyph-name="uni17D21794.long" horiz-adv-x="757" 
d="M-665 -1032q21 100 77 129q55 28 130 -23q74 -52 49 -108q-25 -57 -72.5 -70.5t-71.5 -123.5l-34 -157l320 197l264 -238l502 2359q14 65 -48 133q-63 67 -197 75q147 86 236 186t131 173q72 -108 144 -158q71 -50 142 -42l-50 -34q-51 -35 -126 -38q-75 -4 -128 58
l-91 -98q85 -58 118 -130t15 -158l-509 -2393q-21 -100 -97 -100q-77 0 -150 63l-171 157l-250 -157q-100 -63 -176 -63q-60 0 -60 62q0 17 4 38z" />
    <glyph glyph-name="uni17D21799.long" horiz-adv-x="757" 
d="M499 933q14 65 -48 133q-63 67 -197 75q147 86 236 186t131 173q72 -108 144 -158q71 -50 142 -42l-50 -34q-51 -35 -126 -38q-75 -4 -128 58l-91 -98q85 -58 118 -130t15 -158l-460 -2148q-37 -175 -172 -262q-136 -88 -320 -88q-216 0 -327 100q-56 50 -75 119
q-9 35 -9 74t9 82l11 51l29 135q21 100 77 129q55 28 130 -23q74 -52 49 -108q-25 -57 -72.5 -70.5t-71.5 -123.5l-4 -15q-20 -96 38 -148q59 -52 216 -52q139 0 230 59t113 162z" />
    <glyph glyph-name="uni17D2179A.long" horiz-adv-x="750" 
d="M499 933q14 65 -48 133q-63 67 -197 75q147 86 236 186t131 173q72 -108 144 -158q71 -50 142 -42l-50 -34q-51 -35 -126 -38q-75 -4 -128 58l-91 -98q85 -58 118 -130t15 -158l-326 -1531q-67 -308 35 -516q128 -203 517 -203q266 0 402 91q140 94 210 212q46 93 100 93
q56 0 56 -50q0 -51 -32 -114q-81 -160 -256 -274q-165 -108 -480 -108q-484 0 -648 249q-86 156 -86 366q0 133 35 288z" />
    <glyph glyph-name="uni17D2179F.long" horiz-adv-x="757" 
d="M454 1l-273 -1249q-37 -175 -172 -262q-136 -88 -320 -88q-216 0 -327 100q-56 50 -75 119q-9 35 -9 74t9 82l14 70q9 50 -27 80q-37 30 -37 92t89 79q88 16 127 -32q40 -49 18 -149l-36 -165q-20 -96 38 -148q59 -52 216 -52q139 0 230 59t113 162l270 1234
q-76 11 -116 39q-66 45 -66 99q0 94 143 114q-19 -55 8 -82q16 -16 62 -22l166 778q14 65 -48 133q-63 67 -197 75q147 86 236 186t131 173q72 -108 144 -158q71 -50 142 -42l-50 -34q-51 -35 -126 -38q-75 -4 -128 58l-91 -98q85 -58 118 -130t15 -158l-159 -746
q55 8 93 28q61 31 84 107q0 -122 -41 -194q-46 -84 -168 -94z" />
    <glyph glyph-name="uni17B7.ro" 
d="M-415 2276q-32 -19 -35 -49q-3 -34 10 -46q11 -12 35 -14l465 -41q-220 156 -353 168q-83 7 -122 -18zM-553 2100q-47 39 -47 114q0 13 1 26q9 104 82 158q65 48 180 48q27 0 57 -3q99 -8 216 -78q116 -69 236 -171q116 -99 116 -149q0 -1 -1 -3q-3 -42 -77 -42
q-12 0 -27 1l-598 53q-91 8 -138 46z" />
    <glyph glyph-name="uni17B8.ro" 
d="M-416 2276q-31 -19 -34 -49q-3 -34 10 -46q11 -12 35 -14l465 -41q-220 156 -354 168q-82 7 -122 -18zM167 2199l35 164q10 49 -39 59q18 81 87 81q15 0 32 -4q74 -16 74 -104q0 -28 -8 -63l-61 -286q-6 -30 -37 -39q-23 -7 -49 -7q-9 0 -18 1l-598 52q-92 8 -138 47
q-47 39 -47 114q0 13 1 26q9 104 82 158q80 59 237 45q99 -9 216 -78q114 -67 231 -166z" />
    <glyph glyph-name="uni17B9.ro" 
d="M-415 2276q-32 -19 -35 -49q-3 -34 10 -46q11 -12 35 -14l465 -41q-220 156 -353 168q-83 7 -122 -18zM197 2384q-17 19 -54 22q-37 4 -57 -13q-21 -17 -24 -55q-3 -37 13 -57q17 -21 55 -24t59 14q19 17 22 54q4 38 -14 59zM206 2163q85 -79 81 -121q-3 -42 -77 -42
q-12 0 -27 1l-598 53q-91 8 -138 46q-47 39 -47 114q0 13 1 26q9 104 82 158q80 59 237 45q99 -8 216 -78l26 -16q9 86 56 126q39 32 106 32q14 0 28 -1q87 -8 127 -55q34 -39 34 -107q0 -13 -2 -28q-8 -86 -54 -126q-22 -18 -51 -27z" />
    <glyph glyph-name="uni17BA.ro" 
d="M-416 2276q-31 -19 -34 -49q-3 -34 10 -46q11 -12 35 -14l465 -41q-220 156 -354 168q-82 7 -122 -18zM-66 2366l16 65q13 49 -49 59q23 85 96 85q11 0 24 -2q93 -16 54 -163l-31 -115q61 -43 123 -96l35 164q10 49 -39 59q18 81 87 81q15 0 32 -4q74 -16 74 -104
q0 -28 -8 -63l-61 -286q-6 -30 -37 -39q-23 -7 -49 -7q-9 0 -18 1l-598 52q-92 8 -138 47q-47 39 -47 114q0 13 1 26q9 104 82 158q80 59 237 45q98 -9 214 -77z" />
    <glyph glyph-name="uni17C6.ro" 
d="M-340 2275q0 138 69 206q69 69 206 69q138 0 207 -69q68 -68 68 -206q0 -137 -68 -206q-69 -69 -207 -69q-137 0 -206 69t-69 206zM60 2275q0 63 -31 94t-94 31q-62 0 -93 -31q-32 -31 -32 -94q0 -62 32 -94q31 -31 93 -31q63 0 94 31q31 32 31 94z" />
    <glyph glyph-name="uni17C9.ro" 
d="M-246 2049q-29 -49 -66 -49t-45 51v14q0 71 57 356q8 37 -6 47q-14 9 -14 45q0 44 27 65q26 22 79 22t72 -37q18 -38 2 -113q-77 -352 -106 -401zM154 2049q-29 -49 -66 -49t-45 51q-8 50 57 370q8 37 -6 47q-14 9 -14 45q0 44 27 65q26 22 79 22t72 -37q10 -20 10 -51
q0 -27 -8 -62q-77 -352 -106 -401z" />
    <glyph glyph-name="uni17CD.ro" 
d="M45 1850q65 0 5 -100t-220 -100q-240 0 -240 225t250 245q64 8 134 -23q189 143 253 249q63 105 63 204q0 100 75 100t75 -100q0 -153 -91 -291q-91 -139 -278 -278q-63 -49 -121.5 -26t-109.5 15q-100 -10 -100 -95q0 -75 90 -75q110 0 130 25t85 25z" />
    <glyph glyph-name="uni17B717CD.ro" 
d="M278 1730q10 -20 10 -35q0 -1 -1 -3q-3 -42 -77 -42q-12 0 -27 1l-598 53q-91 8 -138 46q-47 39 -47 114q0 13 1 26q9 104 82 158q65 48 180 48q27 0 57 -3q99 -8 216 -78q25 -14 49 -30q33 139 222 154q59 7 123 -20q88 53 122 104q30 47 30 90q0 80 68 80q69 0 69 -80
q0 -91 -56 -167q-58 -81 -145 -130q-57 -44 -110.5 -23.5t-100.5 13.5q-91 -9 -91 -84q0 -26 13 -42q9 -7 18 -15q20 -10 51 -10q101 0 119 22.5t77 22.5t5 -89q-38 -62 -121 -81zM26 1779q-16 17 -27 39q-177 116 -292 126q-83 7 -122 -18q-32 -19 -35 -49q-3 -34 10 -46
q11 -12 35 -14z" />
    <glyph glyph-name="glyph292" horiz-adv-x="2162" 
 />
    <glyph glyph-name="glyph293" horiz-adv-x="2162" 
 />
    <glyph glyph-name="uni17D21780.ro" 
d="M-66 -212q66 -68 66 -178q0 -47 -13 -103l-49 -237q-15 -70 -91 -70q-77 0 -56 91l52 247q20 93 -35 146q-71 66 -264 66q-138 0 -210 -48q-58 -39 -73 -111l-68 -321q-16 -70 -93 -70q-60 0 -60 60q0 16 4 36l71 329q27 128 122 197q109 78 307 78q284 0 390 -112z" />
    <glyph glyph-name="glyph295" 
d="M-58 -183q58 -48 58 -125q0 -24 -6 -52q-18 -102 -379 -177l-360 -75q14 -38 216 -38q139 0 406 123q89 40 77 -29q-13 -69 -161 -156q-148 -88 -322 -88q-292 0 -350 135q-13 32 -13 58q0 31 18 55q34 46 132 69l291 53q292 53 298 93q7 40 -27 57q-61 30 -249 30
q-191 0 -266 -29q-43 -16 -50 -42q-5 -28 27 -28q33 0 23 -35q-9 -35 -61 -50q-53 -15 -102 24q-37 29 -37 80q0 16 3 34q19 82 101 129q117 67 362 67q272 0 371 -83z" />
    <glyph glyph-name="glyph296" 
d="M-806 -728l-1 -2q-16 -70 -93 -70q-60 0 -60 60q0 16 4 36l71 329q27 128 122 197q109 78 307 78q284 0 390 -112q66 -68 66 -178q0 -47 -13 -103l-49 -237q-15 -70 -91 -70q-77 0 -56 91l52 247q20 93 -35 146q-71 66 -264 66q-138 0 -210 -48q-58 -39 -73 -111
l-30 -145q113 104 170 104q97 0 159 -54t12 -111q-51 -57 -95 -21t-76 36q-47 0 -146 -79z" />
    <glyph glyph-name="glyph297" 
d="M-703 -418q9 47 -17 47q-27 0 -49 -41q-23 -41 -23 -108q0 -68 60 -99q59 -31 170 -31q138 0 225 101q86 101 123 178q36 77 59 188q19 83 94 83q61 0 61 -66q0 -19 -6 -45q-26 -121 -79 -237q-54 -117 -166 -234q-112 -118 -311 -118q-140 0 -260 65t-120 215
q0 110 67 205q66 94 161 94q190 0 167 -152q-15 -92 -90 -92t-66 47z" />
    <glyph glyph-name="glyph298" 
d="M-657 -182q0 82 79 82q71 0 71 -82q0 -97 -44 -179q-44 -83 -102 -133t-164 -106q0 -50 167 -50q200 0 305 129q-98 37 -90 122t50 132t125 47q73 0 109 -47t36 -123q0 -19 -18 -49q133 -15 133 -89q0 -4 -1 -9q-8 -82 -53.5 -87.5t-41 34t-107.5 53.5q-15 -19 -32 -39.5
t-36 -42.5q-78 -90 -173 -135q-94 -46 -206 -46q-167 0 -240.5 50t-73.5 150q0 103 67 123q66 21 115 58q50 38 88 108q37 69 37 129zM-226 -390q6 13 6 23q0 24 -40 24q-56 0 -56 -47q0 -30 62 -41q20 24 28 41z" />
    <glyph glyph-name="glyph299" 
d="M-263 -408q-7 33 -29 62q-45 61 -103 61q-84 0 -98 -52q-18 -91 95 -91q76 0 135 20zM-109 -484q-2 -12 -5 -25q-37 -161 -139 -226t-298 -65q-135 0 -218 75q-84 75 -132 75q-64 0 -75 -52q-22 -98 -75 -98q-82 0 -82 68q0 14 3 31l60 285q23 111 -15 142.5t-38 93.5
t89 79q23 4 42 4q57 0 86 -36q39 -49 18 -149l-46 -220q16 2 33 2q83 0 171 -75q87 -75 179 -75q151 0 209 37q26 17 45 44q-47 -9 -101 -9q-142 0 -207 82q-65 81 -47 168t83 140q64 53 174 53q149 0 232 -104q28 -35 43 -76q65 52 99 29q21 -14 21 -38q0 -23 -20 -56
q-38 -61 -89 -104z" />
    <glyph glyph-name="glyph300" 
d="M-280 -432q-29 4 -62 5q-75 4 -114 41q-42 42 -40 126q3 80 45 120q43 40 126 40q106 0 167 -93q43 -64 43 -152q30 -18 59 -45q56 -50 56 -91q0 -24 -19 -45q-51 -58 -108 17q-7 10 -15 18q-19 -52 -51 -101q-55 -85 -149 -161q-59 -47 -123 -47q-63 0 -162 207
q-177 -207 -250 -207q-72 0 -119 77q-41 69 -68 133q-23 56 -35 109q-10 49 -10 95q0 38 7 74q21 95 73 154q52 58 109 58q100 0 100 -100t-100 -100q-12 0 -22 2q-9 -21 -14 -43q-10 -50 3 -111q9 -39 27 -84q23 -55 60 -119q232 240 267 240t160 -235q76 67 120 136
q25 41 39 82zM-335 -294q19 -9 62 -12q-3 9 -7 16q-20 40 -45 40t-24 -28q1 -10 14 -16z" />
    <glyph glyph-name="glyph301" 
d="M-1133 -265q0 35 20 56q19 20 55 16t86 -48q353 -309 679 -309q147 0 231 82q84 81 96 138q11 57 4 68.5t-31 11.5q0 -50 -75 -50t-75 70q0 130 150 130q105 0 152 -71q31 -46 31 -112q0 -37 -10 -80q-26 -121 -149 -229q-124 -108 -324 -108q-381 0 -783 350
q-57 50 -57 85z" />
    <glyph glyph-name="glyph302" 
 />
    <glyph glyph-name="glyph303" 
d="M-765 -560l-24 -105q91 21 98 70q7 48 -74 35zM-885 -375q27 128 122 197q109 78 307 78q284 0 390 -112q66 -68 66 -178q0 -47 -13 -103l-49 -237q-15 -70 -91 -70q-77 0 -56 91l52 247q20 93 -35 146q-71 66 -264 66q-138 0 -210 -48q-58 -39 -73 -111l-5 -28
q119 6 158 -40q38 -47 22 -140q-16 -94 -127 -138q-111 -45 -197 -45q-61 0 -61 90q0 36 10 87z" />
    <glyph glyph-name="glyph304" 
d="M-846 -317q102 67 298 67h394v2q-25 6 -33 27q-9 22 -1 58t36 49q16 8 38 8q18 0 39 -5q49 -10 66 -52q9 -21 9 -51q0 -28 -8 -64l-85 -398q-15 -74 -95 -74q-75 0 -121 43l-142 134l-25 -29q-120 -148 -242 -148q-128 0 -187 57q-51 49 -51 138q0 41 10 89
q21 96 100 149zM-794 -568q19 -32 76 -32q102 0 167 76l106 111l213 -196l46 209h-362q-139 0 -202 -36q-41 -24 -50 -64q-9 -43 6 -68z" />
    <glyph glyph-name="glyph305" 
d="M-154.5 -359.5q-3.5 20.5 -26.5 61.5q-47 61 -77 61q-31 0 -206 -154q-113 154 -154 154q-44 -4 -86 -41q-44 -38 -12 -82t21.5 -78.5t-67.5 -35t-102 97.5q-11 25 -11 50q0 75 99 151q95 75 158 75q96 0 179 -117q114 117 189 117q74 0 158 -103q92 -127 92 -201
q0 -10 -2 -20q-21 -57 -269 -123l-316 -83q-54 -16 -39 -62q6 -25 50 -13l312 103q76 20 122 -3q46 -24 11 -111l-36 -88q-31 -75 -77 -75q-11 0 -23 4q-61 21 -26 113l13 39l-259 -91q-178 -52 -223 90q-55 163 135 214l143 40l167 45q166 45 162.5 65.5z" />
    <glyph glyph-name="glyph306" 
 />
    <glyph glyph-name="glyph307" 
d="M-765 -560l-24 -105q91 21 98 70q7 48 -74 35zM-885 -375q27 128 122 197q109 78 307 78q284 0 390 -112q66 -68 66 -178q0 -47 -13 -103l-49 -237q-15 -70 -91 -70q-77 0 -56 91l52 247q20 93 -35 146q-71 66 -264 66q-138 0 -210 -48q-58 -39 -73 -111l-5 -28
q119 6 158 -40q38 -47 22 -140q-16 -94 -127 -138q-111 -45 -197 -45q-61 0 -61 90q0 36 10 87z" />
    <glyph glyph-name="glyph308" 
d="M-536.5 -364.5q95.5 -41.5 50.5 -202.5q-41 -133 -209 -133q-269 0 -269 224q0 48 12 106q56 270 477 270q394 0 467 -301q8 -31 8 -55q0 -62 -48 -78q-66 -21 -92 75q-59 209 -335 209q-300 0 -331 -150q-32 -150 111 -150q54 0 67 30q29 67 -55 94q51 103 146.5 61.5z
" />
    <glyph glyph-name="glyph309" 
d="M-297 -188q19 88 96 88q76 0 53 -110q-46 -212 -442 -359q-14 -81 81 -81q157 0 361 244q68 81 100 75q48 -10 48 -75q0 -21 -6 -49l-50 -248q-23 -97 -101 -97t-56 100l21 104q-173 -204 -317 -204q-97 0 -182 87q-68 70 -68 144q0 18 3 35q18 71 69 84q357 102 390 262
z" />
    <glyph glyph-name="glyph310" 
d="M-803 -557q-2 -93 173 -93q152 0 113 170q-156 -66 -286 -77zM-245.5 -345.5q-88.5 -64.5 -179.5 -88.5l173 -75q54 -19 77 62l23 81q37 136 21 211q131 -49 131 -124q0 -53 -18 -125l-27 -99q-28 -104 -111 -136q-89 -39 -147 -2l-85 54q-9 -113 -67 -163t-175 -50
q-184 0 -253.5 68.5t-69.5 171.5v13q5 81 65 107q169 28 332.5 85t227 114t-1.5 92q3 49 64 49q60 0 87 -28q46 -36 34 -94.5t-100.5 -123z" />
    <glyph glyph-name="glyph311" 
d="M-844 -639q-66 61 -66 169t67 189t217 81h419q23 100 99 100t54 -100h344q100 0 100 -75t-100 -75h-374l-32 -150q50 0 85 -36t35 -119t-46 -114q-47 -31 -109 -31t-100 30t-53 107q-202 -37 -306 -37q-168 0 -234 61zM-730 -519q29 -31 120 -31q34 0 340 35l31 165h-387
q-75 0 -104 -31q-30 -31 -30 -69q0 -39 30 -69z" />
    <glyph glyph-name="glyph312" 
d="M-99 -700q-21 -100 -97 -100q-77 0 -150 63l-171 137l-250 -137q-100 -63 -176 -63q-60 0 -60 62q0 17 4 38l62 282q23 111 -15 157.5t-18 103.5t89 57t108 -42t18 -142l-67 -308l320 177l264 -218l50 233q14 71 -40 108q-55 37 -30 115q25 77 125 77q62 0 104 -38
q29 -25 29 -76q0 -25 -7 -56z" />
    <glyph glyph-name="glyph313" 
d="M-947 -374q25 101 134 191q99 82 165 82q100 0 147 -83l40 -67q119 150 197 150t166 -112q83 -112 96 -168q2 -9 2 -25q0 -76 -50 -294q-22 -100 -92 -100t-120 35t-35 80t63 58t72 124q18 91 -30 186q-49 66 -80 66q-32 0 -215 -190q-118 190 -161 190q-46 -4 -90 -44
q-45 -41 -68 -133l-5 -47q119 7 152 -40q34 -46 22 -121t-117 -119q-106 -45 -192 -45q-61 0 -61 90q0 36 10 87zM-831 -597l-16 -68q80 21 83 51t-67 17z" />
    <glyph glyph-name="glyph314" 
d="M-894 -417l9 42q27 128 122 197q109 78 307 78q284 0 390 -112q66 -68 66 -178q0 -47 -13 -103l-49 -237q-15 -70 -91 -70q-77 0 -56 91l52 247q20 93 -35 146q-71 66 -264 66q-138 0 -210 -48q-58 -39 -73 -111l-68 -321q-16 -70 -99 -70q-71 0 -120 90q-50 90 -50 167
q0 42 18 93q17 50 164 33z" />
    <glyph glyph-name="glyph315" 
d="M22 -460q-13 10 -42 10h-50l-6 -27q-9 -37 1 -55q9 -18 35 -18q62 0 71 52q5 26 -9 38zM-206 -638q-47 63 -17 188q-74 0 -278.5 -20t-368.5 -20q-168 0 -234 61t-66 120t65 59t105 -45q39 -45 130 -45q164 0 377 20t305 20l6 26l22 119q13 55 89 55t57 -100l-22 -100h16
q122 0 176 -55q42 -43 42 -120q0 -23 -4 -50q-25 -175 -234 -175q-120 0 -166 62z" />
    <glyph glyph-name="glyph316" 
d="M-429 -577q89 0 6 -111q-82 -112 -244 -112q-300 0 -300 241q0 230 335 253q88 9 198 -46q116 3 202.5 69.5t86.5 146.5q0 86 73 86q72 0 72 -86q0 -120 -103 -211q-103 -90 -200 -130q-97 -39 -178 -3t-151 27q-185 -11 -185 -106q0 -91 150 -91q93 0 238 73z" />
    <glyph glyph-name="glyph317" 
d="M0 -137q0 -63 -69 -198q-243 -465 -450 -465q-168 0 -250 134q-34 67 -34 129q0 29 8 57q23 87 147 126q193 67 380 184l94 58q58 36 103 36q28 0 50 -14q21 -13 21 -47zM-179 -277q-219 -138 -431 -200q-81 -21 -42 -97t133 -76q107 0 340 373z" />
    <glyph glyph-name="glyph318" 
d="M-1045 -98q73 0 52 -87l-60 -264q-25 -109 23.5 -164t139.5 -55q85 0 139 49.5t77 148.5l26 114q31 131 119 194.5t215 63.5q97 0 151.5 -32.5t96.5 -82t59 -135.5q7 -33 7 -70q0 -58 -16 -127l-37 -167q-21 -88 -88 -88q-66 0 -114 31t-33 70q14 40 60 51
q45 12 67.5 111t12.5 154q-8 56 -43.5 105t-122.5 49q-83 0 -130 -38.5t-62 -107.5l-29 -117q-35 -154 -128.5 -231t-226.5 -77q-143 0 -244 97q-72 70 -72 180q0 45 11 96l58 247q19 82 92 82z" />
    <glyph glyph-name="glyph319" 
d="M-827 -528l-36 -166q-23 -106 -81 -106t-114 62q-45 50 -45 101q0 11 2 23q13 62 110 41l42 196l-88 70q103 71 189 215q91 -140 217 -141q-98 -107 -232 -26l-31 -35q103 -61 90 -125v-1h536l9 43l-87 70q102 71 188 215q52 -114 158 -141q-78 -90 -173 -26l-30 -35
q102 -61 89 -125l-59 -275q-23 -106 -80 -106q-58 0 -103 40.5t-36.5 103t91.5 83.5l10 45h-536z" />
    <glyph glyph-name="uni17D21780.lig" 
d="M-1106 -212q66 -68 66 -178q0 -47 -13 -103l-49 -237q-15 -70 -91 -70q-77 0 -56 91l52 247q20 93 -35 146q-71 66 -264 66q-138 0 -210 -48q-58 -39 -73 -111l-68 -321q-16 -70 -93 -70q-60 0 -60 60q0 16 4 36l71 329q27 128 122 197q109 78 307 78q284 0 390 -112z
" />
    <glyph glyph-name="glyph321" 
d="M-1163 -183q58 -48 58 -125q0 -24 -6 -52q-18 -102 -379 -177l-360 -75q14 -38 216 -38q139 0 406 123q89 40 77 -29q-13 -69 -161 -156q-148 -88 -322 -88q-292 0 -350 135q-13 32 -13 58q0 31 18 55q34 46 132 69l291 53q292 53 298 93q7 40 -27 57q-61 30 -249 30
q-191 0 -266 -29q-43 -16 -50 -42q-5 -28 27 -28q33 0 23 -35q-9 -35 -61 -50q-53 -15 -102 24q-37 29 -37 80q0 16 3 34q19 82 101 129q117 67 362 67q272 0 371 -83z" />
    <glyph glyph-name="glyph322" 
d="M-1846 -728l-1 -2q-16 -70 -93 -70q-60 0 -60 60q0 16 4 36l71 329q27 128 122 197q109 78 307 78q284 0 390 -112q66 -68 66 -178q0 -47 -13 -103l-49 -237q-15 -70 -91 -70q-77 0 -56 91l52 247q20 93 -35 146q-71 66 -264 66q-138 0 -210 -48q-58 -39 -73 -111
l-30 -145q113 104 170 104q97 0 159 -54t12 -111q-51 -57 -95 -21t-76 36q-47 0 -146 -79z" />
    <glyph glyph-name="glyph323" 
d="M-1761 -418q9 47 -17 47q-27 0 -49 -41q-23 -41 -23 -108q0 -68 60 -99q59 -31 170 -31q138 0 225 101q86 101 123 178q36 77 59 188q19 83 94 83q61 0 61 -66q0 -19 -6 -45q-26 -121 -79 -237q-54 -117 -166 -234q-112 -118 -311 -118q-140 0 -260 65t-120 215
q0 110 67 205q66 94 161 94q190 0 167 -152q-15 -92 -90 -92t-66 47z" />
    <glyph glyph-name="glyph324" 
d="M-1693 -182q0 82 79 82q71 0 71 -82q0 -97 -44 -179q-44 -83 -102 -133t-164 -106q0 -50 167 -50q200 0 305 129q-98 37 -90 122t50 132t125 47q73 0 109 -47t36 -123q0 -19 -18 -49q133 -15 133 -89q0 -4 -1 -9q-8 -82 -53.5 -87.5t-41 34t-107.5 53.5
q-15 -19 -32 -39.5t-36 -42.5q-78 -90 -173 -135q-94 -46 -206 -46q-167 0 -240.5 50t-73.5 150q0 103 67 123q66 21 115 58q50 38 88 108q37 69 37 129zM-1262 -390q6 13 6 23q0 24 -40 24q-56 0 -56 -47q0 -30 62 -41q20 24 28 41z" />
    <glyph glyph-name="glyph325" 
d="M-1130 -408q-7 33 -29 62q-45 61 -103 61q-84 0 -98 -52q-18 -91 95 -91q76 0 135 20zM-976 -484q-2 -12 -5 -25q-37 -161 -139 -226t-298 -65q-135 0 -218 75q-84 75 -132 75q-64 0 -75 -52q-22 -98 -75 -98q-82 0 -82 68q0 14 3 31l60 285q23 111 -15 142.5t-38 93.5
t89 79q23 4 42 4q57 0 86 -36q39 -49 18 -149l-46 -220q16 2 33 2q83 0 171 -75q87 -75 179 -75q151 0 209 37q26 17 45 44q-47 -9 -101 -9q-142 0 -207 82q-65 81 -47 168t83 140q64 53 174 53q149 0 232 -104q28 -35 43 -76q65 52 99 29q21 -14 21 -38q0 -23 -20 -56
q-38 -61 -89 -104z" />
    <glyph glyph-name="glyph326" 
d="M-1171 -432q-29 4 -62 5q-75 4 -114 41q-42 42 -40 126q3 80 45 120q43 40 126 40q106 0 167 -93q43 -64 43 -152q30 -18 59 -45q56 -50 56 -91q0 -24 -19 -45q-51 -58 -108 17q-7 10 -15 18q-19 -52 -51 -101q-55 -85 -149 -161q-59 -47 -123 -47q-63 0 -162 207
q-177 -207 -250 -207q-72 0 -119 77q-41 69 -68 133q-23 56 -35 109q-10 49 -10 95q0 38 7 74q21 95 73 154q52 58 109 58q100 0 100 -100t-100 -100q-12 0 -22 2q-9 -21 -14 -43q-10 -50 3 -111q9 -39 27 -84q23 -55 60 -119q232 240 267 240t160 -235q76 67 120 136
q25 41 39 82zM-1226 -294q19 -9 62 -12q-3 9 -7 16q-20 40 -45 40t-24 -28q1 -10 14 -16z" />
    <glyph glyph-name="glyph327" 
d="M-2363 -265q0 35 20 56q19 20 55 16t86 -48q353 -309 679 -309q147 0 231 82q84 81 96 138q11 57 4 68.5t-31 11.5q0 -50 -75 -50t-75 70q0 130 150 130q105 0 152 -71q31 -46 31 -112q0 -37 -10 -80q-26 -121 -149 -229q-124 -108 -324 -108q-381 0 -783 350
q-57 50 -57 85z" />
    <glyph glyph-name="glyph328" 
d="M-1805 -560l-24 -105q91 21 98 70q7 48 -74 35zM-1925 -375q27 128 122 197q109 78 307 78q284 0 390 -112q66 -68 66 -178q0 -47 -13 -103l-49 -237q-15 -70 -91 -70q-77 0 -56 91l52 247q20 93 -35 146q-71 66 -264 66q-138 0 -210 -48q-58 -39 -73 -111l-5 -28
q119 6 158 -40q38 -47 22 -140q-16 -94 -127 -138q-111 -45 -197 -45q-61 0 -61 90q0 36 10 87z" />
    <glyph glyph-name="glyph329" 
d="M-1890 -317q102 67 298 67h394v2q-25 6 -33 27q-9 22 -1 58t36 49q16 8 38 8q18 0 39 -5q49 -10 66 -52q9 -21 9 -51q0 -28 -8 -64l-85 -398q-15 -74 -95 -74q-75 0 -121 43l-142 134l-25 -29q-120 -148 -242 -148q-128 0 -187 57q-51 49 -51 138q0 41 10 89
q21 96 100 149zM-1838 -568q19 -32 76 -32q102 0 167 76l106 111l213 -196l46 209h-362q-139 0 -202 -36q-41 -24 -50 -64q-9 -43 6 -68z" />
    <glyph glyph-name="glyph330" 
d="M-1279.5 -359.5q-3.5 20.5 -26.5 61.5q-47 61 -77 61q-31 0 -206 -154q-113 154 -154 154q-44 -4 -86 -41q-44 -38 -12 -82t21.5 -78.5t-67.5 -35t-102 97.5q-11 25 -11 50q0 75 99 151q95 75 158 75q96 0 179 -117q114 117 189 117q74 0 158 -103q92 -127 92 -201
q0 -10 -2 -20q-21 -57 -269 -123l-316 -83q-54 -16 -39 -62q6 -25 50 -13l312 103q76 20 122 -3q46 -24 11 -111l-36 -88q-31 -75 -77 -75q-11 0 -23 4q-61 21 -26 113l13 39l-259 -91q-178 -52 -223 90q-55 163 135 214l143 40l167 45q166 45 162.5 65.5z" />
    <glyph glyph-name="glyph331" 
d="M-1816 -560l-24 -105q91 21 98 70q7 48 -74 35zM-1936 -375q27 128 122 197q109 78 307 78q284 0 390 -112q66 -68 66 -178q0 -47 -13 -103l-49 -237q-15 -70 -91 -70q-77 0 -56 91l52 247q20 93 -35 146q-71 66 -264 66q-138 0 -210 -48q-58 -39 -73 -111l-5 -28
q119 6 158 -40q38 -47 22 -140q-16 -94 -127 -138q-111 -45 -197 -45q-61 0 -61 90q0 36 10 87z" />
    <glyph glyph-name="glyph332" 
d="M-1572.5 -364.5q95.5 -41.5 50.5 -202.5q-41 -133 -209 -133q-269 0 -269 224q0 48 12 106q56 270 477 270q394 0 467 -301q8 -31 8 -55q0 -62 -48 -78q-66 -21 -92 75q-59 209 -335 209q-300 0 -331 -150q-32 -150 111 -150q54 0 67 30q29 67 -55 94q51 103 146.5 61.5z
" />
    <glyph glyph-name="glyph333" 
d="M-1538 -188q19 88 96 88q76 0 53 -110q-46 -212 -442 -359q-14 -81 81 -81q157 0 361 244q68 81 100 75q48 -10 48 -75q0 -21 -6 -49l-50 -248q-23 -97 -101 -97t-56 100l21 104q-173 -204 -317 -204q-97 0 -182 87q-68 70 -68 144q0 18 3 35q18 71 69 84
q357 102 390 262z" />
    <glyph glyph-name="glyph334" 
d="M-1850 -557q-2 -93 173 -93q152 0 113 170q-156 -66 -286 -77zM-1292.5 -345.5q-88.5 -64.5 -179.5 -88.5l173 -75q54 -19 77 62l23 81q37 136 21 211q131 -49 131 -124q0 -53 -18 -125l-27 -99q-28 -104 -111 -136q-89 -39 -147 -2l-85 54q-9 -113 -67 -163t-175 -50
q-184 0 -253.5 68.5t-69.5 171.5v13q5 81 65 107q169 28 332.5 85t227 114t-1.5 92q3 49 64 49q60 0 87 -28q46 -36 34 -94.5t-100.5 -123z" />
    <glyph glyph-name="glyph335" 
d="M-1934 -639q-66 61 -66 169t67 189t217 81h419q23 100 99 100t54 -100h344q100 0 100 -75t-100 -75h-374l-32 -150q50 0 85 -36t35 -119t-46 -114q-47 -31 -109 -31t-100 30t-53 107q-202 -37 -306 -37q-168 0 -234 61zM-1820 -519q29 -31 120 -31q34 0 340 35l31 165
h-387q-75 0 -104 -31q-30 -31 -30 -69q0 -39 30 -69z" />
    <glyph glyph-name="glyph336" 
d="M-1096 -700q-21 -100 -97 -100q-77 0 -150 63l-171 137l-250 -137q-100 -63 -176 -63q-60 0 -60 62q0 17 4 38l62 282q23 111 -15 157.5t-18 103.5t89 57t108 -42t18 -142l-67 -308l320 177l264 -218l50 233q14 71 -40 108q-55 37 -30 115q25 77 125 77q62 0 104 -38
q29 -25 29 -76q0 -25 -7 -56z" />
    <glyph glyph-name="glyph337" 
d="M-1940 -374q25 101 134 191q99 82 165 82q100 0 147 -83l40 -67q119 150 197 150t166 -112q83 -112 96 -168q2 -9 2 -25q0 -76 -50 -294q-22 -100 -92 -100t-120 35t-35 80t63 58t72 124q18 91 -30 186q-49 66 -80 66q-32 0 -215 -190q-118 190 -161 190q-46 -4 -90 -44
q-45 -41 -68 -133l-5 -47q119 7 152 -40q34 -46 22 -121t-117 -119q-106 -45 -192 -45q-61 0 -61 90q0 36 10 87zM-1824 -597l-16 -68q80 21 83 51t-67 17z" />
    <glyph glyph-name="glyph338" 
d="M-1934 -417l9 42q27 128 122 197q109 78 307 78q284 0 390 -112q66 -68 66 -178q0 -47 -13 -103l-49 -237q-15 -70 -91 -70q-77 0 -56 91l52 247q20 93 -35 146q-71 66 -264 66q-138 0 -210 -48q-58 -39 -73 -111l-68 -321q-16 -70 -99 -70q-71 0 -120 90q-50 90 -50 167
q0 42 18 93q17 50 164 33z" />
    <glyph glyph-name="glyph339" 
d="M-1028 -460q-13 10 -42 10h-50l-6 -27q-9 -37 1 -55q9 -18 35 -18q62 0 71 52q5 26 -9 38zM-1256 -638q-47 63 -17 188q-74 0 -278.5 -20t-368.5 -20q-168 0 -234 61t-66 120t65 59t105 -45q39 -45 130 -45q164 0 377 20t305 20l6 26l22 119q13 55 89 55t57 -100
l-22 -100h16q122 0 176 -55q42 -43 42 -120q0 -23 -4 -50q-25 -175 -234 -175q-120 0 -166 62z" />
    <glyph glyph-name="glyph340" 
d="M-1462 -577q89 0 6 -111q-82 -112 -244 -112q-300 0 -300 241q0 230 335 253q88 9 198 -46q116 3 202.5 69.5t86.5 146.5q0 86 73 86q72 0 72 -86q0 -120 -103 -211q-103 -90 -200 -130q-97 -39 -178 -3t-151 27q-185 -11 -185 -106q0 -91 150 -91q93 0 238 73z" />
    <glyph glyph-name="glyph341" 
d="M-1197 -137q0 -63 -69 -198q-243 -465 -450 -465q-168 0 -250 134q-34 67 -34 129q0 29 8 57q23 87 147 126q193 67 380 184l94 58q58 36 103 36q28 0 50 -14q21 -13 21 -47zM-1376 -277q-219 -138 -431 -200q-81 -21 -42 -97t133 -76q107 0 340 373z" />
    <glyph glyph-name="glyph342" 
d="M-1839 -98q73 0 52 -87l-60 -264q-25 -109 23.5 -164t139.5 -55q85 0 139 49.5t77 148.5l26 114q31 131 119 194.5t215 63.5q97 0 151.5 -32.5t96.5 -82t59 -135.5q7 -33 7 -70q0 -58 -16 -127l-37 -167q-21 -88 -88 -88q-66 0 -114 31t-33 70q14 40 60 51
q45 12 67.5 111t12.5 154q-8 56 -43.5 105t-122.5 49q-83 0 -130 -38.5t-62 -107.5l-29 -117q-35 -154 -128.5 -231t-226.5 -77q-143 0 -244 97q-72 70 -72 180q0 45 11 96l58 247q19 82 92 82z" />
    <glyph glyph-name="glyph343" 
d="M-1724 -528l-36 -166q-23 -106 -81 -106t-114 62q-45 50 -45 101q0 11 2 23q13 62 110 41l42 196l-88 70q103 71 189 215q91 -140 217 -141q-98 -107 -232 -26l-31 -35q103 -61 90 -125v-1h536l9 43l-87 70q102 71 188 215q52 -114 158 -141q-78 -90 -173 -26l-30 -35
q102 -61 89 -125l-59 -275q-23 -106 -80 -106q-58 0 -103 40.5t-36.5 103t91.5 83.5l10 45h-536z" />
    <glyph glyph-name="uni17C9.lig" 
d="M-1346 1699q-29 -49 -66 -49t-45 51v14q0 71 57 356q8 37 -6 47q-14 9 -14 45q0 44 27 65q26 22 79 22t72 -37q18 -38 2 -113q-77 -352 -106 -401zM-946 1699q-29 -49 -66 -49t-45 51q-8 50 57 370q8 37 -6 47q-14 9 -14 45q0 44 27 65q26 22 79 22t72 -37q10 -20 10 -51
q0 -27 -8 -62q-77 -352 -106 -401z" />
    <glyph glyph-name="glyph345" 
d="M-1667 1713q-63 -53 -147 -53q-18 0 -38 2l-108 14q204 113 291.5 182.5t129.5 122.5q43 52 70 52t108 -91l79 -91l103 91l51 46q50 45 80 45q31 0 58 -49t98 -127q72 -78 127 -124t55 -69q0 -14 -28 -14q-16 0 -44 5q-71 13 -180 86q-108 73 -142 126l-221 -195
l-160 183z" />
    <glyph glyph-name="uni17C4.adobe" horiz-adv-x="749" 
d="M172 1335q-372 -214 -403 -158q1 75 428 323l370 -253q65 -44 84 -92t21 -82v-16q0 -27 -5 -56l-191 -901q-22 -100 -93 -100q-70 0 -120 35t-35 80t63 58q49 13 73 124l152 718q16 75 -30 106z" />
    <glyph glyph-name="uni17C5.adobe" horiz-adv-x="749" 
d="M-218 1167l-13 19q24 80 427 314l370 -253q65 -44 84 -92q3 -7 5 -14l67 308q32 150 19 260q-10 87 -47 149q-86 140 -56 157q3 2 7 2q36 0 147 -130q50 -59 70 -152q14 -63 14 -142q0 -92 -19 -205l-29 -177q-30 -177 -74 -188q-33 -8 -85 1q-1 -11 -3 -23l-191 -901
q-22 -100 -93 -100q-70 0 -120 35t-35 80t63 58q49 13 73 124l152 718q16 75 -30 106l-314 214q-323 -186 -389 -168z" />
    <glyph glyph-name="glyph348" horiz-adv-x="2400" 
d="M1385 802q27 -55 13 -123l-135 -629q-10 -50 -63 -50q-86 0 -86 56q0 9 2 19l133 625q9 43 -15.5 78.5t-93.5 35.5q0 27 36 51q103 68 234 101q131 34 290 34q152 0 260 -32t171 -97q64 -64 82 -161q18 -96 -10 -225l-92 -435q-11 -50 -61 -50q-103 0 -87 75l93 444
q19 88 9 151q-9 64 -48 102q-76 78 -317 78q-179 0 -315 -48zM1472 1048q-57 33 -121 55q-65 23 -133 31l-68 9q204 113 291.5 182.5t129.5 122.5q43 52 70 52t108 -91l79 -91l103 91l51 46q50 45 80 45q31 0 58 -49t98 -127q72 -78 127 -124t55 -69t-72 -9q-71 13 -180 86
q-108 73 -142 126l-221 -195l-160 183l-182 -142l61 -58q60 -59 42 -83q-17 -24 -74 9zM560 498q19 2 40 2q54 0 101 -56q46 -57 20 -150q-27 -93 -124 -193q-97 -101 -150 -101t-89 50q-22 31 -22 81q0 31 8 69l256 1200q21 100 97 100q75 0 82 -61t59 -141q51 -81 97 -122
q45 -41 45 -91q-22 -35 -85 -3q-63 31 -122 84l-59 52z" />
    <glyph glyph-name="glyph349" horiz-adv-x="2340" 
d="M1324 262q44 -39 100 -75q55 -37 136 -37q100 0 240 142q199 205 290 328t103 115q12 -9 0 -65t-65 -183q-54 -128 -229 -311q-178 -176 -339 -176q-128 0 -255 84t-148 147q-2 5 -2 13q0 19 8 53q10 49 77 93l645 384q101 59 159 125q58 67 74 142q17 78 2 136t-61 96
q-92 77 -269 77q-130 0 -205 -49t-96 -147q-15 -77 8 -115q23 -39 85 -39q71 0 23 31q-49 31 -16 109q33 77 140 43q106 -35 67 -184q-40 -149 -214 -149q-154 0 -214 83q-60 82 -26 247q34 160 146 240t302 80q115 0 224 -30q110 -31 174 -92t83 -152q8 -39 8 -83
q0 -61 -15 -131q-22 -107 -100 -200q-77 -93 -209 -172zM560 498q19 2 40 2q54 0 101 -56q46 -57 20 -150q-27 -93 -124 -193q-97 -101 -150 -101t-89 50q-22 31 -22 81q0 31 8 69l256 1200q21 100 97 100q75 0 82 -61t59 -141q51 -81 97 -122q45 -41 45 -91q-22 -35 -85 -3
q-63 31 -122 84l-59 52z" />
    <glyph glyph-name="glyph350" horiz-adv-x="2400" 
d="M1472 1048q-57 33 -121 55q-65 23 -133 31l-68 9q204 113 291.5 182.5t129.5 122.5q43 52 70 52t108 -91l79 -91l103 91l51 46q50 45 80 45q31 0 58 -49t98 -127q72 -78 127 -124t55 -69t-72 -9q-71 13 -180 86q-108 73 -142 126l-221 -195l-160 183l-182 -142l61 -58
q60 -59 42 -83q-17 -24 -74 9zM1200 0q-86 0 -86 56q0 9 2 19l133 625q32 150 144 225q113 75 307 75q152 0 260 -32t171 -97q64 -64 82 -161q18 -96 -10 -225l-81 -385q-22 -100 -92 -100t-120 35t-35 80t63 58t72 124l46 222q19 88 9 151q-9 64 -48 102q-76 78 -317 78
q-147 0 -217 -46q-69 -47 -85 -125l-76 -353q158 174 278 174q150 0 150 -100t-150 -100q0 50 -27 50t-159 -146l-132 -147q-49 -57 -82 -57zM560 498q19 2 40 2q54 0 101 -56q46 -57 20 -150q-27 -93 -124 -193q-97 -101 -150 -101t-89 50q-22 31 -22 81q0 31 8 69
l256 1200q21 100 97 100q75 0 82 -61t59 -141q51 -81 97 -122q45 -41 45 -91q-22 -35 -85 -3q-63 31 -122 84l-59 52z" />
    <glyph glyph-name="glyph351" horiz-adv-x="3050" 
d="M1369 1266q18 84 -39 84q-87 0 -108 -100q-10 -47 20 -72q31 -25 103 -28zM2106 31q-96 32 -144 95q-61 -63 -152 -95q-90 -31 -210 -31q-250 0 -355 94t-66 281l134 626q-147 10 -206 84q-40 49 -40 127q0 38 10 83q22 103 85 154t168 51q121 0 168 -63t20 -190
l-191 -897q-20 -100 48 -150t225 -50q133 0 214 51q80 52 108 155l123 577q14 65 -48 133q-63 67 -197 75q147 86 236 186t131 173q72 -108 153 -154q80 -46 180 -6q-86 -107 -192 -111q-106 -5 -159 57l-91 -98q85 -58 118 -130t15 -158l-117 -550q-20 -100 48 -150
t225 -50q139 0 221 56q82 57 106 169l118 558q14 65 -48 133q-63 67 -197 75q147 86 236 186t131 173q72 -108 144 -158q71 -50 142 -42l-50 -34q-51 -35 -126 -38q-75 -4 -128 58l-91 -98q85 -58 118 -130t15 -158l-117 -550q-37 -175 -155 -262q-119 -88 -319 -88
q-145 0 -241 31zM560 498q19 2 40 2q54 0 101 -56q46 -57 20 -150q-27 -93 -124 -193q-97 -101 -150 -101t-89 50q-22 31 -22 81q0 31 8 69l256 1200q21 100 97 100q75 0 82 -61t59 -141q51 -81 97 -122q45 -41 45 -91q-22 -35 -85 -3q-63 31 -122 84l-59 52z" />
    <glyph glyph-name="glyph352" horiz-adv-x="2402" 
d="M1914 1256q117 13 127 59q14 65 -61 65q-60 0 -73 -40t7 -84zM1873 1102q-34 -2 -73 -2q-233 0 -331 88q-97 88 -60 263q27 126 134 215q107 90 339 137q192 46 270 111t97 154q11 43 34 61q17 12 39 12q11 0 22 -2q37 -7 50 -33q8 -14 8 -34q0 -15 -5 -34
q-29 -134 -135 -227q-106 -92 -345 -150q-185 -36 -264 -98q-79 -61 -97 -143q-17 -80 36 -122q53 -43 175 -47q-17 76 8 156q29 93 205 93q119 0 166 -56t21 -169q-18 -78 -94 -122q109 -58 156 -178q50 -131 25 -250l-133 -625q-21 -100 -97 -100q-77 0 -150 63l-221 187
l-300 -187q-100 -63 -176 -63q-60 0 -60 62q0 17 4 38l138 647q11 53 -39 78t-35 100t115 75q76 0 110 -54q33 -54 -3 -225l-109 -513l370 227l314 -268l124 583q12 60 -19 157t-156 161q-32 16 -58 34zM560 498q19 2 40 2q54 0 101 -56q46 -57 20 -150q-27 -93 -124 -193
q-97 -101 -150 -101t-89 50q-22 31 -22 81q0 31 8 69l256 1200q21 100 97 100q75 0 82 -61t59 -141q51 -81 97 -122q45 -41 45 -91q-22 -35 -85 -3q-63 31 -122 84l-59 52z" />
    <glyph glyph-name="glyph353" horiz-adv-x="2400" 
d="M1472 1048q-57 33 -121 55q-65 23 -133 31l-68 9q204 113 291.5 182.5t129.5 122.5q43 52 70 52t108 -91l79 -91l103 91l51 46q50 45 80 45q31 0 58 -49t98 -127q72 -78 127 -124t55 -69t-72 -9q-71 13 -180 86q-108 73 -142 126l-221 -195l-160 183l-182 -142l61 -58
q60 -59 42 -83q-17 -24 -74 9zM1328 350q-20 -96 38 -148q59 -52 266 -52q189 0 280 59t113 162l70 329q-95 50 -95 125t40 125t110 50q82 0 117 -25q35 -26 24 -77l-117 -548q-37 -175 -172 -262q-136 -88 -370 -88q-266 0 -377 100q-56 50 -75 119q-18 69 0 156l73 342
q23 111 -15 142.5t-38 93.5t89 79q89 16 128 -32q39 -49 18 -149zM560 498q19 2 40 2q54 0 101 -56q46 -57 20 -150q-27 -93 -124 -193q-97 -101 -150 -101t-89 50q-22 31 -22 81q0 31 8 69l256 1200q21 100 97 100q75 0 82 -61t59 -141q51 -81 97 -122q45 -41 45 -91
q-22 -35 -85 -3q-63 31 -122 84l-59 52z" />
    <glyph glyph-name="glyph354" horiz-adv-x="2400" 
d="M1472 1048q-57 33 -121 55q-65 23 -133 31l-68 9q204 113 291.5 182.5t129.5 122.5q43 52 70 52t108 -91l79 -91l103 91l51 46q50 45 80 45q31 0 58 -49t98 -127q72 -78 127 -124t55 -69t-72 -9q-71 13 -180 86q-108 73 -142 126l-221 -195l-160 183l-182 -142l61 -58
q60 -59 42 -83q-17 -24 -74 9zM1750 483q19 -21 67 -21q75 0 75 -75t-75 -75q-142 0 -196 69q-52 66 -25 196q25 114 96 170q68 53 178 53q189 0 267 -100q88 -113 37 -350q-37 -175 -172 -262q-136 -88 -272 -88q-145 0 -243 75q-99 75 -137 75q-64 0 -75 -52
q-22 -98 -75 -98q-83 0 -83 68q0 14 4 31l132 618q23 111 -15 142.5t-38 93.5t89 79q89 16 128 -32q39 -49 18 -149l-118 -553q16 2 33 2q83 0 214 -112q44 -38 166 -38q91 0 182 59t113 162q33 152 -16 221q-41 58 -139 58q-49 0 -81 -25q-35 -28 -48 -88q-8 -36 9 -54z
M560 498q19 2 40 2q54 0 101 -56q46 -57 20 -150q-27 -93 -124 -193q-97 -101 -150 -101t-89 50q-22 31 -22 81q0 31 8 69l256 1200q21 100 97 100q75 0 82 -61t59 -141q51 -81 97 -122q45 -41 45 -91q-22 -35 -85 -3q-63 31 -122 84l-59 52z" />
    <glyph glyph-name="glyph355" horiz-adv-x="2400" 
d="M1472 1048q-57 33 -121 55q-65 23 -133 31l-68 9q204 113 291.5 182.5t129.5 122.5q43 52 70 52t108 -91q48 -54 110 -82q63 -27 141 -27q111 0 191 94q80 93 131 280q17 63 40 89q19 21 40 21q7 0 14 -2q31 -9 39 -42q4 -13 4 -30q0 -26 -9 -61q-54 -250 -167 -374
q-112 -125 -283 -125q-112 0 -206 43t-159 117l-175 -146l44 -42q60 -59 42 -83q-17 -24 -74 9zM1298 208l370 227l314 -268l140 657q12 60 -5 85t-17 58t50 33t98 -41q47 -41 22 -160l-149 -699q-21 -100 -97 -100q-77 0 -150 63l-221 187l-300 -187q-100 -63 -176 -63
q-60 0 -60 62q0 17 4 38l132 617q23 111 -15 142.5t-38 93.5t89 79q89 16 128 -32q39 -49 18 -149zM560 498q19 2 40 2q54 0 101 -56q46 -57 20 -150q-27 -93 -124 -193q-97 -101 -150 -101t-89 50q-22 31 -22 81q0 31 8 69l256 1200q21 100 97 100q75 0 82 -61t59 -141
q51 -81 97 -122q45 -41 45 -91q-22 -35 -85 -3q-63 31 -122 84l-59 52z" />
    <glyph glyph-name="glyph356" horiz-adv-x="3798" 
d="M2064 1019q19 88 9 151q-9 64 -48 102q-76 78 -247 78q-117 0 -187 -46q-69 -47 -85 -125l-146 -681q19 2 40 2q54 0 101 -56q46 -57 20 -150q-27 -93 -124 -193q-97 -101 -150 -101t-89 50q-22 31 -22 81q0 31 8 69l213 1000q32 150 144 225q113 75 277 75q82 0 190 -32
t171 -97q64 -64 82 -161q18 -96 -10 -225l-136 -635q-20 -100 48 -150t225 -50q133 0 214 51q80 52 108 155l123 577q14 65 -48 133q-63 67 -197 75q147 86 236 186t131 173q72 -108 153 -154q80 -46 180 -6q-86 -107 -192 -111q-106 -5 -159 57l-91 -98q85 -58 118 -130
t15 -158l-117 -550q-20 -100 48 -150t225 -50q139 0 221 56q82 57 106 169l118 558q14 65 -48 133q-63 67 -197 75q147 86 236 186t131 173q72 -108 144 -158q71 -50 142 -42l-50 -34q-51 -35 -126 -38q-75 -4 -128 58l-91 -98q85 -58 118 -130t15 -158l-117 -550
q-37 -175 -155 -262q-119 -88 -319 -88q-145 0 -241 31q-96 32 -144 95q-61 -63 -152 -95q-90 -31 -210 -31q-250 0 -355 94t-66 281zM560 498q19 2 40 2q54 0 101 -56q46 -57 20 -150q-27 -93 -124 -193q-97 -101 -150 -101t-89 50q-22 31 -22 81q0 31 8 69l256 1200
q21 100 97 100q75 0 82 -61t59 -141q51 -81 97 -122q45 -41 45 -91q-22 -35 -85 -3q-63 31 -122 84l-59 52z" />
    <glyph glyph-name="glyph357" horiz-adv-x="3350" 
d="M1286 150q89 0 167 68q77 67 103 184q15 66 -13 82t-92 16q-91 0 -108 -79zM2413 1050q-3 -74 -23 -160l-168 -790q-22 -100 -92 -100t-120 35t-35 80t63 58t72 124l131 617q30 130 24 217q-5 87 -46 131q-82 88 -113 88q-32 0 -134 -125l-102 -125l-63 125
q-64 125 -91 125t-120 -93q-94 -94 -128 -251l-78 -370q30 14 61 14q104 0 148 -25q132 -77 104 -243q-33 -179 -161 -280q-128 -102 -256 -102q-93 0 -129 50q-22 31 -22 82q0 31 8 68l176 836q43 201 179 333l68 65q68 66 151 66t130 -83l47 -84q71 81 122 127
q50 47 113 47t197 -154q36 -41 57 -93q72 120 164 180t253 60q310 0 410 -140q51 -69 61 -174q3 -26 3 -55q0 -85 -23 -190l-179 -841q-22 -100 -92 -100t-120 35t-35 80t63 58t72 124l144 674q40 190 -23 284q-64 95 -281 95q-150 0 -235 -75q-84 -75 -152 -225zM1150 -265
q0 35 20 56q19 20 55 16t86 -48q353 -309 790 -309q436 0 575 82q139 81 151 138q11 57 4 68.5t-31 11.5q0 -50 -75 -50t-75 70q0 130 150 130q105 0 152 -71q47 -72 21 -192q-26 -121 -209 -229q-184 -108 -669 -108q-486 0 -888 350q-57 50 -57 85zM560 498q19 2 40 2
q54 0 101 -56q46 -57 20 -150q-27 -93 -124 -193q-97 -101 -150 -101t-89 50q-22 31 -22 81q0 31 8 69l256 1200q21 100 97 100q75 0 82 -61t59 -141q51 -81 97 -122q45 -41 45 -91q-22 -35 -85 -3q-63 31 -122 84l-59 52z" />
    <glyph glyph-name="glyph358" horiz-adv-x="2399" 
d="M1298 208l370 227l314 -268l140 657q12 60 -5 85t-17 58t50 33t98 -41q47 -41 22 -160l-149 -699q-21 -100 -97 -100q-77 0 -150 63l-221 187l-300 -187q-100 -63 -176 -63q-60 0 -60 62q0 17 4 38l132 617q23 111 -15 142.5t-38 93.5t89 79q89 16 128 -32
q39 -49 18 -149zM2440 1600q-18 -81 -69 -184q-46 -94 -112 -166q-59 -64 -159 -100q-136 -50 -350 -50q-231 0 -333 69q-101 70 -73 208q27 123 182 123q114 0 114 -100t-78 -100q-77 0 -68 50q-11 -50 53 -75t203 -25q180 0 291 40q81 29 125 79q50 56 88 128
q41 79 76 180q35 100 82 100q46 0 46 -48t-18 -129zM560 498q19 2 40 2q54 0 101 -56q46 -57 20 -150q-27 -93 -124 -193q-97 -101 -150 -101t-89 50q-22 31 -22 81q0 31 8 69l256 1200q21 100 97 100q75 0 82 -61t59 -141q51 -81 97 -122q45 -41 45 -91q-22 -35 -85 -3
q-63 31 -122 84l-59 52z" />
    <glyph glyph-name="glyph359" horiz-adv-x="2400" 
d="M1355 1200q-95 50 -95 125t40 125t110 50q72 0 109 -38q38 -37 22 -110l-202 -952q-26 -125 45 -187q71 -63 266 -63q200 0 276 56q77 57 101 169l118 558q14 65 -48 133q-63 67 -197 75q112 58 181 148.5t109 210.5q114 -141 172 -140q58 0 58 160q0 183 -73 307
q-74 123 -40 123q33 0 138 -125t105 -375q0 -100 -54 -159q-54 -60 -129 -63q-115 -4 -168 58l-51 -88q95 -68 128 -140t15 -158l-117 -550q-37 -175 -155 -262q-119 -88 -369 -88t-376 110q-95 82 -95 217q0 46 11 98zM560 498q19 2 40 2q54 0 101 -56q46 -57 20 -150
q-27 -93 -124 -193q-97 -101 -150 -101t-89 50q-22 31 -22 81q0 31 8 69l256 1200q21 100 97 100q75 0 82 -61t59 -141q51 -81 97 -122q45 -41 45 -91q-22 -35 -85 -3q-63 31 -122 84l-59 52z" />
    <glyph glyph-name="glyph360" horiz-adv-x="2400" 
d="M2228 832q-82 -104 -232 -192l-629 -388l9 -24q25 -78 134 -78q77 0 275 135l260 176q18 89 95 89t42 -164l-105 -492q-20 -94 -97 -94t-52 114l73 339l-121 -84q-240 -169 -370 -169q-108 0 -176 42t-96 126l-21 63q-2 5 -2 13q0 19 8 53q10 49 77 93l636 384
q110 65 170 141q48 60 63 126q10 50 -3 111q-19 89 -87 203q-232 -240 -267 -240t-160 235q-136 -119 -167 -247q-12 -74 8 -113q20 -40 45 -40t40 28q14 28 -60 69q94 90 168 28t16 -168q-58 -107 -164 -107t-167 93q-62 93 -33 236q39 181 217 324q59 47 123 47
q63 0 162 -207q177 207 250 207q72 0 119 -77q79 -129 103 -242q10 -49 10 -94q0 -39 -7 -75q-21 -95 -87 -180zM560 498q19 2 40 2q54 0 101 -56q46 -57 20 -150q-27 -93 -124 -193q-97 -101 -150 -101t-89 50q-22 31 -22 81q0 31 8 69l256 1200q21 100 97 100q75 0 82 -61
t59 -141q51 -81 97 -122q45 -41 45 -91q-22 -35 -85 -3q-63 31 -122 84l-59 52z" />
    <glyph glyph-name="glyph361" horiz-adv-x="3250" 
d="M1286 150q89 0 167 68q77 67 103 184q15 66 -13 82t-92 16q-91 0 -108 -79zM2992 933q14 65 -48 133q-63 67 -197 75q147 86 236 186t131 173q72 -108 144 -158q71 -50 142 -42l-50 -34q-51 -35 -126 -38q-75 -4 -128 58l-91 -98q85 -58 118 -130t15 -158l-171 -800
q-21 -100 -97 -100q-77 0 -150 63l-171 157l-250 -157q-100 -63 -176 -63q-77 0 -56 100l174 814q30 130 24 217q-5 87 -56 153q-52 66 -83 66q-32 0 -226 -179q-127 179 -170 179q-76 -4 -165 -85q-55 -59 -97 -259l-78 -370q30 14 61 14q104 0 148 -25q132 -77 104 -243
q-33 -179 -161 -280q-128 -102 -256 -102q-93 0 -129 50q-22 31 -22 82q0 31 8 68l176 836q51 244 161 346l86 68q68 50 181 50q83 0 130 -83l45 -66q134 149 212 149t169 -112q90 -112 106 -228t-19 -270l-146 -682l320 197l264 -238zM560 498q19 2 40 2q54 0 101 -56
q46 -57 20 -150q-27 -93 -124 -193q-97 -101 -150 -101t-89 50q-22 31 -22 81q0 31 8 69l256 1200q21 100 97 100q75 0 82 -61t59 -141q51 -81 97 -122q45 -41 45 -91q-22 -35 -85 -3q-63 31 -122 84l-59 52z" />
    <glyph glyph-name="glyph362" horiz-adv-x="4100" 
d="M2164 1019q19 88 9 151q-9 64 -48 102q-76 78 -297 78q-167 0 -237 -46q-69 -47 -85 -125l-146 -681q19 2 40 2q54 0 101 -56q46 -57 20 -150q-27 -93 -124 -193q-97 -101 -150 -101t-89 50q-22 31 -22 81q0 31 8 69l213 1000q32 150 144 225q113 75 327 75
q132 0 240 -32t171 -97q64 -64 82 -161q18 -96 -10 -225l-167 -777l388 227l302 -268l221 1033q32 150 144 225q113 75 357 75q102 0 210 -32t171 -97q64 -64 82 -161q7 -38 7 -80q0 -66 -17 -145l-187 -885q-22 -100 -92 -100t-120 35t-35 80t63 58t72 124l152 722
q19 88 9 151q-9 64 -48 102q-76 78 -267 78q-197 0 -267 -46q-69 -47 -85 -125l-231 -1079q-21 -100 -97 -100q-77 0 -150 63l-209 187l-318 -187q-100 -63 -176 -63q-77 0 -56 100zM560 498q19 2 40 2q54 0 101 -56q46 -57 20 -150q-27 -93 -124 -193q-97 -101 -150 -101
t-89 50q-22 31 -22 81q0 31 8 69l256 1200q21 100 97 100q75 0 82 -61t59 -141q51 -81 97 -122q45 -41 45 -91q-22 -35 -85 -3q-63 31 -122 84l-59 52z" />
    <glyph glyph-name="glyph363" horiz-adv-x="2400" 
d="M1472 1048q-57 33 -121 55q-65 23 -133 31l-68 9q204 113 291.5 182.5t129.5 122.5q43 52 70 52t108 -91l79 -91l103 91l51 46q50 45 80 45q31 0 58 -49t98 -127q72 -78 127 -124t55 -69t-72 -9q-71 13 -180 86q-108 73 -142 126l-221 -195l-160 183l-182 -142l61 -58
q60 -59 42 -83q-17 -24 -74 9zM1286 150q89 0 147 68q57 67 72 134q15 66 -13 82t-72 16q-71 0 -88 -79zM1249 700q32 150 144 225q113 75 307 75q152 0 260 -32t171 -97q64 -64 82 -161q18 -96 -10 -225l-81 -385q-22 -100 -92 -100t-120 35t-35 80t63 58t72 124l46 222
q19 88 9 151q-9 64 -48 102q-76 78 -317 78q-147 0 -217 -46q-69 -47 -85 -125l-18 -81q19 2 40 2q104 0 163 -38q97 -64 69 -230q-22 -129 -130 -230q-108 -102 -236 -102q-93 0 -129 50q-22 31 -22 82q0 31 8 68zM560 498q19 2 40 2q54 0 101 -56q46 -57 20 -150
q-27 -93 -124 -193q-97 -101 -150 -101t-89 50q-22 31 -22 81q0 31 8 69l256 1200q21 100 97 100q75 0 82 -61t59 -141q51 -81 97 -122q45 -41 45 -91q-22 -35 -85 -3q-63 31 -122 84l-59 52z" />
    <glyph glyph-name="glyph364" horiz-adv-x="2400" 
d="M1328 350q-20 -96 38 -148q59 -52 266 -52q189 0 280 59t113 162l70 329q-95 50 -95 125t40 125t110 50q62 0 104 -38q43 -38 22 -132l-102 -480q-37 -175 -172 -262q-136 -88 -370 -88q-266 0 -377 100q-56 50 -75 119q-18 69 0 156l73 342q23 111 -15 142.5t-38 93.5
t89 79q89 16 128 -32q39 -49 18 -149zM1472 1048q-57 33 -121 55q-65 23 -133 31l-68 9q204 113 291.5 182.5t129.5 122.5q43 52 70 52t108 -91q48 -54 110 -82q63 -27 141 -27q111 0 191 94q80 93 131 280q17 63 40 89q19 21 40 21q7 0 14 -2q31 -9 39 -42q4 -13 4 -30
q0 -26 -9 -61q-54 -250 -167 -374q-112 -125 -283 -125q-112 0 -206 43t-159 117l-175 -146l44 -42q60 -59 42 -83q-17 -24 -74 9zM560 498q19 2 40 2q54 0 101 -56q46 -57 20 -150q-27 -93 -124 -193q-97 -101 -150 -101t-89 50q-22 31 -22 81q0 31 8 69l256 1200
q21 100 97 100q75 0 82 -61t59 -141q51 -81 97 -122q45 -41 45 -91q-22 -35 -85 -3q-63 31 -122 84l-59 52z" />
    <glyph glyph-name="glyph365" horiz-adv-x="2406" 
d="M1966 734q-17 -21 -25 -66l-3 -14q100 10 108 46q10 50 -46 50q-20 0 -34 -16zM1872 853q51 47 128 47q55 0 94 -12q82 -24 101 -99q11 -48 -3 -116q-15 -70 -74 -111q-73 -52 -214 -60l-50 -228q-30 -143 -114 -212q-78 -62 -200 -62q-145 0 -205 65q-61 67 -33 203
l21 93q11 50 -63 50q11 50 50 75t107 25q91 0 55 -178l-18 -87q-12 -53 16 -77q22 -19 70 -19q75 0 119 46q35 37 50 104l43 204q-258 22 -363 168q-112 157 -48 457q38 180 159 273q128 98 350 98q287 0 394 -98q65 -59 65 -152q0 -33 -8 -69q-16 -74 -67 -112
q-53 -39 -144 -39q-140 0 -140 100t122 100q-19 -74 34 -74q38 0 48 59q12 56 -39 89q-71 46 -265 46q-162 0 -253 -71q-83 -64 -108 -185q-47 -217 38 -328q75 -100 257 -114l8 40q24 109 80 161zM560 498q19 2 40 2q54 0 101 -56q46 -57 20 -150q-27 -93 -124 -193
q-97 -101 -150 -101t-89 50q-22 31 -22 81q0 31 8 69l256 1200q21 100 97 100q75 0 82 -61t59 -141q51 -81 97 -122q45 -41 45 -91q-22 -35 -85 -3q-63 31 -122 84l-59 52z" />
    <glyph glyph-name="glyph366" horiz-adv-x="2400" 
d="M1472 1048q-57 33 -121 55q-65 23 -133 31l-68 9q204 113 291.5 182.5t129.5 122.5q43 52 70 52t108 -91l79 -91l103 91l51 46q50 45 80 45q31 0 58 -49t98 -127q72 -78 127 -124t55 -69t-72 -9q-71 13 -180 86q-108 73 -142 126l-221 -195l-160 183l-182 -142l61 -58
q60 -59 42 -83q-17 -24 -74 9zM2121 100q-21 -100 -97 -100q-77 0 -150 63l-221 187l-300 -187q-100 -63 -176 -63q-60 0 -60 62q0 17 4 38l132 617q23 111 -15 142.5t-38 93.5t89 79q89 16 128 -32q39 -49 18 -149l-137 -643l370 227l314 -268l113 533q-95 50 -95 125
t40 125t110 50q62 0 104 -38q43 -38 22 -132zM560 498q19 2 40 2q54 0 101 -56q46 -57 20 -150q-27 -93 -124 -193q-97 -101 -150 -101t-89 50q-22 31 -22 81q0 31 8 69l256 1200q21 100 97 100q75 0 82 -61t59 -141q51 -81 97 -122q45 -41 45 -91q-22 -35 -85 -3
q-63 31 -122 84l-59 52z" />
    <glyph glyph-name="glyph367" horiz-adv-x="2400" 
d="M1203 479q11 55 -21 72q-32 16 -32 61t54 66q53 20 122 0q68 -21 47 -121l-56 -259q16 2 33 2q83 0 171 -75q8 -7 16 -13q83 -62 193 -62q91 0 182 59t113 162q35 166 -22 248q-57 81 -203 81q-280 0 -390 131q-106 126 -53 376q28 134 133 206q126 87 360 87
q283 0 389 -107q45 -44 58 -108q6 -28 6 -59q0 -40 -10 -86q-37 -170 -203 -170q-150 0 -150 89t94 111q14 -50 56 -50q44 0 55 48q17 82 -41 127q-71 55 -254 55q-187 0 -274 -64q-57 -42 -72 -111q-33 -155 33 -236q72 -89 263 -89q240 0 334 -125q93 -125 40 -375
q-37 -175 -172 -262q-136 -88 -272 -88q-135 0 -233 75q-12 8 -22 16q-82 59 -125 59q-64 0 -75 -52q-22 -98 -75 -98q-83 0 -83 68q0 14 4 31zM560 498q19 2 40 2q54 0 101 -56q46 -57 20 -150q-27 -93 -124 -193q-97 -101 -150 -101t-89 50q-22 31 -22 81q0 31 8 69
l256 1200q21 100 97 100q75 0 82 -61t59 -141q51 -81 97 -122q45 -41 45 -91q-22 -35 -85 -3q-63 31 -122 84l-59 52z" />
    <glyph glyph-name="glyph368" horiz-adv-x="2400" 
d="M1299 933q14 65 -48 133q-63 67 -197 75q147 86 236 186t131 173q72 -108 153 -154q80 -46 180 -6q-86 -107 -192 -111q-106 -5 -159 57l-91 -98q85 -58 118 -130t15 -158l-106 -500q-26 -125 45 -187q71 -63 266 -63q200 0 276 56q77 57 101 169l118 558q14 65 -48 133
q-63 67 -197 75q147 86 236 186t131 173q72 -108 144 -158q71 -50 139 -42l-47 -34q-51 -35 -126 -38q-75 -4 -128 58l-91 -98q85 -58 118 -130t15 -158l-117 -550q-37 -175 -155 -262q-119 -88 -369 -88t-376 110q-127 110 -84 315zM560 498q19 2 40 2q54 0 101 -56
q46 -57 20 -150q-27 -93 -124 -193q-97 -101 -150 -101t-89 50q-22 31 -22 81q0 31 8 69l256 1200q21 100 97 100q75 0 82 -61t59 -141q51 -81 97 -122q45 -41 45 -91q-22 -35 -85 -3q-63 31 -122 84l-59 52z" />
    <glyph glyph-name="glyph369" horiz-adv-x="2401" 
d="M1473 1048q-57 33 -121 55q-65 23 -133 31l-68 9q204 113 291.5 182.5t129.5 122.5q43 52 70 52t108 -91q48 -54 110 -82q63 -27 141 -27q111 0 191 94q80 93 131 280q17 63 40 89q19 21 40 21q7 0 14 -2q31 -9 39 -42q4 -13 4 -30q0 -26 -9 -61q-54 -250 -167 -374
q-112 -125 -283 -125q-112 0 -206 43t-159 117l-175 -146l44 -42q60 -59 42 -83q-17 -24 -74 9zM2110 766q18 84 -9 84q-87 0 -117 -73q-31 -74 -1 -99q31 -25 103 -28zM2122 100q-21 -100 -97 -100q-77 0 -150 63l-221 187l-300 -187q-100 -63 -176 -63q-60 0 -60 62
q0 17 4 38l132 617q23 111 -15 142.5t-38 93.5t89 79q89 16 128 -32q39 -49 18 -149l-137 -643l370 227l314 -268l71 334q-147 10 -206 84q-59 73 -13 193q45 120 118 171t148 51q91 0 138 -63t20 -190zM560 498q19 2 40 2q54 0 101 -56q46 -57 20 -150q-27 -93 -124 -193
q-97 -101 -150 -101t-89 50q-22 31 -22 81q0 31 8 69l256 1200q21 100 97 100q75 0 82 -61t59 -141q51 -81 97 -122q45 -41 45 -91q-22 -35 -85 -3q-63 31 -122 84l-59 52z" />
    <glyph glyph-name="glyph370" horiz-adv-x="2501" 
d="M1286 150q59 0 167 93q77 67 103 159q15 66 -13 82t-92 16q-91 0 -108 -79zM1319 1036q51 244 134 314l101 82q80 68 146 68q100 0 147 -83l50 -77q159 160 237 160t176 -110q97 -118 113 -234q2 -14 2 -31q0 -79 -35 -235l-168 -790q-22 -100 -92 -100t-120 35t-35 80
t63 58t72 124l131 617q37 165 38 213q-5 87 -63 159q-59 64 -90 64q-32 0 -255 -200q-128 200 -171 200q-46 -4 -82 -35l-72 -62q-36 -31 -78 -247l-78 -370q30 14 61 14q104 0 148 -25q132 -77 104 -243q-33 -154 -161 -255q-158 -127 -256 -127q-93 0 -129 50
q-22 31 -22 82q0 31 8 68zM560 498q19 2 40 2q54 0 101 -56q46 -57 20 -150q-27 -93 -124 -193q-97 -101 -150 -101t-89 50q-22 31 -22 81q0 31 8 69l256 1200q21 100 97 100q75 0 82 -61t59 -141q51 -81 97 -122q45 -41 45 -91q-22 -35 -85 -3q-63 31 -122 84l-59 52z" />
    <glyph glyph-name="glyph371" horiz-adv-x="2400" 
d="M1422 1048q-57 33 -121 55q-65 23 -133 31l-68 9q204 113 291.5 182.5t129.5 122.5q43 52 70 52t108 -91l79 -91l103 91l51 46q50 45 80 45q31 0 58 -49t98 -127q72 -78 127 -124t55 -69t-72 -9q-71 13 -180 86q-108 73 -142 126l-221 -195l-160 183l-182 -142l61 -58
q60 -59 42 -83q-17 -24 -74 9zM1249 700q32 150 144 225q113 75 307 75q152 0 260 -32t171 -97q64 -64 82 -161q18 -96 -10 -225l-81 -385q-22 -100 -92 -100t-120 35t-35 80t63 58t72 124l46 222q19 88 9 151q-9 64 -48 102q-76 78 -317 78q-147 0 -217 -46
q-69 -47 -85 -125l-113 -529q-21 -101 -53 -125q-32 -25 -66 -25q-74 0 -120 119q-46 118 -46 223q0 104 62 151t147 17zM560 498q19 2 40 2q54 0 101 -56q46 -57 20 -150q-27 -93 -124 -193q-97 -101 -150 -101t-89 50q-22 31 -22 81q0 31 8 69l256 1200q21 100 97 100
q75 0 82 -61t59 -141q51 -81 97 -122q45 -41 45 -91q-22 -35 -85 -3q-63 31 -122 84l-59 52z" />
    <glyph glyph-name="glyph372" horiz-adv-x="2400" 
d="M1392 650l-53 -250q-26 -125 45 -187q71 -63 266 -63q200 0 276 56q77 57 101 169l58 275h-693zM1424 800h693l28 133q14 65 -48 133q-63 67 -197 75q147 86 236 186t131 173q72 -108 144 -158q71 -50 139 -42l-47 -34q-51 -35 -126 -38q-75 -4 -128 58l-91 -98
q85 -58 118 -130t15 -158l-117 -550q-37 -175 -155 -262q-119 -88 -369 -88t-376 110q-127 110 -84 315l109 508q14 65 -48 133q-63 67 -197 75q147 86 236 186t131 173q72 -108 153 -154q80 -46 180 -6q-86 -107 -192 -111q-106 -5 -159 57l-91 -98q85 -58 118 -130
t15 -158zM560 498q19 2 40 2q54 0 101 -56q46 -57 20 -150q-27 -93 -124 -193q-97 -101 -150 -101t-89 50q-22 31 -22 81q0 31 8 69l256 1200q21 100 97 100q75 0 82 -61t59 -141q51 -81 97 -122q45 -41 45 -91q-22 -35 -85 -3q-63 31 -122 84l-59 52z" />
    <glyph glyph-name="glyph373" horiz-adv-x="3200" 
d="M1379 1316q39 184 181 184q93 0 132 -75q38 -75 15 -155q-23 -81 -89 -111q-66 -31 -120 -4l-138 -660q-35 -160 34 -252q69 -93 256 -93q183 0 264 51q80 52 108 155l123 577q14 65 -48 133q-63 67 -197 75q147 86 236 186t131 173q72 -108 153 -154q80 -46 180 -6
q-86 -107 -192 -111q-106 -5 -159 57l-91 -98q85 -58 118 -130t15 -158l-117 -550q-20 -100 48 -150t245 -50q169 0 251 56q82 57 106 169l118 558q14 65 -48 133q-63 67 -197 75q147 86 236 186t131 173q72 -108 144 -158q71 -50 142 -42l-50 -34q-51 -35 -126 -38
q-75 -4 -128 58l-91 -98q85 -58 118 -130t15 -158l-117 -550q-37 -175 -155 -262q-119 -88 -349 -88q-165 0 -261 31q-96 32 -144 95q-61 -63 -152 -95q-90 -31 -260 -31q-250 0 -338 85t-112 192q-10 44 -10 93q0 70 21 150zM560 498q19 2 40 2q54 0 101 -56
q46 -57 20 -150q-27 -93 -124 -193q-97 -101 -150 -101t-89 50q-22 31 -22 81q0 31 8 69l256 1200q21 100 97 100q75 0 82 -61t59 -141q51 -81 97 -122q45 -41 45 -91q-22 -35 -85 -3q-63 31 -122 84l-59 52z" />
    <glyph glyph-name="glyph374" horiz-adv-x="1649" 
d="M1377 150q-21 -101 -53 -125q-32 -25 -66 -25q-74 0 -137 147q-52 121 -52 208q0 18 2 34q14 95 79 129q66 32 115 10q19 -9 36 -18l90 423q14 65 -48 133q-63 67 -197 75q147 86 236 186t131 173q72 -108 144 -158q71 -50 142 -42l-50 -34q-51 -35 -126 -38
q-75 -4 -128 58l-91 -98q85 -58 118 -130t15 -158zM560 498q19 2 40 2q54 0 101 -56q46 -57 20 -150q-27 -93 -124 -193q-97 -101 -150 -101t-89 50q-22 31 -22 81q0 31 8 69l256 1200q21 100 97 100q75 0 82 -61t59 -141q51 -81 97 -122q45 -41 45 -91q-22 -35 -85 -3
q-63 31 -122 84l-59 52z" />
    <glyph glyph-name="glyph375" horiz-adv-x="3151" 
d="M2428 0q-280 0 -385 94t-66 281l137 644q19 88 9 151q-9 64 -48 102q-76 78 -247 78q-167 0 -237 -46q-69 -47 -85 -125l-146 -681q19 2 40 2q54 0 101 -56q46 -57 20 -150q-27 -93 -124 -193q-97 -101 -150 -101t-89 50q-22 31 -22 81q0 31 8 69l213 1000
q32 150 144 225q113 75 327 75q82 0 190 -32t171 -97q64 -64 82 -161q18 -96 -10 -225l-136 -635q-20 -100 48 -150t255 -50q159 0 241 56q82 57 106 169l118 558q14 65 -48 133q-63 67 -197 75q147 86 236 186t131 173q72 -108 144 -158q71 -50 142 -42l-50 -34
q-51 -35 -126 -38q-75 -4 -128 58l-91 -98q85 -58 118 -130t15 -158l-117 -550q-37 -175 -155 -262q-119 -88 -339 -88zM560 498q19 2 40 2q54 0 101 -56q46 -57 20 -150q-27 -93 -124 -193q-97 -101 -150 -101t-89 50q-22 31 -22 81q0 31 8 69l256 1200q21 100 97 100
q75 0 82 -61t59 -141q51 -81 97 -122q45 -41 45 -91q-22 -35 -85 -3q-63 31 -122 84l-59 52z" />
    <glyph glyph-name="glyph376" horiz-adv-x="1646" 
d="M1377 150q-21 -101 -53 -125q-32 -25 -66 -25q-74 0 -137 147q-52 121 -52 208q0 18 2 34q14 95 79 129q66 32 115 10q19 -9 36 -18l90 423q14 65 -48 133q-63 67 -197 75q112 58 181 148.5t109 210.5q114 -141 172 -140q58 0 58 160q0 183 -73 307q-74 123 -40 123
q33 0 138 -125t105 -375q0 -100 -54 -159q-54 -60 -129 -63q-115 -4 -168 58l-51 -88q95 -68 128 -140t15 -158zM560 498q19 2 40 2q54 0 101 -56q46 -57 20 -150q-27 -93 -124 -193q-97 -101 -150 -101t-89 50q-22 31 -22 81q0 31 8 69l256 1200q21 100 97 100q75 0 82 -61
t59 -141q51 -81 97 -122q45 -41 45 -91q-22 -35 -85 -3q-63 31 -122 84l-59 52z" />
    <glyph glyph-name="glyph377" horiz-adv-x="2400" 
d="M1472 1048q-57 33 -121 55q-65 23 -133 31l-68 9q204 113 291.5 182.5t129.5 122.5q43 52 70 52t108 -91l79 -91l103 91l51 46q50 45 80 45q31 0 58 -49t98 -127q72 -78 127 -124t55 -69t-72 -9q-71 13 -180 86q-108 73 -142 126l-221 -195l-160 183l-182 -142l61 -58
q60 -59 42 -83q-17 -24 -74 9zM1893 365q-43 40 -43 103q0 82 150 102q-10 -39 3 -65q11 -25 42 -38l11 52q19 88 9 151q-9 64 -48 102q-76 78 -317 78q-147 0 -217 -46q-69 -47 -85 -125l-76 -353q158 174 278 174q150 0 150 -100t-150 -100q0 50 -27 50t-159 -146
l-132 -147q-49 -57 -82 -57q-86 0 -86 56q0 9 2 19l133 625q32 150 144 225q113 75 307 75q152 0 260 -32t171 -97q64 -64 82 -161q18 -96 -10 -225l-7 -33q61 6 105 28q74 37 99 120q0 -137 -52 -211q-59 -84 -184 -89l-42 -200q-22 -100 -92 -100t-120 35t-35 80t63 58
t72 124l3 15q-52 10 -88 31q-18 10 -32 22zM560 498q19 2 40 2q54 0 101 -56q46 -57 20 -150q-27 -93 -124 -193q-97 -101 -150 -101t-89 50q-22 31 -22 81q0 31 8 69l256 1200q21 100 97 100q75 0 82 -61t59 -141q51 -81 97 -122q45 -41 45 -91q-22 -35 -85 -3
q-63 31 -122 84l-59 52z" />
    <glyph glyph-name="glyph378" horiz-adv-x="2400" 
d="M1893 797q0 82 150 102q-9 -35 1 -60q14 -38 70 -52l31 146q14 65 -48 133q-63 67 -197 75q147 86 236 186t131 173q72 -108 144 -158q71 -50 139 -42l-47 -34q-51 -35 -126 -38q-75 -4 -128 58l-91 -98q85 -58 118 -130t15 -158l-25 -115q52 9 90 31q64 37 87 113
q0 -122 -41 -194q-52 -91 -168 -104l-60 -281q-37 -175 -155 -262q-119 -88 -369 -88t-376 110q-127 110 -84 315l109 508q14 65 -48 133q-63 67 -197 75q147 86 236 186t131 173q72 -108 153 -154q80 -46 180 -6q-86 -107 -192 -111q-106 -5 -159 57l-91 -98
q85 -58 118 -130t15 -158l-106 -500q-26 -125 45 -187q71 -63 266 -63q200 0 276 56q77 57 101 169l55 261q-70 10 -114 36q-70 39 -75 125zM560 498q19 2 40 2q54 0 101 -56q46 -57 20 -150q-27 -93 -124 -193q-97 -101 -150 -101t-89 50q-22 31 -22 81q0 31 8 69l256 1200
q21 100 97 100q75 0 82 -61t59 -141q51 -81 97 -122q45 -41 45 -91q-22 -35 -85 -3q-63 31 -122 84l-59 52z" />
    <glyph glyph-name="glyph379" horiz-adv-x="3051" 
d="M2004 955q21 -16 39 -34q64 -64 82 -161q18 -96 -10 -225l-40 -185q-20 -100 48 -150t225 -50q139 0 221 56q82 57 106 169l118 558q14 65 -48 133q-63 67 -197 75q147 86 236 186t131 173q72 -108 144 -158q71 -50 142 -42l-50 -34q-51 -35 -126 -38q-75 -4 -128 58
l-91 -98q85 -58 118 -130t15 -158l-117 -550q-37 -175 -155 -262q-119 -88 -319 -88q-250 0 -355 94t-66 281l41 194q19 88 9 151q-9 64 -48 102q-76 78 -247 78q-117 0 -187 -46q-69 -47 -85 -125l-50 -231q19 2 40 2q54 0 101 -56q46 -57 20 -150q-27 -93 -124 -193
q-97 -101 -150 -101t-89 50q-22 31 -22 81q0 31 8 69l117 550q32 150 144 225q113 75 277 75q80 0 185 -30q-13 24 -38 46q-82 71 -319 75q161 86 253 167t154 192q72 -108 157 -149q84 -41 226 -11q-86 -107 -217 -111q-131 -5 -184 57l-73 -71q132 -56 167 -149
q17 -49 11 -111zM560 498q19 2 40 2q54 0 101 -56q46 -57 20 -150q-27 -93 -124 -193q-97 -101 -150 -101t-89 50q-22 31 -22 81q0 31 8 69l256 1200q21 100 97 100q75 0 82 -61t59 -141q51 -81 97 -122q45 -41 45 -91q-22 -35 -85 -3q-63 31 -122 84l-59 52z" />
    <glyph glyph-name="glyph380" horiz-adv-x="3148" 
d="M2124 350q-37 -175 -155 -262q-119 -88 -339 -88q-230 0 -356 110q-127 110 -84 315l109 508q14 65 -48 133q-63 67 -197 75q147 86 236 186t131 173q72 -108 153 -154q80 -46 180 -6q-86 -107 -192 -111q-106 -5 -159 57l-91 -98q85 -58 118 -130t15 -158l-106 -500
q-26 -125 45 -187q71 -63 246 -63q170 0 246 56q77 57 101 169l176 825q32 150 144 225q113 75 307 75q102 0 210 -32t171 -97q64 -64 82 -161q7 -38 7 -80q0 -66 -17 -145l-187 -885q-22 -100 -92 -100t-120 35t-35 80t63 58t72 124l152 722q19 88 9 151q-9 64 -48 102
q-76 78 -267 78q-147 0 -217 -46q-69 -47 -85 -125zM560 498q19 2 40 2q54 0 101 -56q46 -57 20 -150q-27 -93 -124 -193q-97 -101 -150 -101t-89 50q-22 31 -22 81q0 31 8 69l256 1200q21 100 97 100q75 0 82 -61t59 -141q51 -81 97 -122q45 -41 45 -91q-22 -35 -85 -3
q-63 31 -122 84l-59 52z" />
    <glyph glyph-name="glyph381" horiz-adv-x="3050" 
d="M1966 734q-17 -21 -25 -66l-3 -14q100 10 108 46q10 50 -46 50q-20 0 -34 -16zM1872 853q51 47 128 47q55 0 94 -12q82 -24 101 -99q11 -48 -3 -116q-15 -70 -74 -111q-73 -52 -214 -60l-50 -228q-30 -143 -114 -212q-78 -62 -200 -62q-145 0 -205 65q-61 67 -33 203
l21 93q11 50 -63 50q11 50 50 75t107 25q91 0 55 -178l-18 -87q-12 -53 16 -77q22 -19 70 -19q75 0 119 46q35 37 50 104l43 204q-258 22 -363 168q-112 157 -48 457q38 180 159 273q128 98 350 98q287 0 394 -98q87 -79 57 -221q-16 -74 -67 -112q-53 -39 -144 -39
q-140 0 -140 100t122 100q-19 -74 34 -74q38 0 48 59q12 56 -39 89q-71 46 -265 46q-162 0 -253 -71q-83 -64 -108 -185q-47 -217 38 -328q75 -100 257 -114l8 40q24 109 80 161zM2598 -700q-21 -100 -97 -100q-77 0 -150 63l-171 157l-250 -157q-100 -63 -176 -63
q-77 0 -56 100l65 297q23 111 -15 142.5t-38 93.5t89 79q89 16 128 -32q39 -49 18 -149l-70 -323l320 197l264 -238l333 1566q14 65 -48 133q-63 67 -197 75q147 86 236 186t131 173q72 -108 144 -158q71 -50 142 -42l-50 -34q-51 -35 -126 -38q-75 -4 -128 58l-91 -98
q85 -58 118 -130t15 -158zM560 498q19 2 40 2q54 0 101 -56q46 -57 20 -150q-27 -93 -124 -193q-97 -101 -150 -101t-89 50q-22 31 -22 81q0 31 8 69l256 1200q21 100 97 100q75 0 82 -61t59 -141q51 -81 97 -122q45 -41 45 -91q-22 -35 -85 -3q-63 31 -122 84l-59 52z" />
    <glyph glyph-name="glyph382" horiz-adv-x="2407" 
d="M2121 800l28 133q14 65 -48 133q-63 67 -197 75q147 86 236 186t131 173q72 -108 144 -158q71 -50 142 -42l-50 -34q-51 -35 -126 -38q-75 -4 -128 58l-91 -98q85 -58 118 -130t15 -158l-160 -750q-21 -101 -53 -125q-32 -25 -66 -25q-74 0 -137 147q-63 146 -50 242
q14 95 79 114q64 19 151 7l30 140h-695l-107 -500q-21 -101 -53 -125q-32 -25 -66 -25q-74 0 -137 147q-52 121 -52 208q0 18 2 34q14 95 79 129q66 32 115 10q19 -9 36 -18l91 423q14 65 -48 133q-63 67 -197 75q147 86 236 186t131 173q72 -108 153 -154q80 -46 180 -6
q-86 -107 -192 -111q-106 -5 -159 57l-91 -98q85 -58 118 -130t15 -158l-21 -100h694zM560 498q19 2 40 2q54 0 101 -56q46 -57 20 -150q-27 -93 -124 -193q-97 -101 -150 -101t-89 50q-22 31 -22 81q0 31 8 69l256 1200q21 100 97 100q75 0 82 -61t59 -141q51 -81 97 -122
q45 -41 45 -91q-22 -35 -85 -3q-63 31 -122 84l-59 52z" />
    <glyph glyph-name="glyph383" horiz-adv-x="3350" 
d="M1286 150q89 0 167 68q77 67 103 184q15 66 -13 82t-92 16q-91 0 -108 -79zM2413 1050q-3 -74 -23 -160l-168 -790q-22 -100 -92 -100t-120 35t-35 80t63 58t72 124l131 617q30 130 24 217q-5 87 -46 131q-82 88 -113 88q-32 0 -134 -125l-102 -125l-63 125
q-64 125 -91 125t-120 -93q-94 -94 -128 -251l-78 -370q30 14 61 14q104 0 148 -25q132 -77 104 -243q-33 -179 -161 -280q-128 -102 -256 -102q-93 0 -129 50q-22 31 -22 82q0 31 8 68l176 836q43 201 179 333l68 65q68 66 151 66t130 -83l47 -84q71 81 122 127
q50 47 113 47t197 -154q36 -41 57 -93q72 120 164 180t253 60q310 0 410 -140q51 -69 61 -174q3 -26 3 -55q0 -85 -23 -190l-179 -841q-22 -100 -92 -100t-120 35t-35 80t63 58t72 124l144 674q40 190 -23 284q-64 95 -281 95q-150 0 -235 -75q-84 -75 -152 -225zM560 498
q19 2 40 2q54 0 101 -56q46 -57 20 -150q-27 -93 -124 -193q-97 -101 -150 -101t-89 50q-22 31 -22 81q0 31 8 69l256 1200q21 100 97 100q75 0 82 -61t59 -141q51 -81 97 -122q45 -41 45 -91q-22 -35 -85 -3q-63 31 -122 84l-59 52z" />
    <glyph glyph-name="glyph384" horiz-adv-x="2875" 
 />
    <glyph glyph-name="glyph385" horiz-adv-x="2875" 
 />
    <glyph glyph-name="glyph386" horiz-adv-x="2400" 
d="M1385 802q27 -55 13 -123l-135 -629q-10 -50 -63 -50q-86 0 -86 56q0 9 2 19l133 625q9 43 -15.5 78.5t-93.5 35.5q0 27 36 51q103 68 234 101q131 34 290 34q152 0 260 -32t171 -97q64 -64 82 -161q18 -96 -10 -225l-92 -435q-11 -50 -61 -50q-103 0 -87 75l93 444
q19 88 9 151q-9 64 -48 102q-76 78 -317 78q-179 0 -315 -48zM1472 1048q-57 33 -121 55q-65 23 -133 31l-68 9q204 113 291.5 182.5t129.5 122.5q43 52 70 52t108 -91l79 -91l103 91l51 46q50 45 80 45q31 0 58 -49t98 -127q72 -78 127 -124t55 -69t-72 -9q-71 13 -180 86
q-108 73 -142 126l-221 -195l-160 183l-182 -142l61 -58q60 -59 42 -83q-17 -24 -74 9zM560 498q19 2 40 2q54 0 101 -56q46 -57 20 -150q-27 -93 -124 -193q-97 -101 -150 -101t-89 50q-22 31 -22 81q0 31 8 69l256 1200q21 100 97 100q75 0 82 -61t59 -141q51 -81 97 -122
q45 -41 45 -91q-22 -35 -85 -3q-63 31 -122 84l-59 52zM977 2271q-6 86 -45 127q-118 122 -72 167q10 10 25 10q50 0 147 -122q55 -69 78 -146q16 -56 16 -116q0 -48 -10 -98q-38 -181 -153 -295q-57 -77 -131 -41q-117 46 -173 36q-35 -6 -46 -33q-16 -39 -5 -64
q9 -20 39 -29q24 -8 46 -5q37 4 71 37q87 -52 42 -115q-21 -29 -72 -33q-58 -4 -155 25q-86 25 -115 80q-33 63 6 162q36 91 125 108q93 18 244 -45q96 93 127 225q16 96 11 165z" />
    <glyph glyph-name="glyph387" horiz-adv-x="2340" 
d="M1324 262q44 -39 100 -75q55 -37 136 -37q100 0 240 142q199 205 290 328t103 115q12 -9 0 -65t-65 -183q-54 -128 -229 -311q-178 -176 -339 -176q-128 0 -255 84t-148 147q-2 5 -2 13q0 19 8 53q10 49 77 93l645 384q101 59 159 125q58 67 74 142q17 78 2 136t-61 96
q-92 77 -269 77q-130 0 -205 -49t-96 -147q-15 -77 8 -115q23 -39 85 -39q71 0 23 31q-49 31 -16 109q33 77 140 43q106 -35 67 -184q-40 -149 -214 -149q-154 0 -214 83q-60 82 -26 247q34 160 146 240t302 80q115 0 224 -30q110 -31 174 -92t83 -152q8 -39 8 -83
q0 -61 -15 -131q-22 -107 -100 -200q-77 -93 -209 -172zM560 498q19 2 40 2q54 0 101 -56q46 -57 20 -150q-27 -93 -124 -193q-97 -101 -150 -101t-89 50q-22 31 -22 81q0 31 8 69l256 1200q21 100 97 100q75 0 82 -61t59 -141q51 -81 97 -122q45 -41 45 -91q-22 -35 -85 -3
q-63 31 -122 84l-59 52zM977 2271q-6 86 -45 127q-118 122 -72 167q10 10 25 10q50 0 147 -122q55 -69 78 -146q16 -56 16 -116q0 -48 -10 -98q-38 -181 -153 -295q-57 -77 -131 -41q-117 46 -173 36q-35 -6 -46 -33q-16 -39 -5 -64q9 -20 39 -29q24 -8 46 -5q37 4 71 37
q87 -52 42 -115q-21 -29 -72 -33q-58 -4 -155 25q-86 25 -115 80q-33 63 6 162q36 91 125 108q93 18 244 -45q96 93 127 225q16 96 11 165z" />
    <glyph glyph-name="glyph388" horiz-adv-x="2400" 
d="M1472 1048q-57 33 -121 55q-65 23 -133 31l-68 9q204 113 291.5 182.5t129.5 122.5q43 52 70 52t108 -91l79 -91l103 91l51 46q50 45 80 45q31 0 58 -49t98 -127q72 -78 127 -124t55 -69t-72 -9q-71 13 -180 86q-108 73 -142 126l-221 -195l-160 183l-182 -142l61 -58
q60 -59 42 -83q-17 -24 -74 9zM1200 0q-86 0 -86 56q0 9 2 19l133 625q32 150 144 225q113 75 307 75q152 0 260 -32t171 -97q64 -64 82 -161q18 -96 -10 -225l-81 -385q-22 -100 -92 -100t-120 35t-35 80t63 58t72 124l46 222q19 88 9 151q-9 64 -48 102q-76 78 -317 78
q-147 0 -217 -46q-69 -47 -85 -125l-76 -353q158 174 278 174q150 0 150 -100t-150 -100q0 50 -27 50t-159 -146l-132 -147q-49 -57 -82 -57zM560 498q19 2 40 2q54 0 101 -56q46 -57 20 -150q-27 -93 -124 -193q-97 -101 -150 -101t-89 50q-22 31 -22 81q0 31 8 69
l256 1200q21 100 97 100q75 0 82 -61t59 -141q51 -81 97 -122q45 -41 45 -91q-22 -35 -85 -3q-63 31 -122 84l-59 52zM977 2271q-6 86 -45 127q-118 122 -72 167q10 10 25 10q50 0 147 -122q55 -69 78 -146q16 -56 16 -116q0 -48 -10 -98q-38 -181 -153 -295
q-57 -77 -131 -41q-117 46 -173 36q-35 -6 -46 -33q-16 -39 -5 -64q9 -20 39 -29q24 -8 46 -5q37 4 71 37q87 -52 42 -115q-21 -29 -72 -33q-58 -4 -155 25q-86 25 -115 80q-33 63 6 162q36 91 125 108q93 18 244 -45q96 93 127 225q16 96 11 165z" />
    <glyph glyph-name="glyph389" horiz-adv-x="3050" 
d="M1369 1266q18 84 -39 84q-87 0 -108 -100q-10 -47 20 -72q31 -25 103 -28zM2106 31q-96 32 -144 95q-61 -63 -152 -95q-90 -31 -210 -31q-250 0 -355 94t-66 281l134 626q-147 10 -206 84q-40 49 -40 127q0 38 10 83q22 103 85 154t168 51q121 0 168 -63t20 -190
l-191 -897q-20 -100 48 -150t225 -50q133 0 214 51q80 52 108 155l123 577q14 65 -48 133q-63 67 -197 75q147 86 236 186t131 173q72 -108 153 -154q80 -46 180 -6q-86 -107 -192 -111q-106 -5 -159 57l-91 -98q85 -58 118 -130t15 -158l-117 -550q-20 -100 48 -150
t225 -50q139 0 221 56q82 57 106 169l118 558q14 65 -48 133q-63 67 -197 75q147 86 236 186t131 173q72 -108 144 -158q71 -50 142 -42l-50 -34q-51 -35 -126 -38q-75 -4 -128 58l-91 -98q85 -58 118 -130t15 -158l-117 -550q-37 -175 -155 -262q-119 -88 -319 -88
q-145 0 -241 31zM560 498q19 2 40 2q54 0 101 -56q46 -57 20 -150q-27 -93 -124 -193q-97 -101 -150 -101t-89 50q-22 31 -22 81q0 31 8 69l256 1200q21 100 97 100q75 0 82 -61t59 -141q51 -81 97 -122q45 -41 45 -91q-22 -35 -85 -3q-63 31 -122 84l-59 52zM977 2271
q-6 86 -45 127q-118 122 -72 167q10 10 25 10q50 0 147 -122q55 -69 78 -146q16 -56 16 -116q0 -48 -10 -98q-38 -181 -153 -295q-57 -77 -131 -41q-117 46 -173 36q-35 -6 -46 -33q-16 -39 -5 -64q9 -20 39 -29q24 -8 46 -5q37 4 71 37q87 -52 42 -115q-21 -29 -72 -33
q-58 -4 -155 25q-86 25 -115 80q-33 63 6 162q36 91 125 108q93 18 244 -45q96 93 127 225q16 96 11 165z" />
    <glyph glyph-name="glyph390" horiz-adv-x="2402" 
d="M1914 1256q117 13 127 59q14 65 -61 65q-60 0 -73 -40t7 -84zM1873 1102q-34 -2 -73 -2q-233 0 -331 88q-97 88 -60 263q27 126 134 215q107 90 339 137q192 46 270 111t97 154q11 43 34 61q17 12 39 12q11 0 22 -2q37 -7 50 -33q8 -14 8 -34q0 -15 -5 -34
q-29 -134 -135 -227q-106 -92 -345 -150q-185 -36 -264 -98q-79 -61 -97 -143q-17 -80 36 -122q53 -43 175 -47q-17 76 8 156q29 93 205 93q119 0 166 -56t21 -169q-18 -78 -94 -122q109 -58 156 -178q50 -131 25 -250l-133 -625q-21 -100 -97 -100q-77 0 -150 63l-221 187
l-300 -187q-100 -63 -176 -63q-60 0 -60 62q0 17 4 38l138 647q11 53 -39 78t-35 100t115 75q76 0 110 -54q33 -54 -3 -225l-109 -513l370 227l314 -268l124 583q12 60 -19 157t-156 161q-32 16 -58 34zM560 498q19 2 40 2q54 0 101 -56q46 -57 20 -150q-27 -93 -124 -193
q-97 -101 -150 -101t-89 50q-22 31 -22 81q0 31 8 69l256 1200q21 100 97 100q75 0 82 -61t59 -141q51 -81 97 -122q45 -41 45 -91q-22 -35 -85 -3q-63 31 -122 84l-59 52zM977 2271q-6 86 -45 127q-118 122 -72 167q10 10 25 10q50 0 147 -122q55 -69 78 -146
q16 -56 16 -116q0 -48 -10 -98q-38 -181 -153 -295q-57 -77 -131 -41q-117 46 -173 36q-35 -6 -46 -33q-16 -39 -5 -64q9 -20 39 -29q24 -8 46 -5q37 4 71 37q87 -52 42 -115q-21 -29 -72 -33q-58 -4 -155 25q-86 25 -115 80q-33 63 6 162q36 91 125 108q93 18 244 -45
q96 93 127 225q16 96 11 165z" />
    <glyph glyph-name="glyph391" horiz-adv-x="2400" 
d="M1472 1048q-57 33 -121 55q-65 23 -133 31l-68 9q204 113 291.5 182.5t129.5 122.5q43 52 70 52t108 -91l79 -91l103 91l51 46q50 45 80 45q31 0 58 -49t98 -127q72 -78 127 -124t55 -69t-72 -9q-71 13 -180 86q-108 73 -142 126l-221 -195l-160 183l-182 -142l61 -58
q60 -59 42 -83q-17 -24 -74 9zM1328 350q-20 -96 38 -148q59 -52 266 -52q189 0 280 59t113 162l70 329q-95 50 -95 125t40 125t110 50q82 0 117 -25q35 -26 24 -77l-117 -548q-37 -175 -172 -262q-136 -88 -370 -88q-266 0 -377 100q-56 50 -75 119q-18 69 0 156l73 342
q23 111 -15 142.5t-38 93.5t89 79q89 16 128 -32q39 -49 18 -149zM560 498q19 2 40 2q54 0 101 -56q46 -57 20 -150q-27 -93 -124 -193q-97 -101 -150 -101t-89 50q-22 31 -22 81q0 31 8 69l256 1200q21 100 97 100q75 0 82 -61t59 -141q51 -81 97 -122q45 -41 45 -91
q-22 -35 -85 -3q-63 31 -122 84l-59 52zM977 2271q-6 86 -45 127q-118 122 -72 167q10 10 25 10q50 0 147 -122q55 -69 78 -146q16 -56 16 -116q0 -48 -10 -98q-38 -181 -153 -295q-57 -77 -131 -41q-117 46 -173 36q-35 -6 -46 -33q-16 -39 -5 -64q9 -20 39 -29
q24 -8 46 -5q37 4 71 37q87 -52 42 -115q-21 -29 -72 -33q-58 -4 -155 25q-86 25 -115 80q-33 63 6 162q36 91 125 108q93 18 244 -45q96 93 127 225q16 96 11 165z" />
    <glyph glyph-name="glyph392" horiz-adv-x="2400" 
d="M1472 1048q-57 33 -121 55q-65 23 -133 31l-68 9q204 113 291.5 182.5t129.5 122.5q43 52 70 52t108 -91l79 -91l103 91l51 46q50 45 80 45q31 0 58 -49t98 -127q72 -78 127 -124t55 -69t-72 -9q-71 13 -180 86q-108 73 -142 126l-221 -195l-160 183l-182 -142l61 -58
q60 -59 42 -83q-17 -24 -74 9zM1750 483q19 -21 67 -21q75 0 75 -75t-75 -75q-142 0 -196 69q-52 66 -25 196q25 114 96 170q68 53 178 53q189 0 267 -100q88 -113 37 -350q-37 -175 -172 -262q-136 -88 -272 -88q-145 0 -243 75q-99 75 -137 75q-64 0 -75 -52
q-22 -98 -75 -98q-83 0 -83 68q0 14 4 31l132 618q23 111 -15 142.5t-38 93.5t89 79q89 16 128 -32q39 -49 18 -149l-118 -553q16 2 33 2q83 0 214 -112q44 -38 166 -38q91 0 182 59t113 162q33 152 -16 221q-41 58 -139 58q-49 0 -81 -25q-35 -28 -48 -88q-8 -36 9 -54z
M560 498q19 2 40 2q54 0 101 -56q46 -57 20 -150q-27 -93 -124 -193q-97 -101 -150 -101t-89 50q-22 31 -22 81q0 31 8 69l256 1200q21 100 97 100q75 0 82 -61t59 -141q51 -81 97 -122q45 -41 45 -91q-22 -35 -85 -3q-63 31 -122 84l-59 52zM977 2271q-6 86 -45 127
q-118 122 -72 167q10 10 25 10q50 0 147 -122q55 -69 78 -146q16 -56 16 -116q0 -48 -10 -98q-38 -181 -153 -295q-57 -77 -131 -41q-117 46 -173 36q-35 -6 -46 -33q-16 -39 -5 -64q9 -20 39 -29q24 -8 46 -5q37 4 71 37q87 -52 42 -115q-21 -29 -72 -33q-58 -4 -155 25
q-86 25 -115 80q-33 63 6 162q36 91 125 108q93 18 244 -45q96 93 127 225q16 96 11 165z" />
    <glyph glyph-name="glyph393" horiz-adv-x="2400" 
d="M1472 1048q-57 33 -121 55q-65 23 -133 31l-68 9q204 113 291.5 182.5t129.5 122.5q43 52 70 52t108 -91q48 -54 110 -82q63 -27 141 -27q111 0 191 94q80 93 131 280q17 63 40 89q19 21 40 21q7 0 14 -2q31 -9 39 -42q4 -13 4 -30q0 -26 -9 -61q-54 -250 -167 -374
q-112 -125 -283 -125q-112 0 -206 43t-159 117l-175 -146l44 -42q60 -59 42 -83q-17 -24 -74 9zM1298 208l370 227l314 -268l140 657q12 60 -5 85t-17 58t50 33t98 -41q47 -41 22 -160l-149 -699q-21 -100 -97 -100q-77 0 -150 63l-221 187l-300 -187q-100 -63 -176 -63
q-60 0 -60 62q0 17 4 38l132 617q23 111 -15 142.5t-38 93.5t89 79q89 16 128 -32q39 -49 18 -149zM560 498q19 2 40 2q54 0 101 -56q46 -57 20 -150q-27 -93 -124 -193q-97 -101 -150 -101t-89 50q-22 31 -22 81q0 31 8 69l256 1200q21 100 97 100q75 0 82 -61t59 -141
q51 -81 97 -122q45 -41 45 -91q-22 -35 -85 -3q-63 31 -122 84l-59 52zM977 2271q-6 86 -45 127q-118 122 -72 167q10 10 25 10q50 0 147 -122q55 -69 78 -146q16 -56 16 -116q0 -48 -10 -98q-38 -181 -153 -295q-57 -77 -131 -41q-117 46 -173 36q-35 -6 -46 -33
q-16 -39 -5 -64q9 -20 39 -29q24 -8 46 -5q37 4 71 37q87 -52 42 -115q-21 -29 -72 -33q-58 -4 -155 25q-86 25 -115 80q-33 63 6 162q36 91 125 108q93 18 244 -45q96 93 127 225q16 96 11 165z" />
    <glyph glyph-name="glyph394" horiz-adv-x="3798" 
d="M2064 1019q19 88 9 151q-9 64 -48 102q-76 78 -247 78q-117 0 -187 -46q-69 -47 -85 -125l-146 -681q19 2 40 2q54 0 101 -56q46 -57 20 -150q-27 -93 -124 -193q-97 -101 -150 -101t-89 50q-22 31 -22 81q0 31 8 69l213 1000q32 150 144 225q113 75 277 75q82 0 190 -32
t171 -97q64 -64 82 -161q18 -96 -10 -225l-136 -635q-20 -100 48 -150t225 -50q133 0 214 51q80 52 108 155l123 577q14 65 -48 133q-63 67 -197 75q147 86 236 186t131 173q72 -108 153 -154q80 -46 180 -6q-86 -107 -192 -111q-106 -5 -159 57l-91 -98q85 -58 118 -130
t15 -158l-117 -550q-20 -100 48 -150t225 -50q139 0 221 56q82 57 106 169l118 558q14 65 -48 133q-63 67 -197 75q147 86 236 186t131 173q72 -108 144 -158q71 -50 142 -42l-50 -34q-51 -35 -126 -38q-75 -4 -128 58l-91 -98q85 -58 118 -130t15 -158l-117 -550
q-37 -175 -155 -262q-119 -88 -319 -88q-145 0 -241 31q-96 32 -144 95q-61 -63 -152 -95q-90 -31 -210 -31q-250 0 -355 94t-66 281zM560 498q19 2 40 2q54 0 101 -56q46 -57 20 -150q-27 -93 -124 -193q-97 -101 -150 -101t-89 50q-22 31 -22 81q0 31 8 69l256 1200
q21 100 97 100q75 0 82 -61t59 -141q51 -81 97 -122q45 -41 45 -91q-22 -35 -85 -3q-63 31 -122 84l-59 52zM977 2271q-6 86 -45 127q-118 122 -72 167q10 10 25 10q50 0 147 -122q55 -69 78 -146q16 -56 16 -116q0 -48 -10 -98q-38 -181 -153 -295q-57 -77 -131 -41
q-117 46 -173 36q-35 -6 -46 -33q-16 -39 -5 -64q9 -20 39 -29q24 -8 46 -5q37 4 71 37q87 -52 42 -115q-21 -29 -72 -33q-58 -4 -155 25q-86 25 -115 80q-33 63 6 162q36 91 125 108q93 18 244 -45q96 93 127 225q16 96 11 165z" />
    <glyph glyph-name="glyph395" horiz-adv-x="3350" 
d="M1286 150q89 0 167 68q77 67 103 184q15 66 -13 82t-92 16q-91 0 -108 -79zM2413 1050q-3 -74 -23 -160l-168 -790q-22 -100 -92 -100t-120 35t-35 80t63 58t72 124l131 617q30 130 24 217q-5 87 -46 131q-82 88 -113 88q-32 0 -134 -125l-102 -125l-63 125
q-64 125 -91 125t-120 -93q-94 -94 -128 -251l-78 -370q30 14 61 14q104 0 148 -25q132 -77 104 -243q-33 -179 -161 -280q-128 -102 -256 -102q-93 0 -129 50q-22 31 -22 82q0 31 8 68l176 836q43 201 179 333l68 65q68 66 151 66t130 -83l47 -84q71 81 122 127
q50 47 113 47t197 -154q36 -41 57 -93q72 120 164 180t253 60q310 0 410 -140q51 -69 61 -174q3 -26 3 -55q0 -85 -23 -190l-179 -841q-22 -100 -92 -100t-120 35t-35 80t63 58t72 124l144 674q40 190 -23 284q-64 95 -281 95q-150 0 -235 -75q-84 -75 -152 -225zM1150 -265
q0 35 20 56q19 20 55 16t86 -48q353 -309 790 -309q436 0 575 82q139 81 151 138q11 57 4 68.5t-31 11.5q0 -50 -75 -50t-75 70q0 130 150 130q105 0 152 -71q47 -72 21 -192q-26 -121 -209 -229q-184 -108 -669 -108q-486 0 -888 350q-57 50 -57 85zM560 498q19 2 40 2
q54 0 101 -56q46 -57 20 -150q-27 -93 -124 -193q-97 -101 -150 -101t-89 50q-22 31 -22 81q0 31 8 69l256 1200q21 100 97 100q75 0 82 -61t59 -141q51 -81 97 -122q45 -41 45 -91q-22 -35 -85 -3q-63 31 -122 84l-59 52zM977 2271q-6 86 -45 127q-118 122 -72 167
q10 10 25 10q50 0 147 -122q55 -69 78 -146q16 -56 16 -116q0 -48 -10 -98q-38 -181 -153 -295q-57 -77 -131 -41q-117 46 -173 36q-35 -6 -46 -33q-16 -39 -5 -64q9 -20 39 -29q24 -8 46 -5q37 4 71 37q87 -52 42 -115q-21 -29 -72 -33q-58 -4 -155 25q-86 25 -115 80
q-33 63 6 162q36 91 125 108q93 18 244 -45q96 93 127 225q16 96 11 165z" />
    <glyph glyph-name="glyph396" horiz-adv-x="2399" 
d="M1298 208l370 227l314 -268l140 657q12 60 -5 85t-17 58t50 33t98 -41q47 -41 22 -160l-149 -699q-21 -100 -97 -100q-77 0 -150 63l-221 187l-300 -187q-100 -63 -176 -63q-60 0 -60 62q0 17 4 38l132 617q23 111 -15 142.5t-38 93.5t89 79q89 16 128 -32
q39 -49 18 -149zM2440 1600q-18 -81 -69 -184q-46 -94 -112 -166q-59 -64 -159 -100q-136 -50 -350 -50q-231 0 -333 69q-101 70 -73 208q27 123 182 123q114 0 114 -100t-78 -100q-77 0 -68 50q-11 -50 53 -75t203 -25q180 0 291 40q81 29 125 79q50 56 88 128
q41 79 76 180q35 100 82 100q46 0 46 -48t-18 -129zM560 498q19 2 40 2q54 0 101 -56q46 -57 20 -150q-27 -93 -124 -193q-97 -101 -150 -101t-89 50q-22 31 -22 81q0 31 8 69l256 1200q21 100 97 100q75 0 82 -61t59 -141q51 -81 97 -122q45 -41 45 -91q-22 -35 -85 -3
q-63 31 -122 84l-59 52zM977 2271q-6 86 -45 127q-118 122 -72 167q10 10 25 10q50 0 147 -122q55 -69 78 -146q16 -56 16 -116q0 -48 -10 -98q-38 -181 -153 -295q-57 -77 -131 -41q-117 46 -173 36q-35 -6 -46 -33q-16 -39 -5 -64q9 -20 39 -29q24 -8 46 -5q37 4 71 37
q87 -52 42 -115q-21 -29 -72 -33q-58 -4 -155 25q-86 25 -115 80q-33 63 6 162q36 91 125 108q93 18 244 -45q96 93 127 225q16 96 11 165z" />
    <glyph glyph-name="glyph397" horiz-adv-x="2400" 
d="M1190 425q-11 -52 -11 -98q0 -135 95 -217q126 -110 376 -110t369 88q118 87 155 262l117 550q18 86 -15 158t-128 140l51 88q53 -62 168 -58q75 3 129 63q54 59 54 159q0 250 -105 375t-138 125q-34 0 40 -123q73 -124 73 -307q0 -160 -58 -160q-58 -1 -172 140
q-40 -120 -109 -210.5t-181 -148.5q134 -8 197 -75q62 -68 48 -133l-118 -558q-24 -112 -101 -169q-76 -56 -276 -56q-195 0 -266 63q-71 62 -45 187l202 952q16 73 -22 110q-37 38 -109 38q-70 0 -110 -50t-40 -125t95 -125zM560 498q19 2 40 2q54 0 101 -56
q46 -57 20 -150q-27 -93 -124 -193q-97 -101 -150 -101t-89 50q-22 31 -22 81q0 31 8 69l256 1200q21 100 97 100q75 0 82 -61t59 -141q51 -81 97 -122q45 -41 45 -91q-22 -35 -85 -3q-63 31 -122 84l-59 52zM977 2271q-6 86 -45 127q-118 122 -72 167q10 10 25 10
q50 0 147 -122q55 -69 78 -146q16 -56 16 -116q0 -48 -10 -98q-38 -181 -153 -295q-57 -77 -131 -41q-117 46 -173 36q-35 -6 -46 -33q-16 -39 -5 -64q9 -20 39 -29q24 -8 46 -5q37 4 71 37q87 -52 42 -115q-21 -29 -72 -33q-58 -4 -155 25q-86 25 -115 80q-33 63 6 162
q36 91 125 108q93 18 244 -45q96 93 127 225q16 96 11 165z" />
    <glyph glyph-name="glyph398" horiz-adv-x="2400" 
d="M2228 832q-82 -104 -232 -192l-629 -388l9 -24q25 -78 134 -78q77 0 275 135l260 176q18 89 95 89t42 -164l-105 -492q-20 -94 -97 -94t-52 114l73 339l-121 -84q-240 -169 -370 -169q-108 0 -176 42t-96 126l-21 63q-2 5 -2 13q0 19 8 53q10 49 77 93l636 384
q110 65 170 141q48 60 63 126q10 50 -3 111q-19 89 -87 203q-232 -240 -267 -240t-160 235q-136 -119 -167 -247q-12 -74 8 -113q20 -40 45 -40t40 28q14 28 -60 69q94 90 168 28t16 -168q-58 -107 -164 -107t-167 93q-62 93 -33 236q39 181 217 324q59 47 123 47
q63 0 162 -207q177 207 250 207q72 0 119 -77q79 -129 103 -242q10 -49 10 -94q0 -39 -7 -75q-21 -95 -87 -180zM560 498q19 2 40 2q54 0 101 -56q46 -57 20 -150q-27 -93 -124 -193q-97 -101 -150 -101t-89 50q-22 31 -22 81q0 31 8 69l256 1200q21 100 97 100q75 0 82 -61
t59 -141q51 -81 97 -122q45 -41 45 -91q-22 -35 -85 -3q-63 31 -122 84l-59 52zM977 2271q-6 86 -45 127q-118 122 -72 167q10 10 25 10q50 0 147 -122q55 -69 78 -146q16 -56 16 -116q0 -48 -10 -98q-38 -181 -153 -295q-57 -77 -131 -41q-117 46 -173 36q-35 -6 -46 -33
q-16 -39 -5 -64q9 -20 39 -29q24 -8 46 -5q37 4 71 37q87 -52 42 -115q-21 -29 -72 -33q-58 -4 -155 25q-86 25 -115 80q-33 63 6 162q36 91 125 108q93 18 244 -45q96 93 127 225q16 96 11 165z" />
    <glyph glyph-name="glyph399" horiz-adv-x="3250" 
d="M1286 150q89 0 167 68q77 67 103 184q15 66 -13 82t-92 16q-91 0 -108 -79zM2992 933q14 65 -48 133q-63 67 -197 75q147 86 236 186t131 173q72 -108 144 -158q71 -50 142 -42l-50 -34q-51 -35 -126 -38q-75 -4 -128 58l-91 -98q85 -58 118 -130t15 -158l-171 -800
q-21 -100 -97 -100q-77 0 -150 63l-171 157l-250 -157q-100 -63 -176 -63q-77 0 -56 100l174 814q30 130 24 217q-5 87 -56 153q-52 66 -83 66q-32 0 -226 -179q-127 179 -170 179q-76 -4 -165 -85q-55 -59 -97 -259l-78 -370q30 14 61 14q104 0 148 -25q132 -77 104 -243
q-33 -179 -161 -280q-128 -102 -256 -102q-93 0 -129 50q-22 31 -22 82q0 31 8 68l176 836q51 244 161 346l86 68q68 50 181 50q83 0 130 -83l45 -66q134 149 212 149t169 -112q90 -112 106 -228t-19 -270l-146 -682l320 197l264 -238zM560 498q19 2 40 2q54 0 101 -56
q46 -57 20 -150q-27 -93 -124 -193q-97 -101 -150 -101t-89 50q-22 31 -22 81q0 31 8 69l256 1200q21 100 97 100q75 0 82 -61t59 -141q51 -81 97 -122q45 -41 45 -91q-22 -35 -85 -3q-63 31 -122 84l-59 52zM977 2271q-6 86 -45 127q-118 122 -72 167q10 10 25 10
q50 0 147 -122q55 -69 78 -146q16 -56 16 -116q0 -48 -10 -98q-38 -181 -153 -295q-57 -77 -131 -41q-117 46 -173 36q-35 -6 -46 -33q-16 -39 -5 -64q9 -20 39 -29q24 -8 46 -5q37 4 71 37q87 -52 42 -115q-21 -29 -72 -33q-58 -4 -155 25q-86 25 -115 80q-33 63 6 162
q36 91 125 108q93 18 244 -45q96 93 127 225q16 96 11 165z" />
    <glyph glyph-name="glyph400" horiz-adv-x="4100" 
d="M2164 1019q19 88 9 151q-9 64 -48 102q-76 78 -297 78q-167 0 -237 -46q-69 -47 -85 -125l-146 -681q19 2 40 2q54 0 101 -56q46 -57 20 -150q-27 -93 -124 -193q-97 -101 -150 -101t-89 50q-22 31 -22 81q0 31 8 69l213 1000q32 150 144 225q113 75 327 75
q132 0 240 -32t171 -97q64 -64 82 -161q18 -96 -10 -225l-167 -777l388 227l302 -268l221 1033q32 150 144 225q113 75 357 75q102 0 210 -32t171 -97q64 -64 82 -161q7 -38 7 -80q0 -66 -17 -145l-187 -885q-22 -100 -92 -100t-120 35t-35 80t63 58t72 124l152 722
q19 88 9 151q-9 64 -48 102q-76 78 -267 78q-197 0 -267 -46q-69 -47 -85 -125l-231 -1079q-21 -100 -97 -100q-77 0 -150 63l-209 187l-318 -187q-100 -63 -176 -63q-77 0 -56 100zM560 498q19 2 40 2q54 0 101 -56q46 -57 20 -150q-27 -93 -124 -193q-97 -101 -150 -101
t-89 50q-22 31 -22 81q0 31 8 69l256 1200q21 100 97 100q75 0 82 -61t59 -141q51 -81 97 -122q45 -41 45 -91q-22 -35 -85 -3q-63 31 -122 84l-59 52zM977 2271q-6 86 -45 127q-118 122 -72 167q10 10 25 10q50 0 147 -122q55 -69 78 -146q16 -56 16 -116q0 -48 -10 -98
q-38 -181 -153 -295q-57 -77 -131 -41q-117 46 -173 36q-35 -6 -46 -33q-16 -39 -5 -64q9 -20 39 -29q24 -8 46 -5q37 4 71 37q87 -52 42 -115q-21 -29 -72 -33q-58 -4 -155 25q-86 25 -115 80q-33 63 6 162q36 91 125 108q93 18 244 -45q96 93 127 225q16 96 11 165z" />
    <glyph glyph-name="glyph401" horiz-adv-x="2400" 
d="M1472 1048q-57 33 -121 55q-65 23 -133 31l-68 9q204 113 291.5 182.5t129.5 122.5q43 52 70 52t108 -91l79 -91l103 91l51 46q50 45 80 45q31 0 58 -49t98 -127q72 -78 127 -124t55 -69t-72 -9q-71 13 -180 86q-108 73 -142 126l-221 -195l-160 183l-182 -142l61 -58
q60 -59 42 -83q-17 -24 -74 9zM1286 150q89 0 147 68q57 67 72 134q15 66 -13 82t-72 16q-71 0 -88 -79zM1249 700q32 150 144 225q113 75 307 75q152 0 260 -32t171 -97q64 -64 82 -161q18 -96 -10 -225l-81 -385q-22 -100 -92 -100t-120 35t-35 80t63 58t72 124l46 222
q19 88 9 151q-9 64 -48 102q-76 78 -317 78q-147 0 -217 -46q-69 -47 -85 -125l-18 -81q19 2 40 2q104 0 163 -38q97 -64 69 -230q-22 -129 -130 -230q-108 -102 -236 -102q-93 0 -129 50q-22 31 -22 82q0 31 8 68zM560 498q19 2 40 2q54 0 101 -56q46 -57 20 -150
q-27 -93 -124 -193q-97 -101 -150 -101t-89 50q-22 31 -22 81q0 31 8 69l256 1200q21 100 97 100q75 0 82 -61t59 -141q51 -81 97 -122q45 -41 45 -91q-22 -35 -85 -3q-63 31 -122 84l-59 52zM977 2271q-6 86 -45 127q-118 122 -72 167q10 10 25 10q50 0 147 -122
q55 -69 78 -146q16 -56 16 -116q0 -48 -10 -98q-38 -181 -153 -295q-57 -77 -131 -41q-117 46 -173 36q-35 -6 -46 -33q-16 -39 -5 -64q9 -20 39 -29q24 -8 46 -5q37 4 71 37q87 -52 42 -115q-21 -29 -72 -33q-58 -4 -155 25q-86 25 -115 80q-33 63 6 162q36 91 125 108
q93 18 244 -45q96 93 127 225q16 96 11 165z" />
    <glyph glyph-name="glyph402" horiz-adv-x="2400" 
d="M1328 350q-20 -96 38 -148q59 -52 266 -52q189 0 280 59t113 162l70 329q-95 50 -95 125t40 125t110 50q62 0 104 -38q43 -38 22 -132l-102 -480q-37 -175 -172 -262q-136 -88 -370 -88q-266 0 -377 100q-56 50 -75 119q-18 69 0 156l73 342q23 111 -15 142.5t-38 93.5
t89 79q89 16 128 -32q39 -49 18 -149zM1472 1048q-57 33 -121 55q-65 23 -133 31l-68 9q204 113 291.5 182.5t129.5 122.5q43 52 70 52t108 -91q48 -54 110 -82q63 -27 141 -27q111 0 191 94q80 93 131 280q17 63 40 89q19 21 40 21q7 0 14 -2q31 -9 39 -42q4 -13 4 -30
q0 -26 -9 -61q-54 -250 -167 -374q-112 -125 -283 -125q-112 0 -206 43t-159 117l-175 -146l44 -42q60 -59 42 -83q-17 -24 -74 9zM560 498q19 2 40 2q54 0 101 -56q46 -57 20 -150q-27 -93 -124 -193q-97 -101 -150 -101t-89 50q-22 31 -22 81q0 31 8 69l256 1200
q21 100 97 100q75 0 82 -61t59 -141q51 -81 97 -122q45 -41 45 -91q-22 -35 -85 -3q-63 31 -122 84l-59 52zM977 2271q-6 86 -45 127q-118 122 -72 167q10 10 25 10q50 0 147 -122q55 -69 78 -146q16 -56 16 -116q0 -48 -10 -98q-38 -181 -153 -295q-57 -77 -131 -41
q-117 46 -173 36q-35 -6 -46 -33q-16 -39 -5 -64q9 -20 39 -29q24 -8 46 -5q37 4 71 37q87 -52 42 -115q-21 -29 -72 -33q-58 -4 -155 25q-86 25 -115 80q-33 63 6 162q36 91 125 108q93 18 244 -45q96 93 127 225q16 96 11 165z" />
    <glyph glyph-name="glyph403" horiz-adv-x="2406" 
d="M1966 734q-17 -21 -25 -66l-3 -14q100 10 108 46q10 50 -46 50q-20 0 -34 -16zM1872 853q51 47 128 47q55 0 94 -12q82 -24 101 -99q11 -48 -3 -116q-15 -70 -74 -111q-73 -52 -214 -60l-50 -228q-30 -143 -114 -212q-78 -62 -200 -62q-145 0 -205 65q-61 67 -33 203
l21 93q11 50 -63 50q11 50 50 75t107 25q91 0 55 -178l-18 -87q-12 -53 16 -77q22 -19 70 -19q75 0 119 46q35 37 50 104l43 204q-258 22 -363 168q-112 157 -48 457q38 180 159 273q128 98 350 98q287 0 394 -98q65 -59 65 -152q0 -33 -8 -69q-16 -74 -67 -112
q-53 -39 -144 -39q-140 0 -140 100t122 100q-19 -74 34 -74q38 0 48 59q12 56 -39 89q-71 46 -265 46q-162 0 -253 -71q-83 -64 -108 -185q-47 -217 38 -328q75 -100 257 -114l8 40q24 109 80 161zM560 498q19 2 40 2q54 0 101 -56q46 -57 20 -150q-27 -93 -124 -193
q-97 -101 -150 -101t-89 50q-22 31 -22 81q0 31 8 69l256 1200q21 100 97 100q75 0 82 -61t59 -141q51 -81 97 -122q45 -41 45 -91q-22 -35 -85 -3q-63 31 -122 84l-59 52zM977 2271q-6 86 -45 127q-118 122 -72 167q10 10 25 10q50 0 147 -122q55 -69 78 -146
q16 -56 16 -116q0 -48 -10 -98q-38 -181 -153 -295q-57 -77 -131 -41q-117 46 -173 36q-35 -6 -46 -33q-16 -39 -5 -64q9 -20 39 -29q24 -8 46 -5q37 4 71 37q87 -52 42 -115q-21 -29 -72 -33q-58 -4 -155 25q-86 25 -115 80q-33 63 6 162q36 91 125 108q93 18 244 -45
q96 93 127 225q16 96 11 165z" />
    <glyph glyph-name="glyph404" horiz-adv-x="2400" 
d="M1472 1048q-57 33 -121 55q-65 23 -133 31l-68 9q204 113 291.5 182.5t129.5 122.5q43 52 70 52t108 -91l79 -91l103 91l51 46q50 45 80 45q31 0 58 -49t98 -127q72 -78 127 -124t55 -69t-72 -9q-71 13 -180 86q-108 73 -142 126l-221 -195l-160 183l-182 -142l61 -58
q60 -59 42 -83q-17 -24 -74 9zM2121 100q-21 -100 -97 -100q-77 0 -150 63l-221 187l-300 -187q-100 -63 -176 -63q-60 0 -60 62q0 17 4 38l132 617q23 111 -15 142.5t-38 93.5t89 79q89 16 128 -32q39 -49 18 -149l-137 -643l370 227l314 -268l113 533q-95 50 -95 125
t40 125t110 50q62 0 104 -38q43 -38 22 -132zM560 498q19 2 40 2q54 0 101 -56q46 -57 20 -150q-27 -93 -124 -193q-97 -101 -150 -101t-89 50q-22 31 -22 81q0 31 8 69l256 1200q21 100 97 100q75 0 82 -61t59 -141q51 -81 97 -122q45 -41 45 -91q-22 -35 -85 -3
q-63 31 -122 84l-59 52zM977 2271q-6 86 -45 127q-118 122 -72 167q10 10 25 10q50 0 147 -122q55 -69 78 -146q16 -56 16 -116q0 -48 -10 -98q-38 -181 -153 -295q-57 -77 -131 -41q-117 46 -173 36q-35 -6 -46 -33q-16 -39 -5 -64q9 -20 39 -29q24 -8 46 -5q37 4 71 37
q87 -52 42 -115q-21 -29 -72 -33q-58 -4 -155 25q-86 25 -115 80q-33 63 6 162q36 91 125 108q93 18 244 -45q96 93 127 225q16 96 11 165z" />
    <glyph glyph-name="glyph405" horiz-adv-x="2400" 
d="M1203 479q11 55 -21 72q-32 16 -32 61t54 66q53 20 122 0q68 -21 47 -121l-56 -259q16 2 33 2q83 0 171 -75q8 -7 16 -13q83 -62 193 -62q91 0 182 59t113 162q35 166 -22 248q-57 81 -203 81q-280 0 -390 131q-106 126 -53 376q28 134 133 206q126 87 360 87
q283 0 389 -107q45 -44 58 -108q6 -28 6 -59q0 -40 -10 -86q-37 -170 -203 -170q-150 0 -150 89t94 111q14 -50 56 -50q44 0 55 48q17 82 -41 127q-71 55 -254 55q-187 0 -274 -64q-57 -42 -72 -111q-33 -155 33 -236q72 -89 263 -89q240 0 334 -125q93 -125 40 -375
q-37 -175 -172 -262q-136 -88 -272 -88q-135 0 -233 75q-12 8 -22 16q-82 59 -125 59q-64 0 -75 -52q-22 -98 -75 -98q-83 0 -83 68q0 14 4 31zM560 498q19 2 40 2q54 0 101 -56q46 -57 20 -150q-27 -93 -124 -193q-97 -101 -150 -101t-89 50q-22 31 -22 81q0 31 8 69
l256 1200q21 100 97 100q75 0 82 -61t59 -141q51 -81 97 -122q45 -41 45 -91q-22 -35 -85 -3q-63 31 -122 84l-59 52zM977 2271q-6 86 -45 127q-118 122 -72 167q10 10 25 10q50 0 147 -122q55 -69 78 -146q16 -56 16 -116q0 -48 -10 -98q-38 -181 -153 -295
q-57 -77 -131 -41q-117 46 -173 36q-35 -6 -46 -33q-16 -39 -5 -64q9 -20 39 -29q24 -8 46 -5q37 4 71 37q87 -52 42 -115q-21 -29 -72 -33q-58 -4 -155 25q-86 25 -115 80q-33 63 6 162q36 91 125 108q93 18 244 -45q96 93 127 225q16 96 11 165z" />
    <glyph glyph-name="glyph406" horiz-adv-x="2400" 
d="M1299 933q14 65 -48 133q-63 67 -197 75q147 86 236 186t131 173q72 -108 153 -154q80 -46 180 -6q-86 -107 -192 -111q-106 -5 -159 57l-91 -98q85 -58 118 -130t15 -158l-106 -500q-26 -125 45 -187q71 -63 266 -63q200 0 276 56q77 57 101 169l118 558q14 65 -48 133
q-63 67 -197 75q147 86 236 186t131 173q72 -108 144 -158q71 -50 139 -42l-47 -34q-51 -35 -126 -38q-75 -4 -128 58l-91 -98q85 -58 118 -130t15 -158l-117 -550q-37 -175 -155 -262q-119 -88 -369 -88t-376 110q-127 110 -84 315zM560 498q19 2 40 2q54 0 101 -56
q46 -57 20 -150q-27 -93 -124 -193q-97 -101 -150 -101t-89 50q-22 31 -22 81q0 31 8 69l256 1200q21 100 97 100q75 0 82 -61t59 -141q51 -81 97 -122q45 -41 45 -91q-22 -35 -85 -3q-63 31 -122 84l-59 52zM977 2271q-6 86 -45 127q-118 122 -72 167q10 10 25 10
q50 0 147 -122q55 -69 78 -146q16 -56 16 -116q0 -48 -10 -98q-38 -181 -153 -295q-57 -77 -131 -41q-117 46 -173 36q-35 -6 -46 -33q-16 -39 -5 -64q9 -20 39 -29q24 -8 46 -5q37 4 71 37q87 -52 42 -115q-21 -29 -72 -33q-58 -4 -155 25q-86 25 -115 80q-33 63 6 162
q36 91 125 108q93 18 244 -45q96 93 127 225q16 96 11 165z" />
    <glyph glyph-name="glyph407" horiz-adv-x="2401" 
d="M1473 1048q-57 33 -121 55q-65 23 -133 31l-68 9q204 113 291.5 182.5t129.5 122.5q43 52 70 52t108 -91q48 -54 110 -82q63 -27 141 -27q111 0 191 94q80 93 131 280q17 63 40 89q19 21 40 21q7 0 14 -2q31 -9 39 -42q4 -13 4 -30q0 -26 -9 -61q-54 -250 -167 -374
q-112 -125 -283 -125q-112 0 -206 43t-159 117l-175 -146l44 -42q60 -59 42 -83q-17 -24 -74 9zM2110 766q18 84 -9 84q-87 0 -117 -73q-31 -74 -1 -99q31 -25 103 -28zM2122 100q-21 -100 -97 -100q-77 0 -150 63l-221 187l-300 -187q-100 -63 -176 -63q-60 0 -60 62
q0 17 4 38l132 617q23 111 -15 142.5t-38 93.5t89 79q89 16 128 -32q39 -49 18 -149l-137 -643l370 227l314 -268l71 334q-147 10 -206 84q-59 73 -13 193q45 120 118 171t148 51q91 0 138 -63t20 -190zM560 498q19 2 40 2q54 0 101 -56q46 -57 20 -150q-27 -93 -124 -193
q-97 -101 -150 -101t-89 50q-22 31 -22 81q0 31 8 69l256 1200q21 100 97 100q75 0 82 -61t59 -141q51 -81 97 -122q45 -41 45 -91q-22 -35 -85 -3q-63 31 -122 84l-59 52zM977 2271q-6 86 -45 127q-118 122 -72 167q10 10 25 10q50 0 147 -122q55 -69 78 -146
q16 -56 16 -116q0 -48 -10 -98q-38 -181 -153 -295q-57 -77 -131 -41q-117 46 -173 36q-35 -6 -46 -33q-16 -39 -5 -64q9 -20 39 -29q24 -8 46 -5q37 4 71 37q87 -52 42 -115q-21 -29 -72 -33q-58 -4 -155 25q-86 25 -115 80q-33 63 6 162q36 91 125 108q93 18 244 -45
q96 93 127 225q16 96 11 165z" />
    <glyph glyph-name="glyph408" horiz-adv-x="2501" 
d="M1286 150q59 0 167 93q77 67 103 159q15 66 -13 82t-92 16q-91 0 -108 -79zM1319 1036q51 244 134 314l101 82q80 68 146 68q100 0 147 -83l50 -77q159 160 237 160t176 -110q97 -118 113 -234q2 -14 2 -31q0 -79 -35 -235l-168 -790q-22 -100 -92 -100t-120 35t-35 80
t63 58t72 124l131 617q37 165 38 213q-5 87 -63 159q-59 64 -90 64q-32 0 -255 -200q-128 200 -171 200q-46 -4 -82 -35l-72 -62q-36 -31 -78 -247l-78 -370q30 14 61 14q104 0 148 -25q132 -77 104 -243q-33 -154 -161 -255q-158 -127 -256 -127q-93 0 -129 50
q-22 31 -22 82q0 31 8 68zM560 498q19 2 40 2q54 0 101 -56q46 -57 20 -150q-27 -93 -124 -193q-97 -101 -150 -101t-89 50q-22 31 -22 81q0 31 8 69l256 1200q21 100 97 100q75 0 82 -61t59 -141q51 -81 97 -122q45 -41 45 -91q-22 -35 -85 -3q-63 31 -122 84l-59 52z
M977 2271q-6 86 -45 127q-118 122 -72 167q10 10 25 10q50 0 147 -122q55 -69 78 -146q16 -56 16 -116q0 -48 -10 -98q-38 -181 -153 -295q-57 -77 -131 -41q-117 46 -173 36q-35 -6 -46 -33q-16 -39 -5 -64q9 -20 39 -29q24 -8 46 -5q37 4 71 37q87 -52 42 -115
q-21 -29 -72 -33q-58 -4 -155 25q-86 25 -115 80q-33 63 6 162q36 91 125 108q93 18 244 -45q96 93 127 225q16 96 11 165z" />
    </font>
</defs>
</svg>
